<?xml version="1.0" encoding="UTF-8"?>
<!DOCTYPE svg PUBLIC "-//W3C//DTD SVG 1.1//EN" "http://www.w3.org/Graphics/SVG/1.1/DTD/svg11.dtd">
<svg xmlns="http://www.w3.org/2000/svg" version="1.1" width="1620px" height="2160px" style="shape-rendering:geometricPrecision; text-rendering:geometricPrecision; image-rendering:optimizeQuality; fill-rule:evenodd; clip-rule:evenodd" xmlns:xlink="http://www.w3.org/1999/xlink">
<g><path style="opacity:1" fill="#fefefe" d="M -0.5,-0.5 C 539.5,-0.5 1079.5,-0.5 1619.5,-0.5C 1619.5,719.5 1619.5,1439.5 1619.5,2159.5C 1079.5,2159.5 539.5,2159.5 -0.5,2159.5C -0.5,1439.5 -0.5,719.5 -0.5,-0.5 Z"/></g>
<g><path style="opacity:1" fill="#6e6e6e" d="M 429.5,281.5 C 421.483,281.501 413.483,281.834 405.5,282.5C 413.445,280.444 421.445,280.111 429.5,281.5 Z"/></g>
<g><path style="opacity:1" fill="#020202" d="M 429.5,281.5 C 458.632,284.639 476.966,300.305 484.5,328.5C 485.377,337.133 485.711,345.8 485.5,354.5C 485.058,358.154 484.724,361.821 484.5,365.5C 483.076,367.515 482.41,369.848 482.5,372.5C 480.796,375.939 479.462,379.605 478.5,383.5C 475.207,391.419 471.374,399.086 467,406.5C 454.487,424.191 441.487,441.524 428,458.5C 417.264,473.637 410.098,490.304 406.5,508.5C 405.076,510.515 404.41,512.848 404.5,515.5C 404.5,515.833 404.5,516.167 404.5,516.5C 403.356,520.972 402.523,525.638 402,530.5C 401.667,544.5 401.333,558.5 401,572.5C 400.392,574.154 399.892,575.821 399.5,577.5C 392.177,587.046 383.177,588.88 372.5,583C 369.535,580.21 367.202,577.043 365.5,573.5C 365.59,570.848 364.924,568.515 363.5,566.5C 363.186,553.087 363.519,539.754 364.5,526.5C 365.972,522.081 366.638,517.414 366.5,512.5C 369.586,492.411 375.753,473.411 385,455.5C 390.084,446.997 395.417,438.664 401,430.5C 416.633,412.57 430.3,393.237 442,372.5C 447.045,360.284 448.711,347.618 447,334.5C 442.289,323.223 433.789,318.223 421.5,319.5C 416.563,319.3 411.896,319.967 407.5,321.5C 403.085,321.861 399.085,323.194 395.5,325.5C 377.713,332.456 362.546,343.123 350,357.5C 347.628,360.91 345.795,364.577 344.5,368.5C 342.5,372.826 341.5,377.493 341.5,382.5C 341.398,386.117 342.065,389.45 343.5,392.5C 344.874,398.588 347.374,404.255 351,409.5C 356.667,413.833 361.667,418.833 366,424.5C 368.047,436.266 363.547,444.266 352.5,448.5C 347.797,448.563 343.13,448.229 338.5,447.5C 330.658,443.499 324.158,437.833 319,430.5C 292.801,385.189 299.968,346.022 340.5,313C 357.326,299.254 376.326,289.754 397.5,284.5C 400.152,284.59 402.485,283.924 404.5,282.5C 404.833,282.5 405.167,282.5 405.5,282.5C 413.483,281.834 421.483,281.501 429.5,281.5 Z"/></g>
<g><path style="opacity:1" fill="#5f5f5f" d="M 404.5,282.5 C 402.485,283.924 400.152,284.59 397.5,284.5C 399.515,283.076 401.848,282.41 404.5,282.5 Z"/></g>
<g><path style="opacity:1" fill="#b4b4b4" d="M 407.5,321.5 C 403.767,323.411 399.767,324.744 395.5,325.5C 399.085,323.194 403.085,321.861 407.5,321.5 Z"/></g>
<g><path style="opacity:1" fill="#5a5a5a" d="M 484.5,328.5 C 485.268,329.263 485.768,330.263 486,331.5C 486.822,339.345 486.656,347.011 485.5,354.5C 485.711,345.8 485.377,337.133 484.5,328.5 Z"/></g>
<g><path style="opacity:1" fill="#9d9d9d" d="M 484.5,365.5 C 484.59,368.152 483.924,370.485 482.5,372.5C 482.41,369.848 483.076,367.515 484.5,365.5 Z"/></g>
<g><path style="opacity:1" fill="#c7c7c7" d="M 344.5,368.5 C 343.635,376.466 343.302,384.466 343.5,392.5C 342.065,389.45 341.398,386.117 341.5,382.5C 341.5,377.493 342.5,372.826 344.5,368.5 Z"/></g>
<g><path style="opacity:1" fill="#bababa" d="M 482.5,372.5 C 482.196,375.522 481.696,378.522 481,381.5C 480.292,382.381 479.458,383.047 478.5,383.5C 479.462,379.605 480.796,375.939 482.5,372.5 Z"/></g>
<g><path style="opacity:1" fill="#3b3b3b" d="M 338.5,447.5 C 343.13,448.229 347.797,448.563 352.5,448.5C 350.866,449.161 349.033,449.494 347,449.5C 343.85,449.64 341.017,448.973 338.5,447.5 Z"/></g>
<g><path style="opacity:1" fill="#909090" d="M 406.5,508.5 C 406.59,511.152 405.924,513.485 404.5,515.5C 404.41,512.848 405.076,510.515 406.5,508.5 Z"/></g>
<g><path style="opacity:1" fill="#3e3e3e" d="M 366.5,512.5 C 366.638,517.414 365.972,522.081 364.5,526.5C 364.362,521.586 365.028,516.919 366.5,512.5 Z"/></g>
<g><path style="opacity:1" fill="#838383" d="M 404.5,516.5 C 402.906,535.451 402.072,554.451 402,573.5C 401.8,575.32 400.966,576.653 399.5,577.5C 399.892,575.821 400.392,574.154 401,572.5C 401.333,558.5 401.667,544.5 402,530.5C 402.523,525.638 403.356,520.972 404.5,516.5 Z"/></g>
<g><path style="opacity:1" fill="#989898" d="M 363.5,566.5 C 364.924,568.515 365.59,570.848 365.5,573.5C 364.076,571.485 363.41,569.152 363.5,566.5 Z"/></g>
<g><path style="opacity:1" fill="#1d0b01" d="M 873.5,576.5 C 875.292,577.309 877.292,577.809 879.5,578C 878.112,578.889 878.278,579.389 880,579.5C 881.144,579.089 882.311,578.756 883.5,578.5C 888.01,580.921 892.677,581.587 897.5,580.5C 950.126,589.074 996.793,610.24 1037.5,644C 1045.33,651.833 1053.17,659.667 1061,667.5C 1074.56,685.271 1085.56,704.605 1094,725.5C 1105.22,752.002 1113.72,779.335 1119.5,807.5C 1119.78,810.777 1119.45,813.943 1118.5,817C 1119,817.5 1119.5,818 1120,818.5C 1121.92,826.11 1123.59,833.777 1125,841.5C 1125.33,841.167 1125.67,840.833 1126,840.5C 1126.21,842.058 1126.71,843.391 1127.5,844.5C 1127.98,846.917 1128.98,849.084 1130.5,851C 1168.61,870.436 1201.45,896.602 1229,929.5C 1264.46,979.77 1254.29,1017.6 1198.5,1043C 1192.01,1045.55 1185.34,1047.39 1178.5,1048.5C 1187.68,1086.47 1180.84,1121.14 1158,1152.5C 1155.05,1156.1 1151.88,1159.43 1148.5,1162.5C 1148.79,1161.36 1148.79,1160.02 1148.5,1158.5C 1146.91,1158.58 1145.24,1158.25 1143.5,1157.5C 1142.83,1157.67 1142.17,1157.83 1141.5,1158C 1143.59,1158.95 1143.93,1160.29 1142.5,1162C 1143.17,1162.33 1143.83,1162.67 1144.5,1163C 1142.79,1164.75 1140.79,1165.42 1138.5,1165C 1139.1,1163.37 1138.76,1161.71 1137.5,1160C 1134.71,1159.76 1132.04,1159.09 1129.5,1158C 1130.81,1156.61 1130.48,1155.61 1128.5,1155C 1129.6,1154.23 1129.6,1153.4 1128.5,1152.5C 1153.26,1129.27 1163.76,1100.6 1160,1066.5C 1157.72,1043.76 1145.56,1029.59 1123.5,1024C 1108.77,1022.15 1095.1,1025.15 1082.5,1033C 1067.97,1041.53 1057.8,1053.7 1052,1069.5C 1047.59,1072.92 1042.76,1073.42 1037.5,1071C 1033.07,1067.21 1031.07,1062.38 1031.5,1056.5C 1031.84,1052.49 1032.17,1048.49 1032.5,1044.5C 1023.71,1041.39 1014.71,1039.05 1005.5,1037.5C 1007.89,1036.08 1010.55,1035.08 1013.5,1034.5C 1014.17,1033.17 1014.83,1031.83 1015.5,1030.5C 1014.07,1029.77 1012.9,1028.77 1012,1027.5C 1011.67,1028.17 1011.33,1028.83 1011,1029.5C 1009.64,1027.35 1009.48,1025.18 1010.5,1023C 1010.09,1022.05 1009.43,1021.39 1008.5,1021C 1009.17,1020.67 1009.83,1020.33 1010.5,1020C 1007.9,1020.83 1005.23,1021.5 1002.5,1022C 1003.04,1019.89 1004.04,1019.39 1005.5,1020.5C 1007.76,1019.09 1010.09,1018.09 1012.5,1017.5C 1018.81,1018.66 1025.15,1019.66 1031.5,1020.5C 1032.7,985.526 1028.7,951.193 1019.5,917.5C 1020.22,917.082 1020.72,916.416 1021,915.5C 1023.39,918.55 1026.39,920.883 1030,922.5C 1030.55,921.711 1031.21,920.711 1032,919.5C 1033.01,921.025 1033.51,922.692 1033.5,924.5C 1032.18,924.67 1031.01,924.337 1030,923.5C 1029.17,924.333 1028.33,925.167 1027.5,926C 1030.31,926.581 1032.98,926.081 1035.5,924.5C 1037.2,925.174 1038.86,925.841 1040.5,926.5C 1048.19,955.15 1050.52,984.317 1047.5,1014C 1047.36,1018.34 1047.86,1022.51 1049,1026.5C 1049.67,1023.42 1051.51,1022.25 1054.5,1023C 1051.69,1026.05 1052.36,1027.38 1056.5,1027C 1064.17,1021.33 1071.83,1015.67 1079.5,1010C 1086.42,1006.75 1093.59,1004.25 1101,1002.5C 1102.92,1000.21 1104.26,997.545 1105,994.5C 1106.17,983.518 1106.51,972.518 1106,961.5C 1096.48,954.822 1086.31,949.322 1075.5,945C 1074.5,943.333 1073.17,942 1071.5,941C 1067.25,939.045 1063.25,936.878 1059.5,934.5C 1061.38,934.607 1061.71,934.107 1060.5,933C 1062.5,932.667 1064.5,932.333 1066.5,932C 1063.63,931.105 1063.29,930.272 1065.5,929.5C 1069.49,930.147 1071.49,932.147 1071.5,935.5C 1073.49,934.711 1073.82,933.545 1072.5,932C 1074.66,931.278 1076.33,931.945 1077.5,934C 1076.38,934.249 1075.38,934.749 1074.5,935.5C 1074.67,935.833 1074.83,936.167 1075,936.5C 1077.87,934.575 1080.53,934.575 1083,936.5C 1084.08,934.606 1085.41,934.273 1087,935.5C 1091.5,930.826 1090.67,929.826 1084.5,932.5C 1083.83,932.167 1083.17,931.833 1082.5,931.5C 1083.27,930.289 1084.11,930.289 1085,931.5C 1091.2,926.3 1090.36,925.3 1082.5,928.5C 1081.17,925.833 1079.17,923.833 1076.5,922.5C 1077.97,922.277 1079.47,921.944 1081,921.5C 1081.49,922.793 1081.66,924.127 1081.5,925.5C 1083.45,925.773 1084.95,925.107 1086,923.5C 1087.05,924.517 1088.22,924.684 1089.5,924C 1089.82,921.958 1089.98,919.791 1090,917.5C 1092.73,918.362 1092.9,919.195 1090.5,920C 1092.97,921.925 1092.97,923.758 1090.5,925.5C 1092.61,926.917 1094.61,928.417 1096.5,930C 1095.78,932.122 1094.61,932.622 1093,931.5C 1094.03,935.25 1092.53,937.75 1088.5,939C 1090.72,940.391 1090.72,942.057 1088.5,944C 1091.08,944.432 1092.58,943.265 1093,940.5C 1093.67,941.167 1094.33,941.833 1095,942.5C 1094.53,940.213 1094.37,938.047 1094.5,936C 1095.83,935.667 1097.17,935.333 1098.5,935C 1095.93,933.122 1096.26,931.622 1099.5,930.5C 1100.19,931.025 1100.69,931.692 1101,932.5C 1101.73,930.842 1102.89,930.342 1104.5,931C 1103.16,933.015 1102.66,935.182 1103,937.5C 1103.33,937.167 1103.67,936.833 1104,936.5C 1106,938.253 1108.17,939.587 1110.5,940.5C 1110.37,943.896 1109.37,944.229 1107.5,941.5C 1106.17,942.833 1106.17,944.167 1107.5,945.5C 1108.68,944.145 1109.68,944.312 1110.5,946C 1109.48,948.449 1108.98,950.949 1109,953.5C 1109.91,952.672 1110.58,951.672 1111,950.5C 1111.2,952.207 1111.2,953.874 1111,955.5C 1112.51,954.91 1114.01,954.244 1115.5,953.5C 1113.4,951.873 1113.06,949.873 1114.5,947.5C 1114.33,945.161 1113.66,942.994 1112.5,941C 1114.83,941.167 1117.17,941.333 1119.5,941.5C 1121.15,938.546 1120.48,936.38 1117.5,935C 1118.17,934.667 1118.83,934.333 1119.5,934C 1118.07,930.909 1118.4,927.743 1120.5,924.5C 1120.16,920.838 1118.99,920.171 1117,922.5C 1117.5,920.473 1117.33,918.473 1116.5,916.5C 1115.91,916.709 1115.41,917.043 1115,917.5C 1112.38,913.686 1108.88,911.353 1104.5,910.5C 1104.31,914.449 1103.81,914.449 1103,910.5C 1100.74,908.111 1098.24,906.944 1095.5,907C 1096.83,906.333 1096.83,905.667 1095.5,905C 1087.66,904.479 1080.16,901.646 1073,896.5C 1072.67,897.167 1072.33,897.833 1072,898.5C 1068.82,896.577 1065.49,894.911 1062,893.5C 1059.5,894.121 1057.17,893.455 1055,891.5C 1054.67,891.833 1054.33,892.167 1054,892.5C 1047.75,890.234 1041.59,888.568 1035.5,887.5C 1031.8,884.334 1027.47,882.834 1022.5,883C 1021.67,882.167 1020.83,881.333 1020,880.5C 1018.99,881.337 1017.82,881.67 1016.5,881.5C 1016.34,877.865 1015.18,877.532 1013,880.5C 1012.67,880.167 1012.33,879.833 1012,879.5C 1011.17,880.5 1010.33,881.5 1009.5,882.5C 1008.38,881.086 1007.38,879.586 1006.5,878C 1005.56,877.308 1004.9,877.475 1004.5,878.5C 959.703,865.647 914.037,857.48 867.5,854C 792.153,847.448 716.82,848.115 641.5,856C 619.179,858.276 597.179,862.276 575.5,868C 562.354,899.606 554.021,932.44 550.5,966.5C 550.833,966.833 551.167,967.167 551.5,967.5C 552.518,966.807 553.518,966.141 554.5,965.5C 554.286,967.144 554.62,968.644 555.5,970C 555,970.5 554.5,971 554,971.5C 552.594,968.078 550.761,967.745 548.5,970.5C 549.09,971.799 550.09,972.632 551.5,973C 550.377,974.044 549.044,974.71 547.5,975C 549.125,975.853 549.458,976.853 548.5,978C 551.31,982.5 549.977,983.666 544.5,981.5C 543.713,982.242 543.047,983.075 542.5,984C 544.527,986.094 546.194,988.427 547.5,991C 546.551,991.617 545.718,991.451 545,990.5C 544.581,991.672 543.915,992.672 543,993.5C 542.438,988.164 541.271,987.664 539.5,992C 542.003,993.784 542.003,995.451 539.5,997C 541.891,998.309 541.891,999.309 539.5,1000C 541.848,1000.35 543.681,1001.51 545,1003.5C 547.382,1002.02 549.549,1000.18 551.5,998C 553.193,997.516 554.527,998.016 555.5,999.5C 547.93,1018.1 545.43,1037.43 548,1057.5C 550.567,1073.96 557.401,1088.3 568.5,1100.5C 567.024,1102.77 565.524,1105.1 564,1107.5C 563.667,1107.17 563.333,1106.83 563,1106.5C 562.152,1109.56 561.152,1112.56 560,1115.5C 559.092,1113.56 557.592,1112.56 555.5,1112.5C 553.076,1109.34 550.409,1106.34 547.5,1103.5C 546.516,1106.43 546.183,1109.43 546.5,1112.5C 545.127,1112.34 543.793,1112.51 542.5,1113C 543.022,1113.56 543.355,1114.23 543.5,1115C 541.688,1116.81 539.855,1118.64 538,1120.5C 536.951,1119.48 535.784,1119.32 534.5,1120C 535.167,1120.33 535.833,1120.67 536.5,1121C 535.207,1121.49 533.873,1121.66 532.5,1121.5C 532.215,1119.71 532.548,1118.05 533.5,1116.5C 534.192,1117.03 534.692,1117.69 535,1118.5C 535.5,1117.33 536.333,1116.5 537.5,1116C 535.899,1115.73 534.399,1115.23 533,1114.5C 533.311,1113.07 533.145,1111.73 532.5,1110.5C 533.025,1109.81 533.692,1109.31 534.5,1109C 534.167,1108.67 533.833,1108.33 533.5,1108C 534.667,1107.5 535.5,1106.67 536,1105.5C 537.11,1109.28 538.61,1109.45 540.5,1106C 539.5,1105.5 538.5,1105 537.5,1104.5C 536.716,1101.95 535.549,1099.62 534,1097.5C 533.667,1093.5 533.333,1089.5 533,1085.5C 532.444,1100.83 531.611,1116.17 530.5,1131.5C 530.295,1117.99 530.628,1104.49 531.5,1091C 531.67,1087.57 531.004,1084.4 529.5,1081.5C 529.838,1078.84 529.171,1076.51 527.5,1074.5C 528.616,1074.6 529.616,1074.1 530.5,1073C 531.573,1071.58 531.573,1070.25 530.5,1069C 532.569,1068.68 532.902,1067.84 531.5,1066.5C 532.167,1065.83 532.833,1065.17 533.5,1064.5C 532.167,1063.5 532.167,1062.5 533.5,1061.5C 533.167,1061.17 532.833,1060.83 532.5,1060.5C 531.749,1061.38 531.249,1062.38 531,1063.5C 530.767,1061.22 529.934,1059.22 528.5,1057.5C 531.124,1055.09 531.124,1052.75 528.5,1050.5C 527.298,1041.43 527.465,1032.43 529,1023.5C 522.025,1015.4 513.525,1012.74 503.5,1015.5C 498.841,1017.16 494.841,1019.83 491.5,1023.5C 489.549,1023.77 488.049,1023.11 487,1021.5C 484.94,1025.06 482.107,1027.73 478.5,1029.5C 478.167,1029.33 477.833,1029.17 477.5,1029C 478.672,1027 480.005,1025.17 481.5,1023.5C 481.026,1020.3 480.026,1019.97 478.5,1022.5C 477.28,1021.29 476.113,1021.29 475,1022.5C 473.385,1020.1 472.719,1020.1 473,1022.5C 474.255,1023.21 475.421,1024.04 476.5,1025C 475.299,1025.9 474.465,1027.07 474,1028.5C 473.309,1026.11 472.309,1026.11 471,1028.5C 470.667,1026.95 471.167,1025.62 472.5,1024.5C 471.369,1023.4 470.535,1023.73 470,1025.5C 468.989,1024.66 467.822,1024.33 466.5,1024.5C 466.703,1022.96 467.37,1021.62 468.5,1020.5C 449.4,1012.54 431.4,1002.71 414.5,991C 405.552,983.058 397.719,974.225 391,964.5C 381.789,948.198 381.122,931.532 389,914.5C 392.999,905.827 397.999,897.827 404,890.5C 421.914,870.904 442.414,854.737 465.5,842C 479.777,834.613 493.944,827.113 508,819.5C 515.4,784.635 526.4,750.968 541,718.5C 565.558,665.609 604.391,627.109 657.5,603C 686.866,589.825 717.533,581.325 749.5,577.5C 753.163,578.112 756.83,578.279 760.5,578C 759.833,577.667 759.167,577.333 758.5,577C 763.747,576.818 768.747,575.984 773.5,574.5C 796.756,572.501 820.09,572.001 843.5,573C 853.666,573.953 863.666,575.119 873.5,576.5 Z"/></g>
<g><path style="opacity:1" fill="#3c352e" d="M 773.5,574.5 C 768.747,575.984 763.747,576.818 758.5,577C 759.167,577.333 759.833,577.667 760.5,578C 756.83,578.279 753.163,578.112 749.5,577.5C 757.291,575.929 765.291,574.929 773.5,574.5 Z"/></g>
<g><path style="opacity:1" fill="#37312c" d="M 873.5,576.5 C 881.767,576.989 889.767,578.322 897.5,580.5C 892.677,581.587 888.01,580.921 883.5,578.5C 882.311,578.756 881.144,579.089 880,579.5C 878.278,579.389 878.112,578.889 879.5,578C 877.292,577.809 875.292,577.309 873.5,576.5 Z"/></g>
<g><path style="opacity:1" fill="#9a6940" d="M 558.5,755.5 C 558.564,751.78 559.064,748.114 560,744.5C 574.737,712.432 594.903,684.266 620.5,660C 632.57,651.622 643.903,642.289 654.5,632C 653.906,631.536 653.239,631.369 652.5,631.5C 656.928,628.109 661.594,624.942 666.5,622C 675.545,617.401 684.878,613.401 694.5,610C 778.636,588.419 861.969,591.085 944.5,618C 980.597,630.783 1011.76,650.95 1038,678.5C 1061.03,707.222 1077.19,739.556 1086.5,775.5C 1086.17,776.167 1085.83,776.833 1085.5,777.5C 1023.07,749.391 957.741,731.558 889.5,724C 799.556,713.047 710.223,716.714 621.5,735C 599.895,740.147 578.895,746.98 558.5,755.5 Z"/></g>
<g><path style="opacity:1" fill="#060606" d="M 399.5,631.5 C 400.833,633.5 402.5,635.167 404.5,636.5C 411.292,647.471 409.292,656.638 398.5,664C 382.4,669.577 373.067,663.91 370.5,647C 370.667,645.167 370.833,643.333 371,641.5C 372.592,636.412 375.759,632.745 380.5,630.5C 386.955,628.913 393.289,629.246 399.5,631.5 Z"/></g>
<g><path style="opacity:1" fill="#919191" d="M 399.5,631.5 C 393.289,629.246 386.955,628.913 380.5,630.5C 383.186,629.009 386.186,628.343 389.5,628.5C 391.5,628.667 393.5,628.833 395.5,629C 397.32,629.2 398.653,630.034 399.5,631.5 Z"/></g>
<g><path style="opacity:1" fill="#969696" d="M 399.5,631.5 C 402.167,632.167 403.833,633.833 404.5,636.5C 402.5,635.167 400.833,633.5 399.5,631.5 Z"/></g>
<g><path style="opacity:1" fill="#efebd4" d="M 652.5,631.5 C 653.239,631.369 653.906,631.536 654.5,632C 643.903,642.289 632.57,651.622 620.5,660C 594.903,684.266 574.737,712.432 560,744.5C 559.064,748.114 558.564,751.78 558.5,755.5C 556.565,756.15 554.565,756.483 552.5,756.5C 552.651,749.544 554.151,742.877 557,736.5C 571.379,705.439 591.212,678.273 616.5,655C 627.362,645.404 639.362,637.571 652.5,631.5 Z"/></g>
<g><path style="opacity:1" fill="#996940" d="M 412.5,914.5 C 419.819,903.668 428.486,893.835 438.5,885C 456.14,870.372 475.14,857.705 495.5,847C 500.095,845.7 504.428,843.867 508.5,841.5C 507.675,840.614 506.675,840.281 505.5,840.5C 558.059,816.025 613.392,801.525 671.5,797C 790.147,786.059 907.147,795.393 1022.5,825C 1075.29,841.061 1123.95,865.061 1168.5,897C 1186.92,911.756 1202.92,928.756 1216.5,948C 1171.1,913.458 1120.76,887.458 1065.5,870C 918.249,827.458 768.582,816.125 616.5,836C 568.23,842.4 521.563,854.734 476.5,873C 452.589,883.119 431.256,896.952 412.5,914.5 Z"/></g>
<g><path style="opacity:1" fill="#2e2721" d="M 1119.5,807.5 C 1123.17,819.5 1125.84,831.833 1127.5,844.5C 1126.71,843.391 1126.21,842.058 1126,840.5C 1125.67,840.833 1125.33,841.167 1125,841.5C 1123.59,833.777 1121.92,826.11 1120,818.5C 1119.5,818 1119,817.5 1118.5,817C 1119.45,813.943 1119.78,810.777 1119.5,807.5 Z"/></g>
<g><path style="opacity:1" fill="#edead4" d="M 505.5,840.5 C 506.675,840.281 507.675,840.614 508.5,841.5C 504.428,843.867 500.095,845.7 495.5,847C 475.14,857.705 456.14,870.372 438.5,885C 428.486,893.835 419.819,903.668 412.5,914.5C 411.5,914.5 410.5,914.5 409.5,914.5C 409.351,913.448 409.517,912.448 410,911.5C 433.804,883.027 462.304,860.527 495.5,844C 498.748,842.54 502.081,841.374 505.5,840.5 Z"/></g>
<g><path style="opacity:1" fill="#8e4d31" d="M 1004.5,878.5 C 1007.08,881.32 1008.91,884.654 1010,888.5C 1013.28,898.164 1016.44,907.831 1019.5,917.5C 1028.7,951.193 1032.7,985.526 1031.5,1020.5C 1025.15,1019.66 1018.81,1018.66 1012.5,1017.5C 1009.57,1016.7 1006.57,1016.37 1003.5,1016.5C 997.009,980.338 977.009,954.672 943.5,939.5C 947.864,936.738 952.531,934.571 957.5,933C 959.981,928.977 960.148,924.811 958,920.5C 952.709,909.729 944.042,904.729 932,905.5C 919.5,906.944 907,908.444 894.5,910C 880.5,910.667 866.5,910.667 852.5,910C 842.61,909.7 833.944,906.367 826.5,900C 814.13,895.687 808.963,900.187 811,913.5C 812.715,922.207 817.215,929.04 824.5,934C 830.368,937.222 836.368,939.722 842.5,941.5C 827.635,950.532 814.802,961.865 804,975.5C 794.326,990.353 787.826,1006.52 784.5,1024C 771.136,1018.87 757.469,1018.37 743.5,1022.5C 741.536,994.405 729.869,971.238 708.5,953C 703.668,949.661 699.001,946.161 694.5,942.5C 699.425,940.244 704.425,938.078 709.5,936C 720.617,927.998 725.117,917.165 723,903.5C 720.398,899.788 716.898,898.622 712.5,900C 707.458,903.521 702.125,906.521 696.5,909C 680.5,909.667 664.5,909.667 648.5,909C 638.211,908.275 628.045,906.775 618,904.5C 605.88,904.721 596.88,910.055 591,920.5C 590.21,923.634 590.543,926.634 592,929.5C 594.22,932.021 596.72,934.188 599.5,936C 582.14,942.339 567.14,952.173 554.5,965.5C 553.518,966.141 552.518,966.807 551.5,967.5C 551.167,967.167 550.833,966.833 550.5,966.5C 554.021,932.44 562.354,899.606 575.5,868C 597.179,862.276 619.179,858.276 641.5,856C 716.82,848.115 792.153,847.448 867.5,854C 914.037,857.48 959.703,865.647 1004.5,878.5 Z"/></g>
<g><path style="opacity:1" fill="#160a00" d="M 1004.5,878.5 C 1004.9,877.475 1005.56,877.308 1006.5,878C 1007.38,879.586 1008.38,881.086 1009.5,882.5C 1010.33,881.5 1011.17,880.5 1012,879.5C 1012.33,879.833 1012.67,880.167 1013,880.5C 1015.18,877.532 1016.34,877.865 1016.5,881.5C 1017.82,881.67 1018.99,881.337 1020,880.5C 1020.83,881.333 1021.67,882.167 1022.5,883C 1027.47,882.834 1031.8,884.334 1035.5,887.5C 1041.59,888.568 1047.75,890.234 1054,892.5C 1054.33,892.167 1054.67,891.833 1055,891.5C 1057.17,893.455 1059.5,894.121 1062,893.5C 1065.49,894.911 1068.82,896.577 1072,898.5C 1072.33,897.833 1072.67,897.167 1073,896.5C 1080.16,901.646 1087.66,904.479 1095.5,905C 1096.83,905.667 1096.83,906.333 1095.5,907C 1098.24,906.944 1100.74,908.111 1103,910.5C 1103.81,914.449 1104.31,914.449 1104.5,910.5C 1108.88,911.353 1112.38,913.686 1115,917.5C 1115.41,917.043 1115.91,916.709 1116.5,916.5C 1117.33,918.473 1117.5,920.473 1117,922.5C 1118.99,920.171 1120.16,920.838 1120.5,924.5C 1118.4,927.743 1118.07,930.909 1119.5,934C 1118.83,934.333 1118.17,934.667 1117.5,935C 1120.48,936.38 1121.15,938.546 1119.5,941.5C 1117.17,941.333 1114.83,941.167 1112.5,941C 1113.66,942.994 1114.33,945.161 1114.5,947.5C 1113.06,949.873 1113.4,951.873 1115.5,953.5C 1114.01,954.244 1112.51,954.91 1111,955.5C 1111.2,953.874 1111.2,952.207 1111,950.5C 1110.58,951.672 1109.91,952.672 1109,953.5C 1108.98,950.949 1109.48,948.449 1110.5,946C 1109.68,944.312 1108.68,944.145 1107.5,945.5C 1106.17,944.167 1106.17,942.833 1107.5,941.5C 1109.37,944.229 1110.37,943.896 1110.5,940.5C 1108.17,939.587 1106,938.253 1104,936.5C 1103.67,936.833 1103.33,937.167 1103,937.5C 1102.66,935.182 1103.16,933.015 1104.5,931C 1102.89,930.342 1101.73,930.842 1101,932.5C 1100.69,931.692 1100.19,931.025 1099.5,930.5C 1096.26,931.622 1095.93,933.122 1098.5,935C 1097.17,935.333 1095.83,935.667 1094.5,936C 1094.37,938.047 1094.53,940.213 1095,942.5C 1094.33,941.833 1093.67,941.167 1093,940.5C 1092.58,943.265 1091.08,944.432 1088.5,944C 1090.72,942.057 1090.72,940.391 1088.5,939C 1092.53,937.75 1094.03,935.25 1093,931.5C 1094.61,932.622 1095.78,932.122 1096.5,930C 1094.61,928.417 1092.61,926.917 1090.5,925.5C 1092.97,923.758 1092.97,921.925 1090.5,920C 1092.9,919.195 1092.73,918.362 1090,917.5C 1089.98,919.791 1089.82,921.958 1089.5,924C 1088.22,924.684 1087.05,924.517 1086,923.5C 1084.95,925.107 1083.45,925.773 1081.5,925.5C 1081.66,924.127 1081.49,922.793 1081,921.5C 1079.47,921.944 1077.97,922.277 1076.5,922.5C 1079.17,923.833 1081.17,925.833 1082.5,928.5C 1090.36,925.3 1091.2,926.3 1085,931.5C 1084.11,930.289 1083.27,930.289 1082.5,931.5C 1083.17,931.833 1083.83,932.167 1084.5,932.5C 1090.67,929.826 1091.5,930.826 1087,935.5C 1085.41,934.273 1084.08,934.606 1083,936.5C 1080.53,934.575 1077.87,934.575 1075,936.5C 1074.83,936.167 1074.67,935.833 1074.5,935.5C 1075.38,934.749 1076.38,934.249 1077.5,934C 1076.33,931.945 1074.66,931.278 1072.5,932C 1073.82,933.545 1073.49,934.711 1071.5,935.5C 1071.49,932.147 1069.49,930.147 1065.5,929.5C 1063.29,930.272 1063.63,931.105 1066.5,932C 1064.5,932.333 1062.5,932.667 1060.5,933C 1061.71,934.107 1061.38,934.607 1059.5,934.5C 1053.01,932.587 1047.01,929.587 1041.5,925.5C 1040.89,925.624 1040.56,925.957 1040.5,926.5C 1038.86,925.841 1037.2,925.174 1035.5,924.5C 1032.98,926.081 1030.31,926.581 1027.5,926C 1028.33,925.167 1029.17,924.333 1030,923.5C 1031.01,924.337 1032.18,924.67 1033.5,924.5C 1033.51,922.692 1033.01,921.025 1032,919.5C 1031.21,920.711 1030.55,921.711 1030,922.5C 1026.39,920.883 1023.39,918.55 1021,915.5C 1020.72,916.416 1020.22,917.082 1019.5,917.5C 1016.44,907.831 1013.28,898.164 1010,888.5C 1008.91,884.654 1007.08,881.32 1004.5,878.5 Z"/></g>
<g><path style="opacity:1" fill="#76472b" d="M 511.5,883.5 C 512.649,883.791 513.316,884.624 513.5,886C 509.662,908.673 508.496,931.506 510,954.5C 510.306,967.331 511.806,979.998 514.5,992.5C 503.6,992.042 494.1,995.375 486,1002.5C 459.447,994.07 436.447,980.07 417,960.5C 413.419,956.091 412.085,951.091 413,945.5C 416.169,938.674 420.669,932.841 426.5,928C 452.528,908.324 480.861,893.49 511.5,883.5 Z"/></g>
<g><path style="opacity:1" fill="#170b00" d="M 1012.5,1017.5 C 1010.09,1018.09 1007.76,1019.09 1005.5,1020.5C 1004.04,1019.39 1003.04,1019.89 1002.5,1022C 1005.23,1021.5 1007.9,1020.83 1010.5,1020C 1009.83,1020.33 1009.17,1020.67 1008.5,1021C 1009.43,1021.39 1010.09,1022.05 1010.5,1023C 1009.48,1025.18 1009.64,1027.35 1011,1029.5C 1011.33,1028.83 1011.67,1028.17 1012,1027.5C 1012.9,1028.77 1014.07,1029.77 1015.5,1030.5C 1014.83,1031.83 1014.17,1033.17 1013.5,1034.5C 1010.55,1035.08 1007.89,1036.08 1005.5,1037.5C 1005.18,1072.97 992.176,1102.8 966.5,1127C 929.289,1154.32 889.289,1158.98 846.5,1141C 808.872,1121.29 788.039,1090.12 784,1047.5C 774.287,1041.29 763.787,1039.46 752.5,1042C 748.793,1042.94 745.626,1044.77 743,1047.5C 738.888,1092.58 716.055,1123.75 674.5,1141C 635.318,1154.76 599.318,1149.1 566.5,1124C 562.63,1120.3 558.963,1116.46 555.5,1112.5C 557.592,1112.56 559.092,1113.56 560,1115.5C 561.152,1112.56 562.152,1109.56 563,1106.5C 563.333,1106.83 563.667,1107.17 564,1107.5C 565.524,1105.1 567.024,1102.77 568.5,1100.5C 600.589,1132.39 637.255,1138.55 678.5,1119C 709.307,1100.13 724.974,1072.46 725.5,1036C 725.761,1008.42 716.094,985.091 696.5,966C 658.612,938.019 620.279,937.352 581.5,964C 569.881,973.769 561.215,985.602 555.5,999.5C 554.527,998.016 553.193,997.516 551.5,998C 549.549,1000.18 547.382,1002.02 545,1003.5C 543.681,1001.51 541.848,1000.35 539.5,1000C 541.891,999.309 541.891,998.309 539.5,997C 542.003,995.451 542.003,993.784 539.5,992C 541.271,987.664 542.438,988.164 543,993.5C 543.915,992.672 544.581,991.672 545,990.5C 545.718,991.451 546.551,991.617 547.5,991C 546.194,988.427 544.527,986.094 542.5,984C 543.047,983.075 543.713,982.242 544.5,981.5C 549.977,983.666 551.31,982.5 548.5,978C 549.458,976.853 549.125,975.853 547.5,975C 549.044,974.71 550.377,974.044 551.5,973C 550.09,972.632 549.09,971.799 548.5,970.5C 550.761,967.745 552.594,968.078 554,971.5C 554.5,971 555,970.5 555.5,970C 554.62,968.644 554.286,967.144 554.5,965.5C 567.14,952.173 582.14,942.339 599.5,936C 596.72,934.188 594.22,932.021 592,929.5C 590.543,926.634 590.21,923.634 591,920.5C 596.88,910.055 605.88,904.721 618,904.5C 628.045,906.775 638.211,908.275 648.5,909C 664.5,909.667 680.5,909.667 696.5,909C 702.125,906.521 707.458,903.521 712.5,900C 716.898,898.622 720.398,899.788 723,903.5C 725.117,917.165 720.617,927.998 709.5,936C 704.425,938.078 699.425,940.244 694.5,942.5C 699.001,946.161 703.668,949.661 708.5,953C 729.869,971.238 741.536,994.405 743.5,1022.5C 757.469,1018.37 771.136,1018.87 784.5,1024C 787.826,1006.52 794.326,990.353 804,975.5C 814.802,961.865 827.635,950.532 842.5,941.5C 836.368,939.722 830.368,937.222 824.5,934C 817.215,929.04 812.715,922.207 811,913.5C 808.963,900.187 814.13,895.687 826.5,900C 833.944,906.367 842.61,909.7 852.5,910C 866.5,910.667 880.5,910.667 894.5,910C 907,908.444 919.5,906.944 932,905.5C 944.042,904.729 952.709,909.729 958,920.5C 960.148,924.811 959.981,928.977 957.5,933C 952.531,934.571 947.864,936.738 943.5,939.5C 977.009,954.672 997.009,980.338 1003.5,1016.5C 1006.57,1016.37 1009.57,1016.7 1012.5,1017.5 Z"/></g>
<g><path style="opacity:1" fill="#481906" d="M 735.5,894.5 C 737.981,894.323 739.814,895.323 741,897.5C 743.973,909.699 742.639,921.366 737,932.5C 735.333,933.833 733.667,935.167 732,936.5C 730.086,935.586 728.919,934.086 728.5,932C 730.138,928.558 731.638,925.058 733,921.5C 733.854,912.446 734.688,903.446 735.5,894.5 Z"/></g>
<g><path style="opacity:1" fill="#451805" d="M 796.5,895.5 C 798.948,895.085 800.281,896.085 800.5,898.5C 798.744,911.476 801.41,923.476 808.5,934.5C 808.566,936.266 807.732,937.266 806,937.5C 799.238,935.255 795.238,930.588 794,923.5C 792.691,915.869 792.358,908.203 793,900.5C 793.697,898.416 794.864,896.749 796.5,895.5 Z"/></g>
<g><path style="opacity:1" fill="#76472b" d="M 1129.5,920.5 C 1154.92,932.374 1178.92,946.54 1201.5,963C 1209.18,969.337 1215.34,976.837 1220,985.5C 1222.24,991.478 1221.58,997.145 1218,1002.5C 1203.36,1015.99 1186.36,1025.32 1167,1030.5C 1163.53,1027.36 1160.37,1023.86 1157.5,1020C 1147.48,1011.99 1136.14,1006.66 1123.5,1004C 1125.19,989.001 1127.02,973.834 1129,958.5C 1129.5,945.838 1129.67,933.171 1129.5,920.5 Z"/></g>
<g><path style="opacity:1" fill="#261606" d="M 540.5,905.5 C 541.87,905.856 542.87,906.69 543.5,908C 542.06,911.921 540.393,915.755 538.5,919.5C 535.993,935.899 534.16,952.566 533,969.5C 531.989,970.337 530.822,970.67 529.5,970.5C 528.121,949.641 528.454,928.974 530.5,908.5C 533.897,907.283 537.23,906.283 540.5,905.5 Z"/></g>
<g><path style="opacity:1" fill="#8e4d31" d="M 568.5,1100.5 C 557.401,1088.3 550.567,1073.96 548,1057.5C 545.43,1037.43 547.93,1018.1 555.5,999.5C 561.215,985.602 569.881,973.769 581.5,964C 620.279,937.352 658.612,938.019 696.5,966C 716.094,985.091 725.761,1008.42 725.5,1036C 724.974,1072.46 709.307,1100.13 678.5,1119C 637.255,1138.55 600.589,1132.39 568.5,1100.5 Z"/></g>
<g><path style="opacity:1" fill="#261707" d="M 1059.5,934.5 C 1063.25,936.878 1067.25,939.045 1071.5,941C 1073.17,942 1074.5,943.333 1075.5,945C 1086.31,949.322 1096.48,954.822 1106,961.5C 1106.51,972.518 1106.17,983.518 1105,994.5C 1104.26,997.545 1102.92,1000.21 1101,1002.5C 1093.59,1004.25 1086.42,1006.75 1079.5,1010C 1071.83,1015.67 1064.17,1021.33 1056.5,1027C 1052.36,1027.38 1051.69,1026.05 1054.5,1023C 1051.51,1022.25 1049.67,1023.42 1049,1026.5C 1047.86,1022.51 1047.36,1018.34 1047.5,1014C 1050.52,984.317 1048.19,955.15 1040.5,926.5C 1040.56,925.957 1040.89,925.624 1041.5,925.5C 1047.01,929.587 1053.01,932.587 1059.5,934.5 Z"/></g>
<g><path style="opacity:1" fill="#8f4d31" d="M 883.5,948.5 C 923.64,946.318 954.473,961.985 976,995.5C 992.449,1032.15 989.449,1067.15 967,1100.5C 933.341,1136.7 894.174,1143.86 849.5,1122C 812.074,1096.96 797.241,1062.13 805,1017.5C 816.429,977.562 842.596,954.562 883.5,948.5 Z"/></g>
<g><path style="opacity:1" fill="#040303" d="M 634.5,971.5 C 661.421,970.277 680.254,981.943 691,1006.5C 699.915,1032.41 697.915,1057.41 685,1081.5C 669.028,1106.16 647.195,1113.66 619.5,1104C 599.965,1092.13 589.131,1074.63 587,1051.5C 583.593,1022.36 593.093,998.532 615.5,980C 621.62,976.469 627.953,973.636 634.5,971.5 Z"/></g>
<g><path style="opacity:1" fill="#030202" d="M 889.5,973.5 C 916.421,972.277 935.254,983.943 946,1008.5C 954.915,1034.41 952.915,1059.41 940,1083.5C 924.028,1108.16 902.195,1115.66 874.5,1106C 855.257,1094.39 844.424,1077.22 842,1054.5C 838.379,1025.01 847.879,1000.84 870.5,982C 876.62,978.469 882.953,975.636 889.5,973.5 Z"/></g>
<g><path style="opacity:1" fill="#fcfcfc" d="M 632.5,998.5 C 653.821,998.634 666.654,1009.3 671,1030.5C 673.07,1049.63 667.237,1065.8 653.5,1079C 634.143,1089.44 619.31,1084.94 609,1065.5C 602.417,1048.5 603.084,1031.83 611,1015.5C 616.347,1007.3 623.513,1001.63 632.5,998.5 Z"/></g>
<g><path style="opacity:1" fill="#fcfcfc" d="M 887.5,1000.5 C 908.821,1000.63 921.654,1011.3 926,1032.5C 928.07,1051.63 922.237,1067.8 908.5,1081C 889.143,1091.44 874.31,1086.94 864,1067.5C 857.417,1050.5 858.084,1033.83 866,1017.5C 871.347,1009.3 878.513,1003.63 887.5,1000.5 Z"/></g>
<g><path style="opacity:1" fill="#8e4d31" d="M 503.5,1015.5 C 513.525,1012.74 522.025,1015.4 529,1023.5C 527.465,1032.43 527.298,1041.43 528.5,1050.5C 528.631,1051.24 528.464,1051.91 528,1052.5C 523.004,1043.16 515.337,1037.16 505,1034.5C 498.8,1035.04 494.633,1038.2 492.5,1044C 492.759,1045.26 493.426,1046.26 494.5,1047C 498.016,1047.5 501.516,1047.33 505,1046.5C 507.547,1046.76 510.047,1047.26 512.5,1048C 515.667,1052.5 518.833,1057 522,1061.5C 522.667,1063.17 522.667,1064.83 522,1066.5C 508.023,1077.32 504.523,1090.99 511.5,1107.5C 512.325,1108.39 513.325,1108.72 514.5,1108.5C 514.122,1098.86 516.289,1089.86 521,1081.5C 523.697,1077.89 526.53,1077.89 529.5,1081.5C 531.004,1084.4 531.67,1087.57 531.5,1091C 530.628,1104.49 530.295,1117.99 530.5,1131.5C 531.094,1138.18 531.76,1144.84 532.5,1151.5C 508.866,1146.04 492.366,1132.04 483,1109.5C 480.844,1102.87 479.011,1096.21 477.5,1089.5C 479.314,1079.55 480.147,1069.22 480,1058.5C 482.087,1041.32 490.087,1027.65 504,1017.5C 504.692,1016.56 504.525,1015.9 503.5,1015.5 Z"/></g>
<g><path style="opacity:1" fill="#eeead6" d="M 503.5,1015.5 C 504.525,1015.9 504.692,1016.56 504,1017.5C 490.087,1027.65 482.087,1041.32 480,1058.5C 480.147,1069.22 479.314,1079.55 477.5,1089.5C 474.779,1071.36 476.612,1053.69 483,1036.5C 485.346,1031.8 488.18,1027.46 491.5,1023.5C 494.841,1019.83 498.841,1017.16 503.5,1015.5 Z"/></g>
<g><path style="opacity:1" fill="#8f4d31" d="M 1128.5,1152.5 C 1111.84,1166.67 1092.5,1172.84 1070.5,1171C 1060.63,1168.98 1052.13,1164.48 1045,1157.5C 1042.78,1149.98 1041.11,1142.31 1040,1134.5C 1016.07,1206.76 967.573,1253.59 894.5,1275C 852.488,1285.93 809.821,1289.6 766.5,1286C 730.619,1283.36 695.619,1276.36 661.5,1265C 628.03,1253.87 599.53,1235.37 576,1209.5C 553.605,1181.14 543.772,1148.8 546.5,1112.5C 546.183,1109.43 546.516,1106.43 547.5,1103.5C 550.409,1106.34 553.076,1109.34 555.5,1112.5C 558.963,1116.46 562.63,1120.3 566.5,1124C 599.318,1149.1 635.318,1154.76 674.5,1141C 716.055,1123.75 738.888,1092.58 743,1047.5C 745.626,1044.77 748.793,1042.94 752.5,1042C 763.787,1039.46 774.287,1041.29 784,1047.5C 788.039,1090.12 808.872,1121.29 846.5,1141C 889.289,1158.98 929.289,1154.32 966.5,1127C 992.176,1102.8 1005.18,1072.97 1005.5,1037.5C 1014.71,1039.05 1023.71,1041.39 1032.5,1044.5C 1032.17,1048.49 1031.84,1052.49 1031.5,1056.5C 1031.07,1062.38 1033.07,1067.21 1037.5,1071C 1042.76,1073.42 1047.59,1072.92 1052,1069.5C 1057.8,1053.7 1067.97,1041.53 1082.5,1033C 1095.1,1025.15 1108.77,1022.15 1123.5,1024C 1145.56,1029.59 1157.72,1043.76 1160,1066.5C 1163.76,1100.6 1153.26,1129.27 1128.5,1152.5 Z"/></g>
<g><path style="opacity:1" fill="#210e01" d="M 528.5,1050.5 C 531.124,1052.75 531.124,1055.09 528.5,1057.5C 529.934,1059.22 530.767,1061.22 531,1063.5C 531.249,1062.38 531.749,1061.38 532.5,1060.5C 532.833,1060.83 533.167,1061.17 533.5,1061.5C 532.167,1062.5 532.167,1063.5 533.5,1064.5C 532.833,1065.17 532.167,1065.83 531.5,1066.5C 532.902,1067.84 532.569,1068.68 530.5,1069C 531.573,1070.25 531.573,1071.58 530.5,1073C 529.616,1074.1 528.616,1074.6 527.5,1074.5C 529.171,1076.51 529.838,1078.84 529.5,1081.5C 526.53,1077.89 523.697,1077.89 521,1081.5C 516.289,1089.86 514.122,1098.86 514.5,1108.5C 513.325,1108.72 512.325,1108.39 511.5,1107.5C 504.523,1090.99 508.023,1077.32 522,1066.5C 522.667,1064.83 522.667,1063.17 522,1061.5C 518.833,1057 515.667,1052.5 512.5,1048C 510.047,1047.26 507.547,1046.76 505,1046.5C 501.516,1047.33 498.016,1047.5 494.5,1047C 493.426,1046.26 492.759,1045.26 492.5,1044C 494.633,1038.2 498.8,1035.04 505,1034.5C 515.337,1037.16 523.004,1043.16 528,1052.5C 528.464,1051.91 528.631,1051.24 528.5,1050.5 Z"/></g>
<g><path style="opacity:1" fill="#9e9c9a" d="M 555.5,1046.5 C 557.722,1046.18 559.556,1046.84 561,1048.5C 563.744,1061.57 568.911,1073.57 576.5,1084.5C 573.632,1089.69 570.465,1089.69 567,1084.5C 560.706,1074.08 556.206,1062.91 553.5,1051C 553.519,1049.17 554.185,1047.67 555.5,1046.5 Z"/></g>
<g><path style="opacity:1" fill="#655e55" d="M 459.5,1043.5 C 459.58,1046.78 458.913,1049.78 457.5,1052.5C 457.42,1049.22 458.087,1046.22 459.5,1043.5 Z"/></g>
<g><path style="opacity:1" fill="#9e9c9c" d="M 811.5,1050.5 C 814.044,1050.1 816.211,1050.77 818,1052.5C 821.913,1066.33 828.913,1078.33 839,1088.5C 839.564,1093.94 837.397,1095.44 832.5,1093C 821.548,1082.1 814.215,1069.1 810.5,1054C 810.648,1052.74 810.982,1051.58 811.5,1050.5 Z"/></g>
<g><path style="opacity:1" fill="#200d01" d="M 1110.5,1048.5 C 1120.38,1047.1 1128.55,1050.1 1135,1057.5C 1135.67,1059.83 1135.67,1062.17 1135,1064.5C 1134.2,1065.8 1133.03,1066.47 1131.5,1066.5C 1118.61,1058.74 1106.78,1060.07 1096,1070.5C 1096.04,1072.28 1096.71,1073.95 1098,1075.5C 1108.73,1084.32 1112.73,1095.66 1110,1109.5C 1106.56,1129.28 1095.06,1140.44 1075.5,1143C 1073.79,1141.87 1073.29,1140.37 1074,1138.5C 1078.56,1134.94 1083.4,1131.77 1088.5,1129C 1101.13,1117.31 1103.63,1103.81 1096,1088.5C 1093.12,1083.77 1089.62,1083.27 1085.5,1087C 1081.26,1091.48 1077.26,1096.15 1073.5,1101C 1071.25,1101.86 1069.42,1101.36 1068,1099.5C 1067.42,1096.74 1067.75,1094.08 1069,1091.5C 1074.44,1077.74 1082.6,1065.91 1093.5,1056C 1098.93,1052.69 1104.59,1050.19 1110.5,1048.5 Z"/></g>
<g><path style="opacity:1" fill="#9e9c9a" d="M 580.5,1093.5 C 586.148,1093.31 587.482,1095.48 584.5,1100C 578.738,1100.42 577.404,1098.25 580.5,1093.5 Z"/></g>
<g><path style="opacity:1" fill="#9e9896" d="M 844.5,1097.5 C 848.976,1097.8 850.31,1099.97 848.5,1104C 842.339,1104.88 841.006,1102.71 844.5,1097.5 Z"/></g>
<g><path style="opacity:1" fill="#1d0c01" d="M 749.5,1092.5 C 755.873,1091.73 758.706,1094.4 758,1100.5C 753.667,1104.17 749.333,1107.83 745,1111.5C 740.909,1118.94 742.076,1125.44 748.5,1131C 753.317,1132.96 758.317,1134.3 763.5,1135C 769.309,1139.9 768.642,1143.57 761.5,1146C 749.578,1147.47 739.745,1143.64 732,1134.5C 725.544,1120.14 728.377,1107.64 740.5,1097C 743.592,1095.45 746.592,1093.95 749.5,1092.5 Z"/></g>
<g><path style="opacity:1" fill="#d7bd94" d="M 995.5,1299.5 C 970.114,1312.72 952.281,1332.72 942,1359.5C 938.285,1371.08 934.952,1382.75 932,1394.5C 927.564,1397.3 923.397,1400.47 919.5,1404C 893.918,1402.92 868.252,1402.59 842.5,1403C 841.069,1403.47 839.903,1404.3 839,1405.5C 836.323,1411.54 834.656,1417.88 834,1424.5C 832.431,1441.14 831.264,1457.81 830.5,1474.5C 824.799,1473.32 819.132,1471.99 813.5,1470.5C 813.749,1444.76 815.249,1419.1 818,1393.5C 831.853,1386.32 846.019,1379.82 860.5,1374C 864.699,1369.75 867.033,1364.58 867.5,1358.5C 881.927,1365.04 896.261,1371.87 910.5,1379C 915.167,1381 919.833,1381 924.5,1379C 926.81,1377.36 928.31,1375.2 929,1372.5C 933.029,1356.32 936.196,1339.99 938.5,1323.5C 939.992,1308.88 940.658,1294.21 940.5,1279.5C 958.97,1284.1 976.97,1290.1 994.5,1297.5C 995.298,1297.96 995.631,1298.62 995.5,1299.5 Z"/></g>
<g><path style="opacity:1" fill="#d7be95" d="M 922.5,1286.5 C 923.809,1288.57 924.475,1291.07 924.5,1294C 923.858,1301.15 923.525,1308.32 923.5,1315.5C 921.099,1330.51 918.432,1345.51 915.5,1360.5C 900.081,1353.96 884.748,1347.13 869.5,1340C 864.583,1337.54 859.583,1337.21 854.5,1339C 852.951,1340.21 851.785,1341.71 851,1343.5C 850.025,1349.47 849.192,1355.47 848.5,1361.5C 825.315,1371.42 803.315,1383.42 782.5,1397.5C 778.699,1401.12 778.699,1404.62 782.5,1408C 785.928,1408.7 789.262,1408.37 792.5,1407C 796.34,1404.58 800.34,1402.41 804.5,1400.5C 804.833,1401.17 805.167,1401.83 805.5,1402.5C 802.533,1423.07 800.533,1443.74 799.5,1464.5C 788.65,1462.05 777.983,1458.88 767.5,1455C 766.342,1453.99 765.675,1452.66 765.5,1451C 766.573,1435.57 769.073,1420.41 773,1405.5C 774.76,1400.97 777.26,1396.97 780.5,1393.5C 794.745,1379.76 808.911,1365.76 823,1351.5C 836.361,1337.47 849.694,1323.47 863,1309.5C 865.36,1306.64 867.527,1303.64 869.5,1300.5C 882.611,1298.24 895.611,1295.41 908.5,1292C 913.464,1290.63 918.131,1288.8 922.5,1286.5 Z"/></g>
<g><path style="opacity:1" fill="#1f0d02" d="M 491.5,1023.5 C 488.18,1027.46 485.346,1031.8 483,1036.5C 476.612,1053.69 474.779,1071.36 477.5,1089.5C 479.011,1096.21 480.844,1102.87 483,1109.5C 492.366,1132.04 508.866,1146.04 532.5,1151.5C 531.76,1144.84 531.094,1138.18 530.5,1131.5C 531.611,1116.17 532.444,1100.83 533,1085.5C 533.333,1089.5 533.667,1093.5 534,1097.5C 535.549,1099.62 536.716,1101.95 537.5,1104.5C 538.5,1105 539.5,1105.5 540.5,1106C 538.61,1109.45 537.11,1109.28 536,1105.5C 535.5,1106.67 534.667,1107.5 533.5,1108C 533.833,1108.33 534.167,1108.67 534.5,1109C 533.692,1109.31 533.025,1109.81 532.5,1110.5C 533.145,1111.73 533.311,1113.07 533,1114.5C 534.399,1115.23 535.899,1115.73 537.5,1116C 536.333,1116.5 535.5,1117.33 535,1118.5C 534.692,1117.69 534.192,1117.03 533.5,1116.5C 532.548,1118.05 532.215,1119.71 532.5,1121.5C 533.873,1121.66 535.207,1121.49 536.5,1121C 535.833,1120.67 535.167,1120.33 534.5,1120C 535.784,1119.32 536.951,1119.48 538,1120.5C 539.855,1118.64 541.688,1116.81 543.5,1115C 543.355,1114.23 543.022,1113.56 542.5,1113C 543.793,1112.51 545.127,1112.34 546.5,1112.5C 543.772,1148.8 553.605,1181.14 576,1209.5C 599.53,1235.37 628.03,1253.87 661.5,1265C 695.619,1276.36 730.619,1283.36 766.5,1286C 809.821,1289.6 852.488,1285.93 894.5,1275C 967.573,1253.59 1016.07,1206.76 1040,1134.5C 1041.11,1142.31 1042.78,1149.98 1045,1157.5C 1052.13,1164.48 1060.63,1168.98 1070.5,1171C 1092.5,1172.84 1111.84,1166.67 1128.5,1152.5C 1129.6,1153.4 1129.6,1154.23 1128.5,1155C 1130.48,1155.61 1130.81,1156.61 1129.5,1158C 1132.04,1159.09 1134.71,1159.76 1137.5,1160C 1138.76,1161.71 1139.1,1163.37 1138.5,1165C 1140.79,1165.42 1142.79,1164.75 1144.5,1163C 1143.83,1162.67 1143.17,1162.33 1142.5,1162C 1143.93,1160.29 1143.59,1158.95 1141.5,1158C 1142.17,1157.83 1142.83,1157.67 1143.5,1157.5C 1145.24,1158.25 1146.91,1158.58 1148.5,1158.5C 1148.79,1160.02 1148.79,1161.36 1148.5,1162.5C 1126.78,1185.12 1100.12,1195.28 1068.5,1193C 1063.65,1191.27 1058.65,1190.27 1053.5,1190C 1048.86,1188.68 1044.53,1186.84 1040.5,1184.5C 1038.23,1190.38 1035.39,1196.05 1032,1201.5C 1013.23,1227.77 990.394,1249.77 963.5,1267.5C 1048.63,1286.01 1091.3,1339.01 1091.5,1426.5C 1091.42,1434.35 1091.09,1442.18 1090.5,1450C 1093.18,1457.72 1095.68,1465.55 1098,1473.5C 1099.68,1483.51 1099.84,1493.51 1098.5,1503.5C 1099.41,1485.08 1095.91,1467.41 1088,1450.5C 1086.88,1453.96 1087.71,1456.79 1090.5,1459C 1089.55,1459.62 1088.72,1459.45 1088,1458.5C 1088,1459.83 1088,1461.17 1088,1462.5C 1087.59,1462.04 1087.09,1461.71 1086.5,1461.5C 1084.85,1462.65 1083.35,1463.98 1082,1465.5C 1081.09,1464.67 1080.42,1463.67 1080,1462.5C 1078.89,1464.04 1077.39,1464.7 1075.5,1464.5C 1072.25,1459.24 1068.58,1454.24 1064.5,1449.5C 1065.23,1448.29 1065.57,1446.96 1065.5,1445.5C 1067.36,1445.54 1068.69,1444.71 1069.5,1443C 1069.29,1440.9 1069.29,1438.73 1069.5,1436.5C 1070.33,1438.16 1071.49,1439.5 1073,1440.5C 1074.3,1439.89 1075.47,1439.55 1076.5,1439.5C 1073.91,1435.51 1073.91,1431.51 1076.5,1427.5C 1075.62,1426.45 1074.95,1425.29 1074.5,1424C 1076.37,1422.56 1078.04,1420.89 1079.5,1419C 1078.5,1418.67 1077.5,1418.33 1076.5,1418C 1076.83,1417.67 1077.17,1417.33 1077.5,1417C 1075.06,1414.28 1074.39,1411.28 1075.5,1408C 1074.67,1405.2 1073.84,1402.36 1073,1399.5C 1073.54,1409.8 1073.54,1420.13 1073,1430.5C 1072.83,1424.65 1072.33,1418.99 1071.5,1413.5C 1070.48,1379.92 1058.81,1350.75 1036.5,1326C 1028.87,1318.87 1020.54,1312.7 1011.5,1307.5C 1006.55,1309.37 1001.55,1311.04 996.5,1312.5C 996.062,1312.57 995.728,1312.4 995.5,1312C 996.833,1311.33 998.167,1310.67 999.5,1310C 998.5,1309.67 997.5,1309.33 996.5,1309C 997.731,1307.82 997.731,1306.65 996.5,1305.5C 995.749,1306.38 995.249,1307.38 995,1308.5C 993.938,1306.79 992.771,1306.13 991.5,1306.5C 992.439,1304.95 993.606,1303.61 995,1302.5C 996.939,1303.8 998.106,1303.13 998.5,1300.5C 997.528,1300.41 996.528,1300.07 995.5,1299.5C 995.631,1298.62 995.298,1297.96 994.5,1297.5C 976.97,1290.1 958.97,1284.1 940.5,1279.5C 940.658,1294.21 939.992,1308.88 938.5,1323.5C 937.85,1323.2 937.183,1322.86 936.5,1322.5C 935.902,1325.19 934.569,1327.35 932.5,1329C 934.421,1330.24 934.754,1331.74 933.5,1333.5C 931.562,1330.92 929.729,1330.92 928,1333.5C 926.368,1331.29 926.368,1328.96 928,1326.5C 928.654,1327.7 929.154,1327.7 929.5,1326.5C 926.972,1325.48 926.972,1324.32 929.5,1323C 926.721,1322.85 926.221,1322.02 928,1320.5C 929.813,1321.61 930.646,1320.94 930.5,1318.5C 935.426,1318.93 935.76,1320.43 931.5,1323C 931.667,1323.5 931.833,1324 932,1324.5C 933.506,1322.83 935.339,1321.83 937.5,1321.5C 937.5,1318.83 937.5,1316.17 937.5,1313.5C 934.203,1313.33 933.869,1314 936.5,1315.5C 934.993,1316.74 933.826,1316.41 933,1314.5C 932.311,1315.36 931.478,1316.02 930.5,1316.5C 928.623,1315.2 926.957,1313.7 925.5,1312C 926.744,1311.54 927.577,1312.04 928,1313.5C 929.255,1312.79 930.421,1311.96 931.5,1311C 930.167,1310.33 930.167,1309.67 931.5,1309C 929.351,1307.85 927.518,1306.35 926,1304.5C 925.79,1306.06 925.29,1307.39 924.5,1308.5C 925.263,1300.86 925.597,1293.19 925.5,1285.5C 924.209,1285.26 923.209,1285.6 922.5,1286.5C 918.131,1288.8 913.464,1290.63 908.5,1292C 895.611,1295.41 882.611,1298.24 869.5,1300.5C 867.527,1303.64 865.36,1306.64 863,1309.5C 849.694,1323.47 836.361,1337.47 823,1351.5C 808.911,1365.76 794.745,1379.76 780.5,1393.5C 779.739,1392.61 778.739,1391.94 777.5,1391.5C 775.895,1392.43 774.395,1392.43 773,1391.5C 772.808,1393.58 772.308,1395.58 771.5,1397.5C 771.654,1394.01 770.154,1391.01 767,1388.5C 766.667,1390.83 766.333,1393.17 766,1395.5C 765.751,1394.38 765.251,1393.38 764.5,1392.5C 762.757,1397.33 760.757,1401.33 758.5,1404.5C 759.26,1400.97 760.594,1397.64 762.5,1394.5C 746.833,1386 731.167,1377.5 715.5,1369C 712.356,1365.09 710.69,1360.59 710.5,1355.5C 697.011,1360.83 683.345,1365.66 669.5,1370C 659.218,1372.71 653.884,1368.88 653.5,1358.5C 657.829,1335.51 665.163,1313.51 675.5,1292.5C 670.492,1291.44 665.492,1291.61 660.5,1293C 649.927,1295.47 639.593,1298.64 629.5,1302.5C 626.236,1301.68 622.902,1301.34 619.5,1301.5C 619.104,1297.04 618.104,1296.71 616.5,1300.5C 616.167,1300.33 615.833,1300.17 615.5,1300C 616.902,1296.81 618.402,1293.64 620,1290.5C 620.639,1293.23 621.806,1293.73 623.5,1292C 622.764,1289.98 623.597,1288.48 626,1287.5C 626.483,1286.55 626.649,1285.55 626.5,1284.5C 629.865,1282.54 633.532,1281.04 637.5,1280C 609.566,1267.29 585.066,1249.79 564,1227.5C 556.908,1218.31 550.575,1208.65 545,1198.5C 541.26,1190.78 538.426,1182.78 536.5,1174.5C 500.81,1168.32 476.31,1148.32 463,1114.5C 457.693,1100.99 455.526,1086.99 456.5,1072.5C 456.518,1065.76 456.851,1059.09 457.5,1052.5C 458.913,1049.78 459.58,1046.78 459.5,1043.5C 460.47,1036.58 462.804,1030.25 466.5,1024.5C 467.822,1024.33 468.989,1024.66 470,1025.5C 470.535,1023.73 471.369,1023.4 472.5,1024.5C 471.167,1025.62 470.667,1026.95 471,1028.5C 472.309,1026.11 473.309,1026.11 474,1028.5C 474.465,1027.07 475.299,1025.9 476.5,1025C 475.421,1024.04 474.255,1023.21 473,1022.5C 472.719,1020.1 473.385,1020.1 475,1022.5C 476.113,1021.29 477.28,1021.29 478.5,1022.5C 480.026,1019.97 481.026,1020.3 481.5,1023.5C 480.005,1025.17 478.672,1027 477.5,1029C 477.833,1029.17 478.167,1029.33 478.5,1029.5C 482.107,1027.73 484.94,1025.06 487,1021.5C 488.049,1023.11 489.549,1023.77 491.5,1023.5 Z"/></g>
<g><path style="opacity:1" fill="#010000" d="M 807.5,1199.5 C 818.245,1199.07 828.912,1199.57 839.5,1201C 845.255,1207.14 844.588,1212.47 837.5,1217C 793.849,1218.93 750.182,1219.93 706.5,1220C 700.632,1216.96 699.132,1212.46 702,1206.5C 703.579,1204.96 705.413,1203.79 707.5,1203C 741.005,1202.13 774.338,1200.96 807.5,1199.5 Z"/></g>
<g><path style="opacity:1" fill="#d8bf96" d="M 758.5,1404.5 C 754.865,1418.96 751.865,1433.63 749.5,1448.5C 741.023,1445.06 732.523,1441.73 724,1438.5C 724.777,1428.66 725.943,1418.83 727.5,1409C 727.726,1406.33 727.059,1404 725.5,1402C 715.297,1399.6 704.964,1397.93 694.5,1397C 672.865,1394.99 651.199,1393.49 629.5,1392.5C 629.765,1366.15 626.932,1340.15 621,1314.5C 618.085,1311.93 615.419,1312.26 613,1315.5C 611.767,1317.87 610.934,1320.37 610.5,1323C 613.377,1348.76 614.544,1374.59 614,1400.5C 592.778,1383.7 568.611,1376.04 541.5,1377.5C 541.624,1376.89 541.957,1376.56 542.5,1376.5C 542.435,1376.94 542.601,1377.27 543,1377.5C 561.408,1351.76 584.241,1330.92 611.5,1315C 613.842,1313.61 613.842,1312.77 611.5,1312.5C 617.21,1308.65 623.21,1305.31 629.5,1302.5C 639.593,1298.64 649.927,1295.47 660.5,1293C 665.492,1291.61 670.492,1291.44 675.5,1292.5C 665.163,1313.51 657.829,1335.51 653.5,1358.5C 653.884,1368.88 659.218,1372.71 669.5,1370C 683.345,1365.66 697.011,1360.83 710.5,1355.5C 710.69,1360.59 712.356,1365.09 715.5,1369C 731.167,1377.5 746.833,1386 762.5,1394.5C 760.594,1397.64 759.26,1400.97 758.5,1404.5 Z"/></g>
<g><path style="opacity:1" fill="#6c5b46" d="M 922.5,1286.5 C 923.209,1285.6 924.209,1285.26 925.5,1285.5C 925.597,1293.19 925.263,1300.86 924.5,1308.5C 924.802,1311.06 924.468,1313.39 923.5,1315.5C 923.525,1308.32 923.858,1301.15 924.5,1294C 924.475,1291.07 923.809,1288.57 922.5,1286.5 Z"/></g>
<g><path style="opacity:1" fill="#d7be95" d="M 692.5,1295.5 C 704.513,1297.41 716.513,1299.41 728.5,1301.5C 741.091,1327.34 755.258,1352.34 771,1376.5C 771.483,1377.45 771.649,1378.45 771.5,1379.5C 767.895,1379.2 764.561,1378.03 761.5,1376C 750.833,1370 740.167,1364 729.5,1358C 728.02,1356.7 727.354,1355.03 727.5,1353C 728.973,1347.76 728.806,1342.6 727,1337.5C 723.604,1333.8 719.437,1332.63 714.5,1334C 700.65,1339.5 686.816,1345 673,1350.5C 677.623,1331.46 684.123,1313.13 692.5,1295.5 Z"/></g>
<g><path style="opacity:1" fill="#d8be95" d="M 1071.5,1413.5 C 1071.83,1418.87 1071.49,1424.21 1070.5,1429.5C 1056.32,1417.4 1040.32,1408.4 1022.5,1402.5C 1013.14,1382.49 997.478,1374.66 975.5,1379C 967.74,1380.53 960.073,1382.37 952.5,1384.5C 952.5,1383.5 952.5,1382.5 952.5,1381.5C 956.748,1364.59 963.248,1348.59 972,1333.5C 978.543,1324.45 986.709,1317.45 996.5,1312.5C 1001.55,1311.04 1006.55,1309.37 1011.5,1307.5C 1020.54,1312.7 1028.87,1318.87 1036.5,1326C 1058.81,1350.75 1070.48,1379.92 1071.5,1413.5 Z"/></g>
<g><path style="opacity:1" fill="#8f4d31" d="M 871.5,1483.5 C 887.476,1460.79 905.476,1439.62 925.5,1420C 938.8,1409.02 953.8,1401.18 970.5,1396.5C 978.379,1393.47 986.046,1393.97 993.5,1398C 1008.83,1412.55 1014.66,1430.38 1011,1451.5C 1009.96,1452.62 1009.29,1453.96 1009,1455.5C 1008.67,1458.83 1008.33,1462.17 1008,1465.5C 1004.48,1475.36 999.643,1484.52 993.5,1493C 987.992,1496.59 981.992,1498.76 975.5,1499.5C 964.493,1498.33 954.16,1495.17 944.5,1490C 939.421,1488.43 935.587,1489.93 933,1494.5C 932.256,1497.87 932.756,1501.04 934.5,1504C 934.167,1504.17 933.833,1504.33 933.5,1504.5C 913.464,1498.43 893.464,1492.27 873.5,1486C 872.244,1485.58 871.577,1484.75 871.5,1483.5 Z"/></g>
<g><path style="opacity:1" fill="#d7be95" d="M 1064.5,1449.5 C 1068.58,1454.24 1072.25,1459.24 1075.5,1464.5C 1085.86,1494.9 1079.86,1521.73 1057.5,1545C 1056.55,1545.48 1055.55,1545.65 1054.5,1545.5C 1059.4,1528.02 1055.06,1513.19 1041.5,1501C 1034.42,1495.48 1027.42,1489.98 1020.5,1484.5C 1028.68,1464.49 1031.34,1443.82 1028.5,1422.5C 1033.05,1424.11 1037.38,1426.27 1041.5,1429C 1049.68,1435.36 1057.35,1442.19 1064.5,1449.5 Z"/></g>
<g><path style="opacity:1" fill="#8f4d31" d="M 848.5,1498.5 C 863.794,1502.13 878.794,1506.97 893.5,1513C 901.438,1514.99 909.438,1516.99 917.5,1519C 933.525,1526.01 949.358,1533.51 965,1541.5C 968.585,1540.84 970.419,1538.67 970.5,1535C 969.771,1532.75 968.771,1530.59 967.5,1528.5C 975.717,1526.15 983.717,1523.32 991.5,1520C 997.876,1514.99 1003.54,1509.32 1008.5,1503C 1020.52,1506.8 1030.35,1513.96 1038,1524.5C 1031.45,1552.77 1018.78,1578.1 1000,1600.5C 984.89,1616.54 966.223,1624.21 944,1623.5C 911.418,1622.25 879.918,1615.75 849.5,1604C 813.795,1591.17 779.795,1575 747.5,1555.5C 721.455,1538.13 696.455,1519.3 672.5,1499C 654.921,1487.08 635.588,1479.58 614.5,1476.5C 636.119,1445.24 664.786,1436.41 700.5,1450C 732.939,1462.26 765.606,1473.92 798.5,1485C 814.939,1490.44 831.605,1494.94 848.5,1498.5 Z"/></g>
<g><path style="opacity:1" fill="#200e01" d="M 626.5,1284.5 C 626.649,1285.55 626.483,1286.55 626,1287.5C 623.597,1288.48 622.764,1289.98 623.5,1292C 621.806,1293.73 620.639,1293.23 620,1290.5C 618.402,1293.64 616.902,1296.81 615.5,1300C 615.833,1300.17 616.167,1300.33 616.5,1300.5C 618.104,1296.71 619.104,1297.04 619.5,1301.5C 622.902,1301.34 626.236,1301.68 629.5,1302.5C 623.21,1305.31 617.21,1308.65 611.5,1312.5C 601.045,1318.23 591.045,1324.73 581.5,1332C 566.406,1345.24 553.406,1360.08 542.5,1376.5C 541.957,1376.56 541.624,1376.89 541.5,1377.5C 568.611,1376.04 592.778,1383.7 614,1400.5C 614.544,1374.59 613.377,1348.76 610.5,1323C 610.934,1320.37 611.767,1317.87 613,1315.5C 615.419,1312.26 618.085,1311.93 621,1314.5C 626.932,1340.15 629.765,1366.15 629.5,1392.5C 651.199,1393.49 672.865,1394.99 694.5,1397C 704.964,1397.93 715.297,1399.6 725.5,1402C 727.059,1404 727.726,1406.33 727.5,1409C 725.943,1418.83 724.777,1428.66 724,1438.5C 732.523,1441.73 741.023,1445.06 749.5,1448.5C 751.865,1433.63 754.865,1418.96 758.5,1404.5C 760.757,1401.33 762.757,1397.33 764.5,1392.5C 765.251,1393.38 765.751,1394.38 766,1395.5C 766.333,1393.17 766.667,1390.83 767,1388.5C 770.154,1391.01 771.654,1394.01 771.5,1397.5C 772.308,1395.58 772.808,1393.58 773,1391.5C 774.395,1392.43 775.895,1392.43 777.5,1391.5C 778.739,1391.94 779.739,1392.61 780.5,1393.5C 777.26,1396.97 774.76,1400.97 773,1405.5C 769.073,1420.41 766.573,1435.57 765.5,1451C 765.675,1452.66 766.342,1453.99 767.5,1455C 777.983,1458.88 788.65,1462.05 799.5,1464.5C 800.533,1443.74 802.533,1423.07 805.5,1402.5C 805.167,1401.83 804.833,1401.17 804.5,1400.5C 800.34,1402.41 796.34,1404.58 792.5,1407C 789.262,1408.37 785.928,1408.7 782.5,1408C 778.699,1404.62 778.699,1401.12 782.5,1397.5C 803.315,1383.42 825.315,1371.42 848.5,1361.5C 849.192,1355.47 850.025,1349.47 851,1343.5C 851.785,1341.71 852.951,1340.21 854.5,1339C 859.583,1337.21 864.583,1337.54 869.5,1340C 884.748,1347.13 900.081,1353.96 915.5,1360.5C 918.432,1345.51 921.099,1330.51 923.5,1315.5C 924.468,1313.39 924.802,1311.06 924.5,1308.5C 925.29,1307.39 925.79,1306.06 926,1304.5C 927.518,1306.35 929.351,1307.85 931.5,1309C 930.167,1309.67 930.167,1310.33 931.5,1311C 930.421,1311.96 929.255,1312.79 928,1313.5C 927.577,1312.04 926.744,1311.54 925.5,1312C 926.957,1313.7 928.623,1315.2 930.5,1316.5C 931.478,1316.02 932.311,1315.36 933,1314.5C 933.826,1316.41 934.993,1316.74 936.5,1315.5C 933.869,1314 934.203,1313.33 937.5,1313.5C 937.5,1316.17 937.5,1318.83 937.5,1321.5C 935.339,1321.83 933.506,1322.83 932,1324.5C 931.833,1324 931.667,1323.5 931.5,1323C 935.76,1320.43 935.426,1318.93 930.5,1318.5C 930.646,1320.94 929.813,1321.61 928,1320.5C 926.221,1322.02 926.721,1322.85 929.5,1323C 926.972,1324.32 926.972,1325.48 929.5,1326.5C 929.154,1327.7 928.654,1327.7 928,1326.5C 926.368,1328.96 926.368,1331.29 928,1333.5C 929.729,1330.92 931.562,1330.92 933.5,1333.5C 934.754,1331.74 934.421,1330.24 932.5,1329C 934.569,1327.35 935.902,1325.19 936.5,1322.5C 937.183,1322.86 937.85,1323.2 938.5,1323.5C 936.196,1339.99 933.029,1356.32 929,1372.5C 928.31,1375.2 926.81,1377.36 924.5,1379C 919.833,1381 915.167,1381 910.5,1379C 896.261,1371.87 881.927,1365.04 867.5,1358.5C 867.033,1364.58 864.699,1369.75 860.5,1374C 846.019,1379.82 831.853,1386.32 818,1393.5C 815.249,1419.1 813.749,1444.76 813.5,1470.5C 819.132,1471.99 824.799,1473.32 830.5,1474.5C 831.264,1457.81 832.431,1441.14 834,1424.5C 834.656,1417.88 836.323,1411.54 839,1405.5C 839.903,1404.3 841.069,1403.47 842.5,1403C 868.252,1402.59 893.918,1402.92 919.5,1404C 923.397,1400.47 927.564,1397.3 932,1394.5C 934.952,1382.75 938.285,1371.08 942,1359.5C 952.281,1332.72 970.114,1312.72 995.5,1299.5C 996.528,1300.07 997.528,1300.41 998.5,1300.5C 998.106,1303.13 996.939,1303.8 995,1302.5C 993.606,1303.61 992.439,1304.95 991.5,1306.5C 992.771,1306.13 993.938,1306.79 995,1308.5C 995.249,1307.38 995.749,1306.38 996.5,1305.5C 997.731,1306.65 997.731,1307.82 996.5,1309C 997.5,1309.33 998.5,1309.67 999.5,1310C 998.167,1310.67 996.833,1311.33 995.5,1312C 995.728,1312.4 996.062,1312.57 996.5,1312.5C 986.709,1317.45 978.543,1324.45 972,1333.5C 963.248,1348.59 956.748,1364.59 952.5,1381.5C 950.398,1384.73 950.565,1387.73 953,1390.5C 957.574,1389.31 958.407,1390.64 955.5,1394.5C 957.133,1396.39 956.8,1397.89 954.5,1399C 959.338,1398.78 964.004,1397.61 968.5,1395.5C 969.416,1395.54 970.083,1395.88 970.5,1396.5C 953.8,1401.18 938.8,1409.02 925.5,1420C 905.476,1439.62 887.476,1460.79 871.5,1483.5C 870.849,1484.09 870.182,1484.76 869.5,1485.5C 868.304,1485.15 868.304,1484.65 869.5,1484C 867.104,1483.13 866.437,1483.63 867.5,1485.5C 867.099,1487.43 866.099,1488.93 864.5,1490C 867.167,1490.67 867.167,1491.33 864.5,1492C 859.865,1492.95 855.865,1491.79 852.5,1488.5C 850.765,1491.29 848.932,1493.29 847,1494.5C 846.516,1496.19 847.016,1497.53 848.5,1498.5C 831.605,1494.94 814.939,1490.44 798.5,1485C 765.606,1473.92 732.939,1462.26 700.5,1450C 664.786,1436.41 636.119,1445.24 614.5,1476.5C 635.588,1479.58 654.921,1487.08 672.5,1499C 696.455,1519.3 721.455,1538.13 747.5,1555.5C 746.687,1556.65 745.687,1556.65 744.5,1555.5C 743.574,1558.04 742.574,1560.54 741.5,1563C 743.422,1566.35 744.089,1566.35 743.5,1563C 745.167,1563.67 746.833,1563.67 748.5,1563C 748.043,1563.41 747.709,1563.91 747.5,1564.5C 748.88,1566.17 750.213,1567.84 751.5,1569.5C 750.129,1571.88 749.129,1574.21 748.5,1576.5C 749.025,1577.19 749.692,1577.69 750.5,1578C 749.401,1580.61 748.068,1583.11 746.5,1585.5C 743.924,1585.92 743.924,1585.08 746.5,1583C 744.351,1581.85 742.518,1580.35 741,1578.5C 740.282,1579.45 739.449,1579.62 738.5,1579C 742.5,1577.67 742.5,1576.33 738.5,1575C 738.957,1574.59 739.291,1574.09 739.5,1573.5C 738.452,1572.45 737.452,1571.45 736.5,1570.5C 725.789,1563.97 715.456,1556.8 705.5,1549C 691.048,1536.28 676.048,1524.28 660.5,1513C 631.301,1494.43 599.967,1489.43 566.5,1498C 563.5,1498.67 560.5,1498.67 557.5,1498C 554.657,1494.38 554.99,1491.05 558.5,1488C 567.276,1483.54 576.609,1481.2 586.5,1481C 588.211,1478.41 590.045,1475.91 592,1473.5C 592.711,1471.63 592.211,1470.13 590.5,1469C 566.614,1457.37 542.947,1457.7 519.5,1470C 511.977,1477.56 508.143,1486.72 508,1497.5C 507.235,1503.82 506.735,1510.15 506.5,1516.5C 505.834,1512.32 505.167,1507.98 504.5,1503.5C 503.28,1504.71 502.113,1504.71 501,1503.5C 499.372,1504.82 499.539,1506.15 501.5,1507.5C 500.006,1509.94 499.006,1512.61 498.5,1515.5C 498.938,1516.51 499.604,1516.51 500.5,1515.5C 501.23,1516.93 502.23,1518.1 503.5,1519C 502.57,1520.19 501.903,1521.53 501.5,1523C 501.579,1525.09 501.913,1527.26 502.5,1529.5C 501.758,1530.29 500.925,1530.95 500,1531.5C 498.273,1529.89 496.439,1528.23 494.5,1526.5C 496.593,1524.7 498.927,1522.53 501.5,1520C 500.975,1519.31 500.308,1518.81 499.5,1518.5C 498.452,1519.38 497.285,1520.05 496,1520.5C 494.989,1520.11 494.489,1519.44 494.5,1518.5C 493.719,1519.73 493.219,1521.06 493,1522.5C 492.259,1519.44 492.425,1516.44 493.5,1513.5C 492.672,1512.59 491.672,1511.92 490.5,1511.5C 488.978,1524.25 489.478,1536.92 492,1549.5C 492.998,1546.97 493.831,1546.97 494.5,1549.5C 493.16,1550.99 492.16,1552.66 491.5,1554.5C 489.813,1548.74 488.647,1542.74 488,1536.5C 487.495,1526.14 487.495,1515.81 488,1505.5C 471.319,1491.81 464.652,1474.14 468,1452.5C 470.859,1429.95 480.692,1411.11 497.5,1396C 502,1392.92 506.667,1390.08 511.5,1387.5C 535.845,1345.32 569.512,1312.82 612.5,1290C 617.087,1287.87 621.753,1286.04 626.5,1284.5 Z"/></g>
<g><path style="opacity:1" fill="#ebe8d1" d="M 522.5,1402.5 C 522.586,1403.5 522.252,1404.33 521.5,1405C 501.673,1416.46 490.173,1433.63 487,1456.5C 486.035,1462.66 486.535,1468.66 488.5,1474.5C 488.457,1475.42 488.124,1476.08 487.5,1476.5C 482.312,1450.89 489.312,1429.06 508.5,1411C 512.807,1407.52 517.473,1404.68 522.5,1402.5 Z"/></g>
<g><path style="opacity:1" fill="#220f01" d="M 781.5,1428.5 C 794.066,1428.9 797.899,1434.9 793,1446.5C 785.843,1452.38 779.843,1451.38 775,1443.5C 773.407,1436.7 775.574,1431.7 781.5,1428.5 Z"/></g>
<g><path style="opacity:1" fill="#d7be94" d="M 849.5,1416.5 C 867.871,1416.22 886.204,1416.88 904.5,1418.5C 894.765,1428.9 885.432,1439.56 876.5,1450.5C 866.479,1446.41 856.979,1441.41 848,1435.5C 847.442,1429.08 847.942,1422.74 849.5,1416.5 Z"/></g>
<g><path style="opacity:1" fill="#d7bd94" d="M 631.5,1406.5 C 658.575,1408.03 685.575,1410.36 712.5,1413.5C 711.628,1420.27 710.295,1426.94 708.5,1433.5C 690.519,1425.59 671.853,1423.42 652.5,1427C 645.228,1428.87 638.395,1431.7 632,1435.5C 631.228,1435.36 630.561,1435.02 630,1434.5C 629.333,1425.83 629.333,1417.17 630,1408.5C 630.717,1407.96 631.217,1407.29 631.5,1406.5 Z"/></g>
<g><path style="opacity:1" fill="#d8bf96" d="M 487.5,1476.5 C 488.124,1476.08 488.457,1475.42 488.5,1474.5C 486.535,1468.66 486.035,1462.66 487,1456.5C 490.173,1433.63 501.673,1416.46 521.5,1405C 522.252,1404.33 522.586,1403.5 522.5,1402.5C 536.027,1395.52 550.36,1393.68 565.5,1397C 585.306,1401.32 601.806,1411.15 615,1426.5C 616.575,1432.76 617.241,1439.09 617,1445.5C 613.654,1450.18 609.654,1454.18 605,1457.5C 578.243,1440.44 550.076,1437.94 520.5,1450C 505.618,1456.71 495.952,1467.88 491.5,1483.5C 489.902,1481.3 488.569,1478.97 487.5,1476.5 Z"/></g>
<g><path style="opacity:1" fill="#f2edd6" d="M 611.5,1312.5 C 613.842,1312.77 613.842,1313.61 611.5,1315C 584.241,1330.92 561.408,1351.76 543,1377.5C 542.601,1377.27 542.435,1376.94 542.5,1376.5C 553.406,1360.08 566.406,1345.24 581.5,1332C 591.045,1324.73 601.045,1318.23 611.5,1312.5 Z"/></g>
<g><path style="opacity:1" fill="#8e4c30" d="M 844.5,1303.5 C 846.028,1303.52 846.528,1304.18 846,1305.5C 825.6,1325.9 805.267,1346.23 785,1366.5C 784.228,1366.36 783.561,1366.02 783,1365.5C 770.284,1345.91 758.451,1325.74 747.5,1305C 762.963,1306.06 778.463,1306.9 794,1307.5C 811.096,1307.55 827.929,1306.21 844.5,1303.5 Z"/></g>
<g><path style="opacity:1" fill="#d5bb92" d="M 845.5,1451.5 C 853.048,1454.61 860.381,1458.27 867.5,1462.5C 863.289,1468.42 858.955,1474.26 854.5,1480C 851.173,1480.53 848.006,1480.03 845,1478.5C 844.319,1469.48 844.486,1460.48 845.5,1451.5 Z"/></g>
<g><path style="opacity:1" fill="#8f4d31" d="M 736.5,1570.5 C 736.586,1571.5 736.252,1572.33 735.5,1573C 675.738,1594.97 614.405,1600.97 551.5,1591C 527.215,1586.38 513.049,1571.88 509,1547.5C 506.872,1537.28 506.039,1526.95 506.5,1516.5C 506.735,1510.15 507.235,1503.82 508,1497.5C 508.143,1486.72 511.977,1477.56 519.5,1470C 542.947,1457.7 566.614,1457.37 590.5,1469C 592.211,1470.13 592.711,1471.63 592,1473.5C 590.045,1475.91 588.211,1478.41 586.5,1481C 576.609,1481.2 567.276,1483.54 558.5,1488C 554.99,1491.05 554.657,1494.38 557.5,1498C 560.5,1498.67 563.5,1498.67 566.5,1498C 599.967,1489.43 631.301,1494.43 660.5,1513C 676.048,1524.28 691.048,1536.28 705.5,1549C 715.456,1556.8 725.789,1563.97 736.5,1570.5 Z"/></g>
<g><path style="opacity:1" fill="#220f02" d="M 1071.5,1413.5 C 1072.33,1418.99 1072.83,1424.65 1073,1430.5C 1073.54,1420.13 1073.54,1409.8 1073,1399.5C 1073.84,1402.36 1074.67,1405.2 1075.5,1408C 1074.39,1411.28 1075.06,1414.28 1077.5,1417C 1077.17,1417.33 1076.83,1417.67 1076.5,1418C 1077.5,1418.33 1078.5,1418.67 1079.5,1419C 1078.04,1420.89 1076.37,1422.56 1074.5,1424C 1074.95,1425.29 1075.62,1426.45 1076.5,1427.5C 1073.91,1431.51 1073.91,1435.51 1076.5,1439.5C 1075.47,1439.55 1074.3,1439.89 1073,1440.5C 1071.49,1439.5 1070.33,1438.16 1069.5,1436.5C 1069.29,1438.73 1069.29,1440.9 1069.5,1443C 1068.69,1444.71 1067.36,1445.54 1065.5,1445.5C 1065.57,1446.96 1065.23,1448.29 1064.5,1449.5C 1057.35,1442.19 1049.68,1435.36 1041.5,1429C 1037.38,1426.27 1033.05,1424.11 1028.5,1422.5C 1031.34,1443.82 1028.68,1464.49 1020.5,1484.5C 1027.42,1489.98 1034.42,1495.48 1041.5,1501C 1055.06,1513.19 1059.4,1528.02 1054.5,1545.5C 1055.55,1545.65 1056.55,1545.48 1057.5,1545C 1079.86,1521.73 1085.86,1494.9 1075.5,1464.5C 1077.39,1464.7 1078.89,1464.04 1080,1462.5C 1080.42,1463.67 1081.09,1464.67 1082,1465.5C 1083.35,1463.98 1084.85,1462.65 1086.5,1461.5C 1087.09,1461.71 1087.59,1462.04 1088,1462.5C 1088,1461.17 1088,1459.83 1088,1458.5C 1088.72,1459.45 1089.55,1459.62 1090.5,1459C 1087.71,1456.79 1086.88,1453.96 1088,1450.5C 1095.91,1467.41 1099.41,1485.08 1098.5,1503.5C 1094.99,1528.37 1082.99,1547.87 1062.5,1562C 1056.71,1564.54 1050.71,1566.37 1044.5,1567.5C 1041.56,1574.55 1038.23,1581.38 1034.5,1588C 1043.17,1631.34 1051.83,1674.67 1060.5,1718C 1060.41,1723.51 1058.41,1728.17 1054.5,1732C 1047.3,1736.77 1039.96,1741.27 1032.5,1745.5C 1037.04,1767.06 1041.04,1788.72 1044.5,1810.5C 1026.83,1810.5 1009.17,1810.5 991.5,1810.5C 1002.48,1807.56 1013.31,1803.9 1024,1799.5C 1021.82,1783.43 1018.99,1767.43 1015.5,1751.5C 1000.2,1755.66 984.87,1759.82 969.5,1764C 955.863,1766.5 942.197,1768.66 928.5,1770.5C 925.023,1769.68 921.356,1769.18 917.5,1769C 922.546,1764.38 921.88,1760.38 915.5,1757C 911.465,1756.3 907.465,1756.47 903.5,1757.5C 902.833,1757.17 902.167,1756.83 901.5,1756.5C 904.447,1755.68 907.447,1755.18 910.5,1755C 908.527,1754.5 906.527,1754.34 904.5,1754.5C 950.056,1751.69 993.722,1740.86 1035.5,1722C 1037.61,1720.86 1039.44,1719.36 1041,1717.5C 1034.65,1680.09 1027.65,1642.76 1020,1605.5C 1016.7,1609.8 1013.04,1613.8 1009,1617.5C 1009.01,1633.98 1010.68,1650.31 1014,1666.5C 1014.87,1674.9 1014.54,1683.23 1013,1691.5C 1009.03,1701.47 1001.86,1707.97 991.5,1711C 956.785,1723.62 921.119,1728.29 884.5,1725C 872.016,1722.37 863.516,1715.2 859,1703.5C 854.725,1686.42 852.225,1669.09 851.5,1651.5C 850.209,1651.74 849.209,1651.4 848.5,1650.5C 849.833,1650.5 851.167,1650.5 852.5,1650.5C 852.587,1647.4 852.087,1647.07 851,1649.5C 848.712,1649.26 846.212,1649.26 843.5,1649.5C 842.728,1645.55 842.395,1641.55 842.5,1637.5C 845.341,1637.85 847.341,1637.51 848.5,1636.5C 849.234,1635.29 849.567,1633.96 849.5,1632.5C 851.274,1625.35 848.607,1621.35 841.5,1620.5C 841.5,1621.5 841.5,1622.5 841.5,1623.5C 840.778,1619.61 839.944,1615.61 839,1611.5C 835.744,1607.23 831.911,1606.56 827.5,1609.5C 825.771,1611.85 825.104,1614.52 825.5,1617.5C 824.603,1616.4 823.77,1616.4 823,1617.5C 822.5,1623.82 822.334,1630.16 822.5,1636.5C 824.167,1636.5 825.833,1636.5 827.5,1636.5C 827.74,1640.91 828.073,1645.08 828.5,1649C 825.971,1650.06 823.304,1650.9 820.5,1651.5C 820.624,1652.11 820.957,1652.44 821.5,1652.5C 820.23,1667.07 812.23,1673.07 797.5,1670.5C 797.922,1691.18 798.422,1711.85 799,1732.5C 798.568,1741.2 795.068,1748.36 788.5,1754C 784.425,1756.47 781.425,1755.64 779.5,1751.5C 783.368,1746.78 786.201,1741.44 788,1735.5C 786.928,1714.2 786.428,1692.87 786.5,1671.5C 775.148,1671.63 763.815,1671.29 752.5,1670.5C 752.612,1690.53 753.446,1710.53 755,1730.5C 756.088,1741.77 759.921,1751.94 766.5,1761C 786.453,1762.86 806.453,1763.86 826.5,1764C 831.341,1767.39 831.675,1771.22 827.5,1775.5C 821.606,1777.16 815.606,1778.49 809.5,1779.5C 812.424,1789.8 815.091,1800.13 817.5,1810.5C 811.132,1810.83 804.798,1810.5 798.5,1809.5C 798.137,1808.82 797.804,1808.15 797.5,1807.5C 797.167,1805.5 796.833,1803.5 796.5,1801.5C 796.26,1796.88 795.26,1792.55 793.5,1788.5C 792.631,1786.28 792.298,1783.95 792.5,1781.5C 790.833,1781.5 789.167,1781.5 787.5,1781.5C 786.599,1790.24 785.266,1798.9 783.5,1807.5C 783.5,1808.5 783.5,1809.5 783.5,1810.5C 777.167,1810.5 770.833,1810.5 764.5,1810.5C 767.678,1800.61 769.678,1790.61 770.5,1780.5C 757.908,1778.38 745.574,1775.38 733.5,1771.5C 726.599,1768.73 719.599,1765.89 712.5,1763C 709.704,1761.58 707.704,1759.41 706.5,1756.5C 707.592,1754.4 709.259,1753.07 711.5,1752.5C 724.751,1755.82 738.084,1757.82 751.5,1758.5C 747.368,1749.27 744.535,1739.6 743,1729.5C 740.68,1709.23 739.514,1688.9 739.5,1668.5C 731.46,1667.66 723.46,1666.49 715.5,1665C 711.836,1664 708.669,1662.16 706,1659.5C 700.561,1687.8 695.227,1716.13 690,1744.5C 688.981,1748.4 687.481,1752.06 685.5,1755.5C 679.047,1762.11 671.047,1765.44 661.5,1765.5C 634.932,1763.69 609.098,1758.35 584,1749.5C 583.228,1749.64 582.561,1749.98 582,1750.5C 581.163,1754.51 580.329,1758.51 579.5,1762.5C 577.422,1774.79 575.922,1787.12 575,1799.5C 578.237,1801.58 581.737,1803.08 585.5,1804C 593.622,1806.19 601.622,1808.36 609.5,1810.5C 590.833,1810.5 572.167,1810.5 553.5,1810.5C 556.971,1788.98 560.637,1767.48 564.5,1746C 564.167,1745.17 563.833,1744.33 563.5,1743.5C 554.085,1740.04 545.919,1734.71 539,1727.5C 536.556,1722.09 535.89,1716.43 537,1710.5C 539.036,1701.36 541.536,1692.36 544.5,1683.5C 543.126,1675.81 543.293,1668.14 545,1660.5C 547.928,1649.05 551.262,1637.71 555,1626.5C 555.303,1622.47 555.803,1618.47 556.5,1614.5C 556.547,1612.96 555.88,1611.96 554.5,1611.5C 551.781,1610.09 548.781,1609.42 545.5,1609.5C 515.385,1603.05 497.385,1584.72 491.5,1554.5C 492.16,1552.66 493.16,1550.99 494.5,1549.5C 493.831,1546.97 492.998,1546.97 492,1549.5C 489.478,1536.92 488.978,1524.25 490.5,1511.5C 491.672,1511.92 492.672,1512.59 493.5,1513.5C 492.425,1516.44 492.259,1519.44 493,1522.5C 493.219,1521.06 493.719,1519.73 494.5,1518.5C 494.489,1519.44 494.989,1520.11 496,1520.5C 497.285,1520.05 498.452,1519.38 499.5,1518.5C 500.308,1518.81 500.975,1519.31 501.5,1520C 498.927,1522.53 496.593,1524.7 494.5,1526.5C 496.439,1528.23 498.273,1529.89 500,1531.5C 500.925,1530.95 501.758,1530.29 502.5,1529.5C 501.913,1527.26 501.579,1525.09 501.5,1523C 501.903,1521.53 502.57,1520.19 503.5,1519C 502.23,1518.1 501.23,1516.93 500.5,1515.5C 499.604,1516.51 498.938,1516.51 498.5,1515.5C 499.006,1512.61 500.006,1509.94 501.5,1507.5C 499.539,1506.15 499.372,1504.82 501,1503.5C 502.113,1504.71 503.28,1504.71 504.5,1503.5C 505.167,1507.98 505.834,1512.32 506.5,1516.5C 506.039,1526.95 506.872,1537.28 509,1547.5C 513.049,1571.88 527.215,1586.38 551.5,1591C 614.405,1600.97 675.738,1594.97 735.5,1573C 736.252,1572.33 736.586,1571.5 736.5,1570.5C 737.452,1571.45 738.452,1572.45 739.5,1573.5C 739.291,1574.09 738.957,1574.59 738.5,1575C 742.5,1576.33 742.5,1577.67 738.5,1579C 739.449,1579.62 740.282,1579.45 741,1578.5C 742.518,1580.35 744.351,1581.85 746.5,1583C 743.924,1585.08 743.924,1585.92 746.5,1585.5C 748.068,1583.11 749.401,1580.61 750.5,1578C 749.692,1577.69 749.025,1577.19 748.5,1576.5C 749.129,1574.21 750.129,1571.88 751.5,1569.5C 750.213,1567.84 748.88,1566.17 747.5,1564.5C 747.709,1563.91 748.043,1563.41 748.5,1563C 746.833,1563.67 745.167,1563.67 743.5,1563C 744.089,1566.35 743.422,1566.35 741.5,1563C 742.574,1560.54 743.574,1558.04 744.5,1555.5C 745.687,1556.65 746.687,1556.65 747.5,1555.5C 779.795,1575 813.795,1591.17 849.5,1604C 879.918,1615.75 911.418,1622.25 944,1623.5C 966.223,1624.21 984.89,1616.54 1000,1600.5C 1018.78,1578.1 1031.45,1552.77 1038,1524.5C 1030.35,1513.96 1020.52,1506.8 1008.5,1503C 1003.54,1509.32 997.876,1514.99 991.5,1520C 983.717,1523.32 975.717,1526.15 967.5,1528.5C 968.771,1530.59 969.771,1532.75 970.5,1535C 970.419,1538.67 968.585,1540.84 965,1541.5C 949.358,1533.51 933.525,1526.01 917.5,1519C 909.438,1516.99 901.438,1514.99 893.5,1513C 878.794,1506.97 863.794,1502.13 848.5,1498.5C 847.016,1497.53 846.516,1496.19 847,1494.5C 848.932,1493.29 850.765,1491.29 852.5,1488.5C 855.865,1491.79 859.865,1492.95 864.5,1492C 867.167,1491.33 867.167,1490.67 864.5,1490C 866.099,1488.93 867.099,1487.43 867.5,1485.5C 866.437,1483.63 867.104,1483.13 869.5,1484C 868.304,1484.65 868.304,1485.15 869.5,1485.5C 870.182,1484.76 870.849,1484.09 871.5,1483.5C 871.577,1484.75 872.244,1485.58 873.5,1486C 893.464,1492.27 913.464,1498.43 933.5,1504.5C 933.833,1504.33 934.167,1504.17 934.5,1504C 932.756,1501.04 932.256,1497.87 933,1494.5C 935.587,1489.93 939.421,1488.43 944.5,1490C 954.16,1495.17 964.493,1498.33 975.5,1499.5C 981.992,1498.76 987.992,1496.59 993.5,1493C 999.643,1484.52 1004.48,1475.36 1008,1465.5C 1008.33,1462.17 1008.67,1458.83 1009,1455.5C 1009.29,1453.96 1009.96,1452.62 1011,1451.5C 1014.66,1430.38 1008.83,1412.55 993.5,1398C 986.046,1393.97 978.379,1393.47 970.5,1396.5C 970.083,1395.88 969.416,1395.54 968.5,1395.5C 964.004,1397.61 959.338,1398.78 954.5,1399C 956.8,1397.89 957.133,1396.39 955.5,1394.5C 958.407,1390.64 957.574,1389.31 953,1390.5C 950.565,1387.73 950.398,1384.73 952.5,1381.5C 952.5,1382.5 952.5,1383.5 952.5,1384.5C 960.073,1382.37 967.74,1380.53 975.5,1379C 997.478,1374.66 1013.14,1382.49 1022.5,1402.5C 1040.32,1408.4 1056.32,1417.4 1070.5,1429.5C 1071.49,1424.21 1071.83,1418.87 1071.5,1413.5 Z"/></g>
<g><path style="opacity:1" fill="#c69a61" d="M 760.5,1586.5 C 762.927,1586.52 765.26,1587.02 767.5,1588C 772.36,1590.26 777.027,1592.76 781.5,1595.5C 768.432,1596.5 755.432,1595.83 742.5,1593.5C 742.709,1592.91 743.043,1592.41 743.5,1592C 749.254,1590.03 754.921,1588.19 760.5,1586.5 Z"/></g>
<g><path style="opacity:1" fill="#d8b384" d="M 726.5,1595.5 C 727.833,1595.5 729.167,1595.5 730.5,1595.5C 729.224,1608.81 728.724,1622.14 729,1635.5C 731.192,1637.24 733.692,1638.4 736.5,1639C 753.175,1641.77 769.841,1642.1 786.5,1640C 788.155,1637.49 788.989,1634.66 789,1631.5C 789.877,1620.5 790.71,1609.5 791.5,1598.5C 795.838,1600.92 800.338,1602.92 805,1604.5C 806.093,1608.22 806.593,1612.05 806.5,1616C 806.216,1628.24 805.216,1640.41 803.5,1652.5C 782.847,1655.09 762.18,1654.93 741.5,1652C 732.688,1651.36 724.188,1649.53 716,1646.5C 714.366,1631.26 714.032,1615.93 715,1600.5C 719.041,1599.11 722.875,1597.44 726.5,1595.5 Z"/></g>
<g><path style="opacity:1" fill="#d7be95" d="M 904.5,1754.5 C 896.083,1754.91 887.749,1754.41 879.5,1753C 871.282,1748.43 864.449,1742.27 859,1734.5C 853.199,1722.76 849.199,1710.43 847,1697.5C 844.852,1681.92 843.686,1666.42 843.5,1651C 845.134,1650.51 846.801,1650.34 848.5,1650.5C 849.209,1651.4 850.209,1651.74 851.5,1651.5C 852.225,1669.09 854.725,1686.42 859,1703.5C 863.516,1715.2 872.016,1722.37 884.5,1725C 921.119,1728.29 956.785,1723.62 991.5,1711C 1001.86,1707.97 1009.03,1701.47 1013,1691.5C 1014.54,1683.23 1014.87,1674.9 1014,1666.5C 1010.68,1650.31 1009.01,1633.98 1009,1617.5C 1013.04,1613.8 1016.7,1609.8 1020,1605.5C 1027.65,1642.76 1034.65,1680.09 1041,1717.5C 1039.44,1719.36 1037.61,1720.86 1035.5,1722C 993.722,1740.86 950.056,1751.69 904.5,1754.5 Z"/></g>
<g><path style="opacity:1" fill="#b8955d" d="M 694.5,1627.5 C 689.319,1626.68 683.986,1626.02 678.5,1625.5C 678.246,1620.04 678.912,1614.71 680.5,1609.5C 685.99,1607.42 691.656,1606.09 697.5,1605.5C 697.412,1613.1 696.412,1620.43 694.5,1627.5 Z"/></g>
<g><path style="opacity:1" fill="#1a0a00" d="M 841.5,1623.5 C 841.5,1626.5 841.5,1629.5 841.5,1632.5C 841.33,1633.82 841.663,1634.99 842.5,1636C 844.473,1636.5 846.473,1636.66 848.5,1636.5C 847.341,1637.51 845.341,1637.85 842.5,1637.5C 842.395,1641.55 842.728,1645.55 843.5,1649.5C 846.212,1649.26 848.712,1649.26 851,1649.5C 852.087,1647.07 852.587,1647.4 852.5,1650.5C 851.167,1650.5 849.833,1650.5 848.5,1650.5C 846.801,1650.34 845.134,1650.51 843.5,1651C 843.686,1666.42 844.852,1681.92 847,1697.5C 849.199,1710.43 853.199,1722.76 859,1734.5C 864.449,1742.27 871.282,1748.43 879.5,1753C 887.749,1754.41 896.083,1754.91 904.5,1754.5C 906.527,1754.34 908.527,1754.5 910.5,1755C 907.447,1755.18 904.447,1755.68 901.5,1756.5C 902.167,1756.83 902.833,1757.17 903.5,1757.5C 907.465,1756.47 911.465,1756.3 915.5,1757C 921.88,1760.38 922.546,1764.38 917.5,1769C 921.356,1769.18 925.023,1769.68 928.5,1770.5C 912.858,1771.7 897.191,1772.36 881.5,1772.5C 875.527,1772.47 870.194,1770.64 865.5,1767C 847.417,1748.14 836.584,1725.64 833,1699.5C 831.036,1683.54 829.536,1667.54 828.5,1651.5C 825.941,1651.2 823.607,1651.53 821.5,1652.5C 820.957,1652.44 820.624,1652.11 820.5,1651.5C 823.304,1650.9 825.971,1650.06 828.5,1649C 828.073,1645.08 827.74,1640.91 827.5,1636.5C 826.669,1630.2 826.003,1623.87 825.5,1617.5C 825.104,1614.52 825.771,1611.85 827.5,1609.5C 831.911,1606.56 835.744,1607.23 839,1611.5C 839.944,1615.61 840.778,1619.61 841.5,1623.5 Z"/></g>
<g><path style="opacity:1" fill="#6f6558" d="M 545.5,1609.5 C 548.781,1609.42 551.781,1610.09 554.5,1611.5C 551.219,1611.58 548.219,1610.91 545.5,1609.5 Z"/></g>
<g><path style="opacity:1" fill="#d7be95" d="M 629.5,1614.5 C 635.762,1614.9 641.762,1614.23 647.5,1612.5C 653.217,1612.21 658.884,1611.54 664.5,1610.5C 663.775,1618.31 661.609,1625.65 658,1632.5C 655.833,1634.67 653.667,1636.83 651.5,1639C 646.167,1639.67 640.833,1639.67 635.5,1639C 617.119,1633.87 598.785,1628.54 580.5,1623C 575.365,1622.37 573.032,1619.54 573.5,1614.5C 592.173,1615.79 610.84,1615.79 629.5,1614.5 Z"/></g>
<g><path style="opacity:1" fill="#7d694e" d="M 647.5,1612.5 C 641.762,1614.23 635.762,1614.9 629.5,1614.5C 635.312,1613.42 641.312,1612.76 647.5,1612.5 Z"/></g>
<g><path style="opacity:1" fill="#b89761" d="M 825.5,1617.5 C 826.003,1623.87 826.669,1630.2 827.5,1636.5C 825.833,1636.5 824.167,1636.5 822.5,1636.5C 822.334,1630.16 822.5,1623.82 823,1617.5C 823.77,1616.4 824.603,1616.4 825.5,1617.5 Z"/></g>
<g><path style="opacity:1" fill="#b6945d" d="M 849.5,1632.5 C 846.691,1632.04 844.024,1632.04 841.5,1632.5C 841.5,1629.5 841.5,1626.5 841.5,1623.5C 841.5,1622.5 841.5,1621.5 841.5,1620.5C 848.607,1621.35 851.274,1625.35 849.5,1632.5 Z"/></g>
<g><path style="opacity:1" fill="#d7be95" d="M 678.5,1625.5 C 683.986,1626.02 689.319,1626.68 694.5,1627.5C 688.635,1665.66 681.802,1703.66 674,1741.5C 673.215,1743.29 672.049,1744.79 670.5,1746C 664.167,1746.67 657.833,1746.67 651.5,1746C 618.685,1740.51 587.019,1731.17 556.5,1718C 555.83,1709.83 557.33,1702 561,1694.5C 586.896,1707.85 614.396,1713.68 643.5,1712C 654.333,1709.17 661.167,1702.33 664,1691.5C 669.792,1669.67 674.626,1647.67 678.5,1625.5 Z"/></g>
<g><path style="opacity:1" fill="#5b4b38" d="M 875.5,1632.5 C 872.427,1631.8 869.427,1630.8 866.5,1629.5C 865.702,1629.96 865.369,1630.62 865.5,1631.5C 864.596,1630.79 864.263,1629.79 864.5,1628.5C 868.673,1628.67 872.34,1630 875.5,1632.5 Z"/></g>
<g><path style="opacity:1" fill="#d5bc94" d="M 875.5,1632.5 C 883.482,1635.5 891.816,1637.5 900.5,1638.5C 905.591,1640.13 910.924,1641.13 916.5,1641.5C 923.61,1642.98 930.943,1643.64 938.5,1643.5C 945.73,1643.67 952.73,1643 959.5,1641.5C 970.889,1640.81 981.223,1637.15 990.5,1630.5C 991.372,1632.47 991.205,1634.47 990,1636.5C 988.333,1637.73 986.833,1639.07 985.5,1640.5C 979.787,1642.34 974.12,1644.01 968.5,1645.5C 966.05,1645.3 963.717,1645.63 961.5,1646.5C 956.269,1646.44 951.269,1647.11 946.5,1648.5C 931.983,1650.04 917.317,1651.04 902.5,1651.5C 893.114,1651.78 883.78,1651.45 874.5,1650.5C 868.678,1645.64 865.678,1639.3 865.5,1631.5C 865.369,1630.62 865.702,1629.96 866.5,1629.5C 869.427,1630.8 872.427,1631.8 875.5,1632.5 Z"/></g>
<g><path style="opacity:1" fill="#d4bb92" d="M 849.5,1632.5 C 849.567,1633.96 849.234,1635.29 848.5,1636.5C 846.473,1636.66 844.473,1636.5 842.5,1636C 841.663,1634.99 841.33,1633.82 841.5,1632.5C 844.024,1632.04 846.691,1632.04 849.5,1632.5 Z"/></g>
<g><path style="opacity:1" fill="#d7be95" d="M 568.5,1635.5 C 591.095,1643.07 614.095,1649.23 637.5,1654C 643.302,1654.88 648.969,1654.38 654.5,1652.5C 653.669,1666.15 650.836,1679.48 646,1692.5C 641.195,1695.85 635.862,1697.18 630,1696.5C 606.376,1695.4 584.21,1689.23 563.5,1678C 561.667,1675.52 560.667,1672.69 560.5,1669.5C 562.86,1658.06 565.527,1646.73 568.5,1635.5 Z"/></g>
<g><path style="opacity:1" fill="#715f47" d="M 900.5,1638.5 C 906.116,1638.66 911.449,1639.66 916.5,1641.5C 910.924,1641.13 905.591,1640.13 900.5,1638.5 Z"/></g>
<g><path style="opacity:1" fill="#7c684e" d="M 916.5,1641.5 C 930.836,1642.78 945.169,1642.78 959.5,1641.5C 952.73,1643 945.73,1643.67 938.5,1643.5C 930.943,1643.64 923.61,1642.98 916.5,1641.5 Z"/></g>
<g><path style="opacity:1" fill="#5e4f3b" d="M 985.5,1640.5 C 980.431,1643.85 974.765,1645.52 968.5,1645.5C 974.12,1644.01 979.787,1642.34 985.5,1640.5 Z"/></g>
<g><path style="opacity:1" fill="#695943" d="M 961.5,1646.5 C 956.731,1647.89 951.731,1648.56 946.5,1648.5C 951.269,1647.11 956.269,1646.44 961.5,1646.5 Z"/></g>
<g><path style="opacity:1" fill="#675741" d="M 874.5,1650.5 C 883.78,1651.45 893.114,1651.78 902.5,1651.5C 893.676,1652.66 884.676,1652.82 875.5,1652C 874.944,1651.62 874.611,1651.12 874.5,1650.5 Z"/></g>
<g><path style="opacity:1" fill="#b98e5c" d="M 881.5,1772.5 C 886.49,1774.51 891.49,1776.68 896.5,1779C 908.575,1780.34 920.575,1782.18 932.5,1784.5C 941.93,1783.72 951.264,1782.39 960.5,1780.5C 964.705,1790.01 966.372,1800.01 965.5,1810.5C 916.167,1810.5 866.833,1810.5 817.5,1810.5C 815.091,1800.13 812.424,1789.8 809.5,1779.5C 815.606,1778.49 821.606,1777.16 827.5,1775.5C 831.675,1771.22 831.341,1767.39 826.5,1764C 806.453,1763.86 786.453,1762.86 766.5,1761C 759.921,1751.94 756.088,1741.77 755,1730.5C 753.446,1710.53 752.612,1690.53 752.5,1670.5C 763.815,1671.29 775.148,1671.63 786.5,1671.5C 786.428,1692.87 786.928,1714.2 788,1735.5C 786.201,1741.44 783.368,1746.78 779.5,1751.5C 781.425,1755.64 784.425,1756.47 788.5,1754C 795.068,1748.36 798.568,1741.2 799,1732.5C 798.422,1711.85 797.922,1691.18 797.5,1670.5C 812.23,1673.07 820.23,1667.07 821.5,1652.5C 823.607,1651.53 825.941,1651.2 828.5,1651.5C 829.536,1667.54 831.036,1683.54 833,1699.5C 836.584,1725.64 847.417,1748.14 865.5,1767C 870.194,1770.64 875.527,1772.47 881.5,1772.5 Z"/></g>
<g><path style="opacity:1" fill="#d7be95" d="M 993.5,1651.5 C 994.496,1651.41 995.329,1651.75 996,1652.5C 997.927,1663.43 998.594,1674.43 998,1685.5C 994.735,1691.9 989.569,1696.07 982.5,1698C 951.092,1707.43 919.092,1711.09 886.5,1709C 881.812,1708.08 878.312,1705.58 876,1701.5C 872.416,1689.34 870.582,1677 870.5,1664.5C 906.383,1667.04 942.05,1664.87 977.5,1658C 981.891,1656.82 986.224,1655.49 990.5,1654C 991.942,1653.62 992.942,1652.79 993.5,1651.5 Z"/></g>
<g><path style="opacity:1" fill="#b98e5c" d="M 733.5,1771.5 C 733.735,1784.53 733.401,1797.53 732.5,1810.5C 691.5,1810.5 650.5,1810.5 609.5,1810.5C 601.622,1808.36 593.622,1806.19 585.5,1804C 581.737,1803.08 578.237,1801.58 575,1799.5C 575.922,1787.12 577.422,1774.79 579.5,1762.5C 589.213,1765.79 598.88,1769.29 608.5,1773C 614.066,1773.69 619.4,1775.02 624.5,1777C 640.528,1779.92 656.528,1779.92 672.5,1777C 682.117,1772.91 686.45,1765.74 685.5,1755.5C 687.481,1752.06 688.981,1748.4 690,1744.5C 695.227,1716.13 700.561,1687.8 706,1659.5C 708.669,1662.16 711.836,1664 715.5,1665C 723.46,1666.49 731.46,1667.66 739.5,1668.5C 739.514,1688.9 740.68,1709.23 743,1729.5C 744.535,1739.6 747.368,1749.27 751.5,1758.5C 738.084,1757.82 724.751,1755.82 711.5,1752.5C 709.259,1753.07 707.592,1754.4 706.5,1756.5C 707.704,1759.41 709.704,1761.58 712.5,1763C 719.599,1765.89 726.599,1768.73 733.5,1771.5 Z"/></g>
<g><path style="opacity:1" fill="#996f40" d="M 685.5,1755.5 C 686.45,1765.74 682.117,1772.91 672.5,1777C 656.528,1779.92 640.528,1779.92 624.5,1777C 619.4,1775.02 614.066,1773.69 608.5,1773C 598.88,1769.29 589.213,1765.79 579.5,1762.5C 580.329,1758.51 581.163,1754.51 582,1750.5C 582.561,1749.98 583.228,1749.64 584,1749.5C 609.098,1758.35 634.932,1763.69 661.5,1765.5C 671.047,1765.44 679.047,1762.11 685.5,1755.5 Z"/></g>
<g><path style="opacity:1" fill="#997041" d="M 991.5,1810.5 C 982.833,1810.5 974.167,1810.5 965.5,1810.5C 966.372,1800.01 964.705,1790.01 960.5,1780.5C 951.264,1782.39 941.93,1783.72 932.5,1784.5C 920.575,1782.18 908.575,1780.34 896.5,1779C 891.49,1776.68 886.49,1774.51 881.5,1772.5C 897.191,1772.36 912.858,1771.7 928.5,1770.5C 942.197,1768.66 955.863,1766.5 969.5,1764C 984.87,1759.82 1000.2,1755.66 1015.5,1751.5C 1018.99,1767.43 1021.82,1783.43 1024,1799.5C 1013.31,1803.9 1002.48,1807.56 991.5,1810.5 Z"/></g>
<g><path style="opacity:1" fill="#997041" d="M 733.5,1771.5 C 745.574,1775.38 757.908,1778.38 770.5,1780.5C 769.678,1790.61 767.678,1800.61 764.5,1810.5C 753.833,1810.5 743.167,1810.5 732.5,1810.5C 733.401,1797.53 733.735,1784.53 733.5,1771.5 Z"/></g>
<g><path style="opacity:1" fill="#8c8378" d="M 793.5,1788.5 C 795.26,1792.55 796.26,1796.88 796.5,1801.5C 794.74,1797.45 793.74,1793.12 793.5,1788.5 Z"/></g>
<g><path style="opacity:1" fill="#f0eadb" d="M 793.5,1788.5 C 793.74,1793.12 794.74,1797.45 796.5,1801.5C 796.833,1803.5 797.167,1805.5 797.5,1807.5C 796.596,1808.21 796.263,1809.21 796.5,1810.5C 792.5,1810.5 788.5,1810.5 784.5,1810.5C 784.737,1809.21 784.404,1808.21 783.5,1807.5C 785.266,1798.9 786.599,1790.24 787.5,1781.5C 789.167,1781.5 790.833,1781.5 792.5,1781.5C 792.298,1783.95 792.631,1786.28 793.5,1788.5 Z"/></g>
</svg>
