<svg width="1569" height="167" viewBox="0 0 1569 167" fill="none" xmlns="http://www.w3.org/2000/svg">
<g clip-path="url(#clip0_357_436)">
<path fill-rule="evenodd" clip-rule="evenodd" d="M928.5 -1.5C933.167 -1.5 937.833 -1.5 942.5 -1.5C942.5 23.833 942.5 49.167 942.5 74.5C938.167 74.5 933.833 74.5 929.5 74.5C929.813 70.958 929.479 67.625 928.5 64.5C928.5 42.5 928.5 20.5 928.5 -1.5Z" fill="#9E9372"/>
<path fill-rule="evenodd" clip-rule="evenodd" d="M545.5 -1.5C550.5 -1.5 555.5 -1.5 560.5 -1.5C560.5 54.833 560.5 111.167 560.5 167.5C555.5 167.5 550.5 167.5 545.5 167.5C545.5 111.167 545.5 54.833 545.5 -1.5Z" fill="#988E72"/>
<path fill-rule="evenodd" clip-rule="evenodd" d="M1002.5 -1.5C1007.17 -1.5 1011.83 -1.5 1016.5 -1.5C1016.5 26.833 1016.5 55.167 1016.5 83.5C1012.12 83.078 1007.79 82.411 1003.5 81.5C1002.5 53.841 1002.17 26.175 1002.5 -1.5Z" fill="#9E9371"/>
<path fill-rule="evenodd" clip-rule="evenodd" d="M618.5 -1.5C623.5 -1.5 628.5 -1.5 633.5 -1.5C633.5 54.833 633.5 111.167 633.5 167.5C628.5 167.5 623.5 167.5 618.5 167.5C618.5 111.167 618.5 54.833 618.5 -1.5Z" fill="#988E71"/>
<path fill-rule="evenodd" clip-rule="evenodd" d="M942.5 -1.5C942.833 -1.5 943.167 -1.5 943.5 -1.5C943.5 54.833 943.5 111.167 943.5 167.5C938.5 167.5 933.5 167.5 928.5 167.5C928.5 133.167 928.5 98.833 928.5 64.5C929.479 67.625 929.813 70.958 929.5 74.5C933.833 74.5 938.167 74.5 942.5 74.5C942.5 49.167 942.5 23.833 942.5 -1.5Z" fill="#978D71"/>
<path fill-rule="evenodd" clip-rule="evenodd" d="M1001.5 -1.5C1001.83 -1.5 1002.17 -1.5 1002.5 -1.5C1002.17 26.175 1002.5 53.841 1003.5 81.5C1007.79 82.411 1012.12 83.078 1016.5 83.5C1016.5 111.5 1016.5 139.5 1016.5 167.5C1011.5 167.5 1006.5 167.5 1001.5 167.5C1001.5 135.167 1001.5 102.833 1001.5 70.5C1001.5 46.5 1001.5 22.5 1001.5 -1.5Z" fill="#968D70"/>
</g>
<defs>
<clipPath id="clip0_357_436">
<rect width="1569" height="167" fill="white"/>
</clipPath>
</defs>
</svg>
