<?xml version="1.0" encoding="UTF-8"?>
<!DOCTYPE svg PUBLIC "-//W3C//DTD SVG 1.1//EN" "http://www.w3.org/Graphics/SVG/1.1/DTD/svg11.dtd">
<svg xmlns="http://www.w3.org/2000/svg" version="1.1" width="1620px" height="2160px" style="shape-rendering:geometricPrecision; text-rendering:geometricPrecision; image-rendering:optimizeQuality; fill-rule:evenodd; clip-rule:evenodd" xmlns:xlink="http://www.w3.org/1999/xlink">
<g><path style="opacity:1" fill="#fefefe" d="M -0.5,-0.5 C 539.5,-0.5 1079.5,-0.5 1619.5,-0.5C 1619.5,719.5 1619.5,1439.5 1619.5,2159.5C 1079.5,2159.5 539.5,2159.5 -0.5,2159.5C -0.5,1439.5 -0.5,719.5 -0.5,-0.5 Z"/></g>
<g><path style="opacity:1" fill="#1d0701" d="M 1210.5,1849.5 C 1195.51,1848.74 1180.51,1848.41 1165.5,1848.5C 1166.18,1858.65 1161.52,1863.15 1151.5,1862C 1147.29,1860.04 1144.62,1856.87 1143.5,1852.5C 1144.04,1851.26 1144.38,1849.92 1144.5,1848.5C 1142.16,1837.63 1140.66,1826.63 1140,1815.5C 1139.25,1814.87 1138.42,1814.37 1137.5,1814C 1090.77,1815.28 1044.11,1817.95 997.5,1822C 994.086,1822.3 990.753,1822.96 987.5,1824C 963.177,1825.03 938.844,1825.53 914.5,1825.5C 917.856,1840.11 921.022,1854.78 924,1869.5C 924.465,1870.93 925.299,1872.1 926.5,1873C 947.428,1875.46 968.428,1876.12 989.5,1875C 1000.81,1874.03 1012.15,1873.36 1023.5,1873C 1035.94,1871.25 1048.27,1869.42 1060.5,1867.5C 1055.97,1869 1051.31,1870.34 1046.5,1871.5C 1046.76,1873.79 1046.42,1875.96 1045.5,1878C 1037.87,1879.04 1030.2,1879.71 1022.5,1880C 1018.16,1881.34 1013.83,1882.67 1009.5,1884C 998.152,1884.17 986.819,1884.67 975.5,1885.5C 974.788,1887.05 973.622,1888.05 972,1888.5C 957.425,1887.47 942.925,1885.8 928.5,1883.5C 928.029,1888.01 927.029,1892.35 925.5,1896.5C 928.092,1905.1 925.092,1910.43 916.5,1912.5C 913.972,1912.24 911.639,1911.4 909.5,1910C 907.996,1907.49 906.662,1904.99 905.5,1902.5C 899.207,1877.66 893.374,1852.66 888,1827.5C 886.03,1809.65 883.03,1791.98 879,1774.5C 878.513,1766.64 881.18,1759.97 887,1754.5C 887.167,1753 887.333,1751.5 887.5,1750C 885.823,1741.45 883.823,1732.95 881.5,1724.5C 881.182,1723.35 880.516,1722.52 879.5,1722C 867.811,1721.69 856.144,1721.03 844.5,1720C 834.098,1717.26 827.264,1710.76 824,1700.5C 820.246,1681.44 816.412,1662.44 812.5,1643.5C 806.537,1642.5 800.537,1642.17 794.5,1642.5C 792.11,1661.16 789.61,1679.83 787,1698.5C 784.526,1707.64 778.693,1713.47 769.5,1716C 757.618,1718.24 745.618,1719.07 733.5,1718.5C 731.211,1730.06 730.377,1741.73 731,1753.5C 736.472,1759.24 739.639,1766.08 740.5,1774C 735.382,1800.1 730.549,1826.27 726,1852.5C 721.192,1869.35 717.026,1886.35 713.5,1903.5C 711.129,1911.85 705.796,1914.69 697.5,1912C 692.823,1908.12 691.489,1903.29 693.5,1897.5C 691.971,1893.35 690.971,1889.01 690.5,1884.5C 676.075,1886.8 661.575,1888.47 647,1889.5C 645.378,1889.05 644.212,1888.05 643.5,1886.5C 632.181,1885.67 620.848,1885.17 609.5,1885C 605.841,1884.67 602.508,1883.5 599.5,1881.5C 590.818,1880.83 582.151,1880 573.5,1879C 571.531,1874.95 572.864,1872.95 577.5,1873C 576.944,1872.62 576.611,1872.12 576.5,1871.5C 615.069,1876.81 653.736,1877.65 692.5,1874C 693.701,1873.1 694.535,1871.93 695,1870.5C 697.978,1855.78 701.144,1841.11 704.5,1826.5C 667.03,1827.12 629.697,1825.29 592.5,1821C 557.506,1818.64 522.506,1816.47 487.5,1814.5C 481.174,1813.98 477.674,1816.98 477,1823.5C 475.34,1833.12 474.674,1842.78 475,1852.5C 476.622,1853.1 478.122,1853.77 479.5,1854.5C 477.833,1854.5 476.167,1854.5 474.5,1854.5C 472.338,1861.92 467.338,1864.76 459.5,1863C 454.141,1860.04 452.141,1855.54 453.5,1849.5C 441.5,1849.5 429.5,1849.5 417.5,1849.5C 429.569,1848.82 441.735,1848.16 454,1847.5C 454.445,1837.48 455.112,1827.48 456,1817.5C 457.131,1811.65 459.464,1806.32 463,1801.5C 463.253,1786.71 464.587,1772.05 467,1757.5C 469.281,1751.44 473.114,1746.61 478.5,1743C 484.422,1740.87 490.422,1739.04 496.5,1737.5C 497.477,1726.82 498.31,1716.15 499,1705.5C 485.73,1702.89 472.563,1699.72 459.5,1696C 444.189,1690.88 438.022,1680.38 441,1664.5C 442.183,1650.3 445.016,1636.46 449.5,1623C 446.694,1619.87 443.528,1617.03 440,1614.5C 430.794,1604.49 427.961,1592.83 431.5,1579.5C 361.296,1582.65 309.129,1553.65 275,1492.5C 257.594,1449.11 258.594,1406.11 278,1363.5C 281.518,1357.29 284.851,1350.96 288,1344.5C 301.924,1323.33 317.758,1303.66 335.5,1285.5C 327.57,1277.05 324.736,1267.05 327,1255.5C 331.985,1238.87 340.652,1224.54 353,1212.5C 366.224,1198.26 381.391,1186.76 398.5,1178C 411.019,1171.9 423.352,1172.07 435.5,1178.5C 470.136,1147.18 508.469,1121.35 550.5,1101C 520.884,1088.69 493.217,1073.03 467.5,1054C 443.741,1034.14 424.741,1010.48 410.5,983C 345.853,982.622 299.686,953.456 272,895.5C 254.502,851.091 255.669,807.091 275.5,763.5C 241.181,756.896 208.848,745.062 178.5,728C 167.938,721.439 157.938,714.106 148.5,706C 124.488,683.275 117.655,656.108 128,624.5C 132.921,612.396 140.088,601.73 149.5,592.5C 156.388,585.443 163.721,578.943 171.5,573C 209.171,549.214 249.171,530.214 291.5,516C 309.492,509.58 327.825,503.913 346.5,499C 350.268,498.023 353.768,496.523 357,494.5C 360.037,479.018 363.704,463.685 368,448.5C 375.977,404.927 386.31,361.927 399,319.5C 412.489,284.713 431.656,253.546 456.5,226C 463.314,219.763 470.314,213.763 477.5,208C 535.09,180.692 595.09,160.359 657.5,147C 700.384,137.556 743.717,131.223 787.5,128C 844.802,125.144 902.135,123.811 959.5,124C 1023.9,127.85 1085.57,142.85 1144.5,169C 1155.11,175.945 1165.44,183.278 1175.5,191C 1215.58,228.332 1246.42,272.165 1268,322.5C 1273.67,337.511 1279.34,352.511 1285,367.5C 1297.68,416.238 1309.35,465.238 1320,514.5C 1365.53,529.016 1409.36,547.516 1451.5,570C 1473.9,582.127 1494.07,597.293 1512,615.5C 1550.21,662.239 1545.37,704.073 1497.5,741C 1461.32,763.789 1421.98,778.622 1379.5,785.5C 1401.05,845.739 1391.55,900.739 1351,950.5C 1308.56,996.427 1257.39,1010.59 1197.5,993C 1171.81,1031.67 1138.47,1061.83 1097.5,1083.5C 1124.24,1093.03 1149.57,1105.53 1173.5,1121C 1196.01,1137.5 1217.34,1155.5 1237.5,1175C 1254.09,1171.21 1269.75,1173.54 1284.5,1182C 1307.97,1196.8 1325.8,1216.63 1338,1241.5C 1345.56,1257.42 1345.23,1273.09 1337,1288.5C 1334.98,1290.13 1333.98,1292.13 1334,1294.5C 1363.19,1324.01 1383.52,1358.68 1395,1398.5C 1408.86,1456.26 1395.36,1506.42 1354.5,1549C 1315.88,1583.82 1270.55,1598.15 1218.5,1592C 1208.97,1590.96 1199.63,1589.29 1190.5,1587C 1193.37,1595.97 1195.87,1605.13 1198,1614.5C 1201,1625.64 1198.17,1634.8 1189.5,1642C 1180.65,1645.67 1171.65,1648.84 1162.5,1651.5C 1166.29,1663.25 1168.46,1675.25 1169,1687.5C 1165.83,1694.67 1160.67,1699.83 1153.5,1703C 1145.52,1705.49 1137.52,1707.66 1129.5,1709.5C 1130.08,1719.29 1131.41,1728.95 1133.5,1738.5C 1143.66,1742.16 1150.16,1749.16 1153,1759.5C 1154.6,1773.12 1155.6,1786.79 1156,1800.5C 1159.54,1805.32 1161.87,1810.65 1163,1816.5C 1163.89,1826.48 1164.55,1836.48 1165,1846.5C 1180.29,1847.04 1195.46,1848.04 1210.5,1849.5 Z"/></g>
<g><path style="opacity:1" fill="#9a6841" d="M 445.5,400.5 C 446.176,393.759 447.343,387.093 449,380.5C 455.749,356.33 464.749,332.996 476,310.5C 479.77,304.397 483.103,298.063 486,291.5C 495.349,278.143 506.182,265.977 518.5,255C 528.648,246.095 538.982,237.429 549.5,229C 562.667,221.251 575.667,213.251 588.5,205C 599.703,199.661 611.037,194.828 622.5,190.5C 665.631,176.738 709.631,166.571 754.5,160C 780.464,157.443 806.464,155.276 832.5,153.5C 846.82,154.579 861.154,154.745 875.5,154C 929.726,146.287 983.726,147.621 1037.5,158C 1068.64,165.047 1098.31,176.047 1126.5,191C 1148.54,206.7 1168.37,224.866 1186,245.5C 1198,260.833 1210,276.167 1222,291.5C 1237.69,313.213 1249.19,337.046 1256.5,363C 1261.78,383.138 1266.12,403.471 1269.5,424C 1269.7,426.774 1268.7,428.941 1266.5,430.5C 1225.96,417.362 1185.29,404.529 1144.5,392C 1092.56,378.423 1039.89,368.757 986.5,363C 839.542,347.254 693.208,351.587 547.5,376C 512.911,381.928 478.911,390.095 445.5,400.5 Z"/></g>
<g><path style="opacity:1" fill="#f5f5de" d="M 622.5,190.5 C 611.037,194.828 599.703,199.661 588.5,205C 575.667,213.251 562.667,221.251 549.5,229C 538.982,237.429 528.648,246.095 518.5,255C 506.182,265.977 495.349,278.143 486,291.5C 483.103,298.063 479.77,304.397 476,310.5C 464.749,332.996 455.749,356.33 449,380.5C 447.343,387.093 446.176,393.759 445.5,400.5C 444.025,402.41 442.025,403.576 439.5,404C 429.808,406.34 420.142,408.84 410.5,411.5C 405.812,407.978 404.312,403.311 406,397.5C 409.802,385.094 413.802,372.76 418,360.5C 426.159,343.849 433.493,326.849 440,309.5C 450.423,288.303 463.09,268.637 478,250.5C 486.876,242.622 496.043,235.122 505.5,228C 522.966,217.601 540.966,208.267 559.5,200C 578.449,192.179 598.115,187.346 618.5,185.5C 621.492,185.809 622.825,187.476 622.5,190.5 Z"/></g>
<g><path style="opacity:1" fill="#9a6941" d="M 257.5,581.5 C 257.414,580.504 257.748,579.671 258.5,579C 289.414,564.249 321.414,552.249 354.5,543C 393.525,532.162 432.525,521.495 471.5,511C 527.139,498.806 582.805,487.14 638.5,476C 639.252,475.329 639.586,474.496 639.5,473.5C 809.238,459.881 977.904,468.048 1145.5,498C 1211.61,510.362 1276.28,528.029 1339.5,551C 1379.83,565 1418.16,583 1454.5,605C 1470.48,614.98 1484.65,627.146 1497,641.5C 1498.58,644.994 1500.41,648.327 1502.5,651.5C 1502.17,651.833 1501.83,652.167 1501.5,652.5C 1473.58,632.201 1443.25,616.035 1410.5,604C 1364.74,587.304 1318.08,573.638 1270.5,563C 1096.38,525.019 920.377,508.185 742.5,512.5C 682.131,514.891 621.797,518.391 561.5,523C 484.651,530.272 408.651,542.605 333.5,560C 308.237,567.468 282.904,574.634 257.5,581.5 Z"/></g>
<g><path style="opacity:1" fill="#f5f4dd" d="M 639.5,473.5 C 639.586,474.496 639.252,475.329 638.5,476C 582.805,487.14 527.139,498.806 471.5,511C 432.525,521.495 393.525,532.162 354.5,543C 321.414,552.249 289.414,564.249 258.5,579C 257.748,579.671 257.414,580.504 257.5,581.5C 225.928,593.122 195.928,607.622 167.5,625C 152.48,639.972 150.313,638.472 161,620.5C 165.467,615.032 170.3,609.865 175.5,605C 187.82,595.839 200.486,587.172 213.5,579C 233.078,569.709 252.745,560.709 272.5,552C 348.78,523.872 427.113,503.206 507.5,490C 531.556,486.1 555.556,482.434 579.5,479C 599.461,476.689 619.461,474.856 639.5,473.5 Z"/></g>
<g><path style="opacity:1" fill="#8f4e31" d="M 749.5,543.5 C 815.919,542.721 882.253,544.555 948.5,549C 928.299,556.357 916.299,570.523 912.5,591.5C 912.266,598.188 914.599,603.688 919.5,608C 875.516,632.508 847.516,669.341 835.5,718.5C 816.385,711.324 796.718,709.824 776.5,714C 771.199,715.692 765.865,717.192 760.5,718.5C 750.399,672.343 725.399,636.343 685.5,610.5C 695.825,599.929 698.325,587.596 693,573.5C 686.088,561.125 675.921,552.625 662.5,548C 684.834,546.708 707.168,545.542 729.5,544.5C 731.038,544.673 732.538,545.006 734,545.5C 739.313,544.902 744.479,544.235 749.5,543.5 Z"/></g>
<g><path style="opacity:1" fill="#77482b" d="M 337.5,591.5 C 338.552,591.351 339.552,591.517 340.5,592C 330.61,631.947 332.943,671.113 347.5,709.5C 327.649,714.007 310.482,723.34 296,737.5C 281.351,733.29 266.518,729.456 251.5,726C 238.249,720.538 224.915,715.371 211.5,710.5C 200.343,704.757 189.676,698.257 179.5,691C 172.831,685.326 168.164,678.326 165.5,670C 166.098,667.521 167.265,665.354 169,663.5C 173.719,658.278 178.885,653.612 184.5,649.5C 207.686,636.072 231.686,624.572 256.5,615C 283.477,606.613 310.477,598.78 337.5,591.5 Z"/></g>
<g><path style="opacity:1" fill="#8d4c30" d="M 554.5,555.5 C 558.182,555.335 561.848,555.501 565.5,556C 560.831,556.888 556.497,558.555 552.5,561C 543.997,567.854 537.83,576.354 534,586.5C 533.032,591.36 533.532,596.026 535.5,600.5C 498.634,617.869 470.8,644.536 452,680.5C 449.592,687.64 446.926,694.64 444,701.5C 442.714,706.512 441.548,711.512 440.5,716.5C 436.818,716.665 433.152,716.499 429.5,716C 432.491,666.049 443.325,617.882 462,571.5C 466.219,569.091 470.719,567.257 475.5,566C 501.963,562.304 528.296,558.804 554.5,555.5 Z"/></g>
<g><path style="opacity:1" fill="#8e4d31" d="M 1054.5,558.5 C 1086.49,561.978 1118.49,566.978 1150.5,573.5C 1160.67,597.2 1168.84,621.533 1175,646.5C 1179.7,671.376 1183.54,696.376 1186.5,721.5C 1178.97,719.799 1171.31,719.133 1163.5,719.5C 1152.28,670.779 1125.11,633.779 1082,608.5C 1082.5,603.834 1083.33,599.167 1084.5,594.5C 1082.17,576.164 1072.17,564.164 1054.5,558.5 Z"/></g>
<g><path style="opacity:1" fill="#77482b" d="M 1324.5,610.5 C 1374.76,622.635 1422.42,641.135 1467.5,666C 1474.83,671.333 1482.17,676.667 1489.5,682C 1496.2,687.363 1497.37,693.53 1493,700.5C 1488.22,706.612 1482.72,712.112 1476.5,717C 1441.21,737.991 1403.21,751.325 1362.5,757C 1348.89,741.195 1331.89,731.028 1311.5,726.5C 1320.73,706.923 1326.56,686.257 1329,664.5C 1330.88,646.257 1329.38,628.257 1324.5,610.5 Z"/></g>
<g><path style="opacity:1" fill="#8f4e31" d="M 587.5,622.5 C 647.871,618.098 691.705,642.765 719,696.5C 739.247,746.597 733.914,793.597 703,837.5C 680.317,864.427 651.484,880.26 616.5,885C 569.829,891.002 530.329,877.168 498,843.5C 488.227,831.39 480.56,818.057 475,803.5C 461.507,756.617 468.84,713.283 497,673.5C 513.422,652.402 534.256,637.568 559.5,629C 568.904,626.48 578.237,624.313 587.5,622.5 Z"/></g>
<g><path style="opacity:1" fill="#8f4e31" d="M 975.5,624.5 C 1010.29,621.206 1042.96,627.706 1073.5,644C 1116.21,674.607 1136.05,716.44 1133,769.5C 1127.21,813.618 1105.05,846.785 1066.5,869C 1031.11,886.461 994.111,890.461 955.5,881C 908.91,866.412 879.41,835.579 867,788.5C 859.618,750.828 865.618,715.495 885,682.5C 906.825,650.17 936.992,630.836 975.5,624.5 Z"/></g>
<g><path style="opacity:1" fill="#030202" d="M 978.5,683.5 C 1009.13,680.896 1031.96,692.896 1047,719.5C 1061.32,747.262 1063.32,775.929 1053,805.5C 1038.12,842.742 1010.95,858.242 971.5,852C 945.835,841.83 929.502,823.33 922.5,796.5C 913.604,762.476 920.104,731.81 942,704.5C 952.214,693.98 964.38,686.98 978.5,683.5 Z"/></g>
<g><path style="opacity:1" fill="#020101" d="M 593.5,689.5 C 624.129,686.896 646.962,698.896 662,725.5C 676.324,753.262 678.324,781.929 668,811.5C 653.12,848.742 625.954,864.242 586.5,858C 560.835,847.83 544.502,829.33 537.5,802.5C 528.604,768.476 535.104,737.81 557,710.5C 567.214,699.98 579.38,692.98 593.5,689.5 Z"/></g>
<g><path style="opacity:1" fill="#fdfdfd" d="M 999.5,822.5 C 993.989,824.21 988.323,824.877 982.5,824.5C 972.861,822.035 965.694,816.368 961,807.5C 953.849,792.616 951.516,776.949 954,760.5C 957.339,744.306 966.506,732.806 981.5,726C 997.407,724.37 1009.24,730.537 1017,744.5C 1024.89,762.867 1025.56,781.534 1019,800.5C 1015.12,810.211 1008.62,817.544 999.5,822.5 Z"/></g>
<g><path style="opacity:1" fill="#fdfdfd" d="M 616.5,828.5 C 610.989,830.21 605.323,830.877 599.5,830.5C 589.861,828.035 582.694,822.368 578,813.5C 570.849,798.616 568.516,782.949 571,766.5C 574.339,750.306 583.506,738.806 598.5,732C 614.407,730.37 626.24,736.537 634,750.5C 641.89,768.867 642.557,787.534 636,806.5C 632.119,816.211 625.619,823.544 616.5,828.5 Z"/></g>
<g><path style="opacity:1" fill="#f4f3dc" d="M 392.5,747.5 C 345.692,748.285 316.859,771.285 306,816.5C 302.912,834.38 301.912,852.38 303,870.5C 304.036,881.81 306.869,892.643 311.5,903C 311.164,904.03 310.497,904.53 309.5,904.5C 283.075,863.628 280.575,821.295 302,777.5C 311.167,763 323,751.167 337.5,742C 354.32,733.237 370.987,733.57 387.5,743C 389.692,744.067 391.358,745.567 392.5,747.5 Z"/></g>
<g><path style="opacity:1" fill="#8f4e31" d="M 789.5,746.5 C 799.188,747.003 808.855,747.836 818.5,749C 822.689,749.727 826.522,751.227 830,753.5C 830.281,805.091 849.448,847.924 887.5,882C 920.132,906.934 957.132,919.434 998.5,919.5C 1055.92,917.899 1102.42,894.899 1138,850.5C 1157.01,821.781 1166.84,790.115 1167.5,755.5C 1174.84,755.629 1182.18,755.962 1189.5,756.5C 1191.61,768.407 1193.11,780.407 1194,792.5C 1195.6,800.539 1199.44,807.373 1205.5,813C 1210.8,813.899 1215.3,812.399 1219,808.5C 1226.32,788.518 1238.82,772.685 1256.5,761C 1293.1,744.313 1323.26,752.146 1347,784.5C 1361.01,810.581 1365.35,838.248 1360,867.5C 1349.83,916.663 1321.33,950.163 1274.5,968C 1254.01,974.325 1233.68,973.992 1213.5,967C 1209.35,965.2 1207.35,962.033 1207.5,957.5C 1211.01,946.426 1212.51,935.093 1212,923.5C 1205.65,916.565 1199.65,916.899 1194,924.5C 1183.51,960.674 1164.34,991.508 1136.5,1017C 1114.54,1036.63 1090.21,1052.63 1063.5,1065C 1010.76,1088.36 955.431,1102.36 897.5,1107C 819.803,1114.91 742.469,1112.58 665.5,1100C 643.534,1095.41 621.534,1090.74 599.5,1086C 558.886,1074.03 521.553,1055.69 487.5,1031C 470.492,1016 455.659,999.164 443,980.5C 423.387,943.098 416.387,903.431 422,861.5C 426.582,824.787 430.582,788.12 434,751.5C 434.35,785.584 442.683,817.584 459,847.5C 469.746,864.247 483.246,878.414 499.5,890C 553.475,923.875 610.142,928.541 669.5,904C 717.748,880.736 747.914,842.902 760,790.5C 761.944,778.835 763.777,767.168 765.5,755.5C 773.342,751.881 781.342,748.881 789.5,746.5 Z"/></g>
<g><path style="opacity:1" fill="#8f4e32" d="M 392.5,747.5 C 396.651,750.803 400.985,753.97 405.5,757C 407.317,758.8 408.484,760.966 409,763.5C 409.573,779.662 408.24,795.662 405,811.5C 404.282,812.451 403.449,812.617 402.5,812C 392.716,799.609 380.05,792.109 364.5,789.5C 354.126,789.715 345.959,794.048 340,802.5C 336.97,806.387 335.97,810.72 337,815.5C 338.265,817.397 339.931,818.73 342,819.5C 346.626,818.205 350.793,816.038 354.5,813C 364.255,812.021 373.255,814.354 381.5,820C 386.667,824.5 391.833,829 397,833.5C 396.849,843.273 395.516,852.939 393,862.5C 392.185,874.67 391.352,886.836 390.5,899C 391.463,917.311 394.796,935.144 400.5,952.5C 381.947,953.028 364.614,948.528 348.5,939C 333.01,930.264 320.01,918.764 309.5,904.5C 310.497,904.53 311.164,904.03 311.5,903C 306.869,892.643 304.036,881.81 303,870.5C 301.912,852.38 302.912,834.38 306,816.5C 316.859,771.285 345.692,748.285 392.5,747.5 Z"/></g>
<g><path style="opacity:1" fill="#dedcdb" d="M 879.5,774.5 C 882.675,774.503 885.508,775.503 888,777.5C 891.307,788.447 895.974,798.78 902,808.5C 906.333,814.167 911.333,819.167 917,823.5C 920.452,830.926 918.285,835.592 910.5,837.5C 899.886,831.387 891.386,823.054 885,812.5C 879.493,803.474 875.659,793.807 873.5,783.5C 873.944,779.402 875.944,776.402 879.5,774.5 Z"/></g>
<g><path style="opacity:1" fill="#dedbda" d="M 484.5,775.5 C 487.862,775.07 490.695,776.07 493,778.5C 496.908,793.314 503.241,806.98 512,819.5C 514.516,827.616 511.683,831.782 503.5,832C 500.898,831.117 498.731,829.617 497,827.5C 488.115,814.391 481.949,800.058 478.5,784.5C 478.96,780.39 480.96,777.39 484.5,775.5 Z"/></g>
<g><path style="opacity:1" fill="#1e0800" d="M 1286.5,796.5 C 1303.9,794.761 1315.07,802.094 1320,818.5C 1320.41,826.093 1316.91,829.593 1309.5,829C 1298.61,817.037 1286.94,816.37 1274.5,827C 1267.76,833.32 1261.59,840.153 1256,847.5C 1255.52,848.448 1255.35,849.448 1255.5,850.5C 1261.26,852.735 1266.09,856.401 1270,861.5C 1282.01,881.395 1281.01,900.728 1267,919.5C 1257.7,932.444 1245.2,937.777 1229.5,935.5C 1229.34,933.801 1229.51,932.134 1230,930.5C 1243.53,923.304 1253.2,912.638 1259,898.5C 1261.91,887.285 1259.07,877.951 1250.5,870.5C 1248.16,869.077 1245.66,868.077 1243,867.5C 1239.38,869.143 1235.71,870.81 1232,872.5C 1227.05,870.615 1224.55,866.948 1224.5,861.5C 1227.46,851.715 1231.96,842.715 1238,834.5C 1247.25,823.919 1257.08,814.085 1267.5,805C 1273.86,801.842 1280.19,799.008 1286.5,796.5 Z"/></g>
<g><path style="opacity:1" fill="#020100" d="M 792.5,824.5 C 804.399,823.633 807.899,828.633 803,839.5C 794.703,847.452 786.87,855.785 779.5,864.5C 789.898,867.245 799.898,871.078 809.5,876C 812.318,879.338 813.151,883.171 812,887.5C 809.293,891.035 805.793,892.202 801.5,891C 789.145,885.062 776.145,881.395 762.5,880C 754.846,876.037 753.013,870.204 757,862.5C 769.094,849.911 780.928,837.245 792.5,824.5 Z"/></g>
<g><path style="opacity:1" fill="#464646" d="M 999.5,822.5 C 998.653,823.966 997.32,824.8 995.5,825C 990.98,825.814 986.646,825.647 982.5,824.5C 988.323,824.877 993.989,824.21 999.5,822.5 Z"/></g>
<g><path style="opacity:1" fill="#464646" d="M 616.5,828.5 C 615.653,829.966 614.32,830.8 612.5,831C 607.98,831.814 603.646,831.647 599.5,830.5C 605.323,830.877 610.989,830.21 616.5,828.5 Z"/></g>
<g><path style="opacity:1" fill="#dddad8" d="M 927.5,834.5 C 937.36,834.543 940.527,839.21 937,848.5C 931.979,853.917 927.312,853.584 923,847.5C 921.379,841.923 922.879,837.589 927.5,834.5 Z"/></g>
<g><path style="opacity:1" fill="#dddad8" d="M 521.5,837.5 C 528.787,836.955 532.287,840.288 532,847.5C 529.983,852.924 526.15,854.758 520.5,853C 518.667,852.5 517.5,851.333 517,849.5C 515.309,844.131 516.809,840.131 521.5,837.5 Z"/></g>
<g><path style="opacity:1" fill="#1f0900" d="M 914.5,927.5 C 926.364,926.405 933.364,931.572 935.5,943C 935.671,946.129 934.838,948.963 933,951.5C 878.209,996.821 815.709,1011.99 745.5,997C 724.594,991.259 705.261,982.259 687.5,970C 681.204,964.711 676.038,958.544 672,951.5C 668.787,942.811 670.953,935.977 678.5,931C 683.382,929.787 687.548,930.954 691,934.5C 693.129,939.853 695.629,945.02 698.5,950C 737.937,977.824 781.603,987.157 829.5,978C 857.704,972.614 883.204,961.447 906,944.5C 906.684,941.62 906.517,938.787 905.5,936C 905.862,934.775 906.362,933.609 907,932.5C 909.479,930.686 911.979,929.019 914.5,927.5 Z"/></g>
<g><path style="opacity:1" fill="#d9bf96" d="M 1056.5,1107.5 C 1100.34,1114.72 1140.01,1131.55 1175.5,1158C 1186.46,1166.62 1197.13,1175.62 1207.5,1185C 1169.14,1203.69 1135.64,1228.86 1107,1260.5C 1100.55,1269.12 1094.71,1278.12 1089.5,1287.5C 1077.88,1262 1067.21,1236 1057.5,1209.5C 1062.75,1183.71 1064.25,1157.71 1062,1131.5C 1060.48,1123.41 1058.64,1115.41 1056.5,1107.5 Z"/></g>
<g><path style="opacity:1" fill="#d9c096" d="M 602.5,1118.5 C 625.902,1124.77 649.568,1129.93 673.5,1134C 681.65,1142.98 689.984,1151.82 698.5,1160.5C 720.652,1181.48 742.652,1202.65 764.5,1224C 754.935,1235.63 748.435,1248.8 745,1263.5C 740.811,1305.78 739.145,1348.12 740,1390.5C 730.449,1390.97 720.949,1392.14 711.5,1394C 705.437,1396.73 700.603,1400.9 697,1406.5C 696.333,1403.17 696.333,1399.83 697,1396.5C 705.452,1341.41 711.618,1286.08 715.5,1230.5C 723.426,1231.5 730.759,1230 737.5,1226C 742.662,1220.43 742.329,1215.1 736.5,1210C 724.351,1207.09 712.018,1205.25 699.5,1204.5C 692.485,1204.27 685.651,1205.27 679,1207.5C 669.995,1203.83 662.995,1197.83 658,1189.5C 653.328,1183 646.994,1179.66 639,1179.5C 621.767,1181.95 604.6,1184.78 587.5,1188C 583.5,1188.67 579.5,1188.67 575.5,1188C 574.439,1186.15 573.773,1184.15 573.5,1182C 576.775,1165.84 582.608,1150.67 591,1136.5C 594.594,1130.3 598.428,1124.3 602.5,1118.5 Z"/></g>
<g><path style="opacity:1" fill="#d9bf96" d="M 468.5,1202.5 C 471.801,1202.14 474.801,1200.97 477.5,1199C 491.281,1187.88 505.614,1177.55 520.5,1168C 518.576,1167.82 516.909,1167.65 515.5,1167.5C 516.982,1165.52 518.649,1163.68 520.5,1162C 519.5,1161.67 518.5,1161.33 517.5,1161C 518.833,1160 518.833,1159 517.5,1158C 518.672,1157.65 519.838,1157.81 521,1158.5C 522.011,1158.11 522.511,1157.44 522.5,1156.5C 523.192,1157.03 523.692,1157.69 524,1158.5C 525.751,1156.79 526.418,1154.79 526,1152.5C 524.32,1153.6 522.82,1153.27 521.5,1151.5C 526.027,1148.07 530.694,1144.91 535.5,1142C 534.552,1141.52 533.552,1141.35 532.5,1141.5C 543.604,1134.3 555.604,1129.13 568.5,1126C 560.37,1142.76 553.204,1159.93 547,1177.5C 544.718,1186.94 544.218,1196.44 545.5,1206C 539.44,1222.07 532.44,1237.73 524.5,1253C 523.833,1253.67 523.167,1253.67 522.5,1253C 505.534,1234.86 487.534,1218.03 468.5,1202.5 Z"/></g>
<g><path style="opacity:1" fill="#8d4c31" d="M 715.5,1138.5 C 731.078,1140.35 746.744,1141.51 762.5,1142C 794.84,1142.46 827.173,1142.46 859.5,1142C 846.316,1152.43 833.316,1163.09 820.5,1174C 807.684,1185.32 795.017,1196.82 782.5,1208.5C 760.096,1185.1 737.763,1161.77 715.5,1138.5 Z"/></g>
<g><path style="opacity:1" fill="#d2a557" d="M 518.5,1150.5 C 518.719,1151.68 518.386,1152.68 517.5,1153.5C 514.716,1154.39 512.05,1155.56 509.5,1157C 502.121,1162.68 494.455,1167.85 486.5,1172.5C 496.337,1164 507.004,1156.67 518.5,1150.5 Z"/></g>
<g><path style="opacity:1" fill="#dbbe8e" d="M 532.5,1141.5 C 533.552,1141.35 534.552,1141.52 535.5,1142C 530.694,1144.91 526.027,1148.07 521.5,1151.5C 522.82,1153.27 524.32,1153.6 526,1152.5C 526.418,1154.79 525.751,1156.79 524,1158.5C 523.692,1157.69 523.192,1157.03 522.5,1156.5C 522.511,1157.44 522.011,1158.11 521,1158.5C 519.838,1157.81 518.672,1157.65 517.5,1158C 518.833,1159 518.833,1160 517.5,1161C 518.5,1161.33 519.5,1161.67 520.5,1162C 518.649,1163.68 516.982,1165.52 515.5,1167.5C 516.909,1167.65 518.576,1167.82 520.5,1168C 505.614,1177.55 491.281,1187.88 477.5,1199C 474.801,1200.97 471.801,1202.14 468.5,1202.5C 465.349,1200.42 462.349,1198.08 459.5,1195.5C 460.521,1193.81 461.855,1192.48 463.5,1191.5C 467.507,1188.82 471.173,1185.82 474.5,1182.5C 478.091,1178.7 482.091,1175.37 486.5,1172.5C 494.455,1167.85 502.121,1162.68 509.5,1157C 512.05,1155.56 514.716,1154.39 517.5,1153.5C 518.386,1152.68 518.719,1151.68 518.5,1150.5C 522.79,1147.01 527.457,1144.01 532.5,1141.5 Z"/></g>
<g><path style="opacity:1" fill="#cf9f4e" d="M 474.5,1182.5 C 471.173,1185.82 467.507,1188.82 463.5,1191.5C 466.29,1187.37 469.957,1184.37 474.5,1182.5 Z"/></g>
<g><path style="opacity:1" fill="#d9c097" d="M 1252.5,1198.5 C 1261.99,1199.94 1270.66,1203.44 1278.5,1209C 1293.84,1221.85 1305.67,1237.35 1314,1255.5C 1315.51,1260.75 1315.84,1266.08 1315,1271.5C 1302.29,1274.47 1289.79,1278.31 1277.5,1283C 1236.33,1302.33 1199.17,1327.49 1166,1358.5C 1160.13,1365.73 1154.63,1373.23 1149.5,1381C 1146.24,1381.14 1143.24,1380.14 1140.5,1378C 1123.2,1365.56 1110.04,1349.72 1101,1330.5C 1100.85,1326.09 1101.52,1321.75 1103,1317.5C 1110.2,1299.43 1120.2,1283.09 1133,1268.5C 1161.72,1239.11 1195.22,1216.95 1233.5,1202C 1240.01,1201.03 1246.34,1199.86 1252.5,1198.5 Z"/></g>
<g><path style="opacity:1" fill="#d8be95" d="M 616.5,1642.5 C 592.167,1642.5 567.833,1642.5 543.5,1642.5C 519.377,1642.03 495.71,1638.53 472.5,1632C 471.007,1630.84 471.174,1630.01 473,1629.5C 505.278,1638.51 538.112,1641.68 571.5,1639C 583.215,1633.62 591.049,1624.78 595,1612.5C 603.33,1571.18 611.663,1529.85 620,1488.5C 623.553,1473.76 618.053,1464.59 603.5,1461C 582.867,1458.45 562.2,1456.11 541.5,1454C 526.334,1451.77 511.334,1448.77 496.5,1445C 493.981,1443.66 492.647,1441.5 492.5,1438.5C 493.229,1433.53 493.729,1428.53 494,1423.5C 494.308,1422.69 494.808,1422.03 495.5,1421.5C 498.081,1424.25 501.081,1426.41 504.5,1428C 514.683,1432.24 525.35,1434.57 536.5,1435C 551.327,1435.69 566.16,1436.19 581,1436.5C 594.763,1437.19 608.263,1435.69 621.5,1432C 631.729,1427.1 638.895,1419.26 643,1408.5C 645.464,1401.65 647.464,1394.65 649,1387.5C 655.472,1351.64 660.972,1315.64 665.5,1279.5C 666.018,1270.04 662.018,1263.2 653.5,1259C 620.197,1257.99 586.863,1256.66 553.5,1255C 553.043,1254.59 552.709,1254.09 552.5,1253.5C 556.495,1241.34 561.162,1229.51 566.5,1218C 591.373,1213.95 616.206,1209.79 641,1205.5C 642.107,1205.59 643.107,1205.92 644,1206.5C 649.292,1220.8 659.458,1228.64 674.5,1230C 680.491,1230.5 686.491,1230.67 692.5,1230.5C 686.668,1299.49 678.168,1368.16 667,1436.5C 657.127,1490.07 647.794,1543.74 639,1597.5C 636.635,1610.33 633.635,1622.99 630,1635.5C 626.97,1640.7 622.47,1643.04 616.5,1642.5 Z"/></g>
<g><path style="opacity:1" fill="#d8bf96" d="M 1017.5,1640.5 C 1017.17,1641.17 1016.83,1641.83 1016.5,1642.5C 996.164,1642.67 975.831,1642.5 955.5,1642C 944.306,1642.79 936.806,1637.96 933,1627.5C 892.495,1498.05 874.162,1365.72 878,1230.5C 891.011,1234.97 903.844,1234.47 916.5,1229C 922.074,1224.42 926.574,1218.92 930,1212.5C 932.329,1209.5 935.329,1207.5 939,1206.5C 966.686,1213.3 994.186,1220.8 1021.5,1229C 1026.52,1230.09 1031.19,1229.26 1035.5,1226.5C 1036.8,1227.09 1037.63,1228.09 1038,1229.5C 1040.58,1238.25 1043.75,1246.75 1047.5,1255C 1045.47,1256.01 1043.3,1256.51 1041,1256.5C 999.914,1256.56 958.747,1256.39 917.5,1256C 906.027,1259.25 901.027,1266.92 902.5,1279C 904.997,1319.47 909.83,1359.64 917,1399.5C 919.104,1408.54 922.937,1416.71 928.5,1424C 934.176,1428.34 940.51,1431.34 947.5,1433C 993.857,1439.47 1039.86,1437.14 1085.5,1426C 1094.89,1420.74 1101.05,1412.91 1104,1402.5C 1104.05,1397.32 1104.72,1392.32 1106,1387.5C 1108.61,1393.93 1110.61,1400.59 1112,1407.5C 1114.52,1420.92 1117.35,1434.25 1120.5,1447.5C 1112.93,1445.7 1105.26,1445.2 1097.5,1446C 1051.69,1453.2 1005.69,1458.87 959.5,1463C 947.772,1465.24 942.105,1472.41 942.5,1484.5C 948.53,1528.48 957.697,1571.82 970,1614.5C 974.66,1626.49 983.16,1634.33 995.5,1638C 1002.71,1639.93 1010.04,1640.77 1017.5,1640.5 Z"/></g>
<g><path style="opacity:1" fill="#dcbf8f" d="M 429.5,1206.5 C 433.417,1208.41 437.083,1210.75 440.5,1213.5C 440.414,1214.5 440.748,1215.33 441.5,1216C 433.827,1221.34 425.494,1225.34 416.5,1228C 402.495,1236.34 389.329,1245.84 377,1256.5C 374.035,1259.8 371.701,1263.47 370,1267.5C 368.315,1269.02 366.815,1270.68 365.5,1272.5C 364.056,1271.02 363.389,1271.35 363.5,1273.5C 361.5,1271.5 359.5,1269.5 357.5,1267.5C 356.611,1265.09 355.945,1262.59 355.5,1260C 356.695,1255.78 358.028,1251.61 359.5,1247.5C 361.029,1243.63 363.363,1240.3 366.5,1237.5C 375.57,1229.28 384.903,1221.11 394.5,1213C 401.479,1207.94 409.146,1204.11 417.5,1201.5C 421.267,1203.72 425.267,1205.38 429.5,1206.5 Z"/></g>
<g><path style="opacity:1" fill="#daad57" d="M 429.5,1206.5 C 425.267,1205.38 421.267,1203.72 417.5,1201.5C 409.146,1204.11 401.479,1207.94 394.5,1213C 384.903,1221.11 375.57,1229.28 366.5,1237.5C 379.637,1221.95 395.303,1209.78 413.5,1201C 419.962,1199.74 425.295,1201.57 429.5,1206.5 Z"/></g>
<g><path style="opacity:1" fill="#d9c097" d="M 440.5,1213.5 C 466.743,1232.58 489.91,1254.91 510,1280.5C 510.696,1284.91 510.363,1289.24 509,1293.5C 504.327,1307.51 499.66,1321.51 495,1335.5C 490.603,1344.9 485.77,1354.06 480.5,1363C 478.711,1363.52 477.044,1363.19 475.5,1362C 462.763,1349.26 449.43,1337.26 435.5,1326C 411.648,1308.25 387.648,1290.75 363.5,1273.5C 363.389,1271.35 364.056,1271.02 365.5,1272.5C 366.815,1270.68 368.315,1269.02 370,1267.5C 371.701,1263.47 374.035,1259.8 377,1256.5C 389.329,1245.84 402.495,1236.34 416.5,1228C 425.494,1225.34 433.827,1221.34 441.5,1216C 440.748,1215.33 440.414,1214.5 440.5,1213.5 Z"/></g>
<g><path style="opacity:1" fill="#d9c096" d="M 1026.5,1113.5 C 1028.14,1113.29 1029.64,1113.62 1031,1114.5C 1037.17,1133.7 1039.17,1153.36 1037,1173.5C 1035.1,1182.85 1033.26,1192.18 1031.5,1201.5C 1027.47,1201.33 1023.47,1200.83 1019.5,1200C 997.709,1192.31 975.375,1186.64 952.5,1183C 945.833,1182.33 939.167,1182.33 932.5,1183C 929.382,1184.06 926.382,1185.39 923.5,1187C 918.533,1192.97 913.199,1198.64 907.5,1204C 904.618,1205.61 901.618,1206.94 898.5,1208C 885.657,1207.21 872.824,1206.05 860,1204.5C 843.477,1205.26 829.811,1211.93 819,1224.5C 814.584,1232.67 816.918,1237.67 826,1239.5C 832.997,1237.83 839.497,1235 845.5,1231C 848.482,1230.5 851.482,1230.34 854.5,1230.5C 851.814,1291.38 854.48,1352.05 862.5,1412.5C 860.801,1412.66 859.134,1412.49 857.5,1412C 854.62,1402.78 848.62,1396.45 839.5,1393C 814.868,1390.88 790.202,1390.38 765.5,1391.5C 762.769,1356.48 763.269,1321.48 767,1286.5C 768.247,1276.02 770.247,1265.68 773,1255.5C 784.453,1241.05 796.953,1227.55 810.5,1215C 841.294,1187.87 872.961,1161.87 905.5,1137C 946.744,1133.19 987.077,1125.35 1026.5,1113.5 Z"/></g>
<g><path style="opacity:1" fill="#d4a954" d="M 359.5,1247.5 C 358.028,1251.61 356.695,1255.78 355.5,1260C 355.945,1262.59 356.611,1265.09 357.5,1267.5C 355.503,1265.49 353.836,1263.15 352.5,1260.5C 354.085,1255.66 356.418,1251.32 359.5,1247.5 Z"/></g>
<g><path style="opacity:1" fill="#2b1103" d="M 793.5,1271.5 C 808.203,1268.99 818.703,1274.32 825,1287.5C 825.788,1293.22 825.621,1298.89 824.5,1304.5C 815.834,1321.33 803.167,1325.16 786.5,1316C 776.285,1307.03 773.785,1296.2 779,1283.5C 782.848,1278.18 787.681,1274.18 793.5,1271.5 Z"/></g>
<g><path style="opacity:1" fill="#d8bf96" d="M 539.5,1276.5 C 572.759,1280.48 606.092,1281.48 639.5,1279.5C 640.5,1279.83 641.167,1280.5 641.5,1281.5C 639.553,1291.45 637.22,1301.28 634.5,1311C 613.816,1320.01 592.483,1327.17 570.5,1332.5C 559.172,1328.89 548.172,1324.39 537.5,1319C 534.37,1316.87 531.537,1314.37 529,1311.5C 528.333,1309.5 528.333,1307.5 529,1305.5C 532.352,1295.75 535.852,1286.08 539.5,1276.5 Z"/></g>
<g><path style="opacity:1" fill="#d8bf96" d="M 1046.5,1277.5 C 1048.83,1277.5 1051.17,1277.5 1053.5,1277.5C 1056.53,1288.76 1059.87,1299.93 1063.5,1311C 1048.01,1318.24 1032.35,1325.24 1016.5,1332C 1011.45,1332.22 1006.45,1332.72 1001.5,1333.5C 982.512,1329.17 963.512,1324.67 944.5,1320C 939.045,1318.63 934.211,1316.13 930,1312.5C 928.818,1301.76 927.318,1291.1 925.5,1280.5C 927.021,1279.06 928.855,1278.4 931,1278.5C 940.727,1279.09 950.394,1279.75 960,1280.5C 972.785,1279.19 985.618,1279.19 998.5,1280.5C 1012.47,1279.7 1026.47,1279.2 1040.5,1279C 1042.71,1278.81 1044.71,1278.31 1046.5,1277.5 Z"/></g>
<g><path style="opacity:1" fill="#f4f3dd" d="M 368.5,1312.5 C 368.657,1313.87 368.49,1315.21 368,1316.5C 321.919,1357.37 301.252,1408.71 306,1470.5C 308.371,1483.57 313.704,1495.24 322,1505.5C 322.74,1506.75 322.573,1507.75 321.5,1508.5C 301.246,1487.31 290.913,1461.98 290.5,1432.5C 290.863,1408.71 296.697,1386.38 308,1365.5C 320.792,1343.36 336.626,1323.53 355.5,1306C 356.833,1305.33 358.167,1305.33 359.5,1306C 362.921,1307.7 365.921,1309.87 368.5,1312.5 Z"/></g>
<g><path style="opacity:1" fill="#8f4e32" d="M 368.5,1312.5 C 406.461,1337.45 441.461,1366.12 473.5,1398.5C 472.787,1400.78 472.287,1403.11 472,1405.5C 471.275,1406.06 470.442,1406.39 469.5,1406.5C 457.763,1399.7 445.429,1398.2 432.5,1402C 426.492,1410.28 427.826,1417.28 436.5,1423C 443.899,1425.2 450.899,1428.2 457.5,1432C 461.367,1435.66 462.534,1440.16 461,1445.5C 451.543,1458.74 444.543,1473.08 440,1488.5C 438.602,1497.8 438.268,1507.13 439,1516.5C 439.884,1519.66 441.05,1522.66 442.5,1525.5C 441.192,1533.55 439.192,1541.38 436.5,1549C 391.136,1555.05 352.802,1541.55 321.5,1508.5C 322.573,1507.75 322.74,1506.75 322,1505.5C 313.704,1495.24 308.371,1483.57 306,1470.5C 301.252,1408.71 321.919,1357.37 368,1316.5C 368.49,1315.21 368.657,1313.87 368.5,1312.5 Z"/></g>
<g><path style="opacity:1" fill="#8f4d31" d="M 1293.5,1303.5 C 1295.53,1303.34 1297.53,1303.5 1299.5,1304C 1328.11,1327.4 1349.28,1356.24 1363,1390.5C 1376.34,1428.44 1373.67,1465.11 1355,1500.5C 1336.3,1530.86 1309.8,1551.02 1275.5,1561C 1256.87,1562.27 1238.2,1563.1 1219.5,1563.5C 1214.1,1563.55 1208.77,1563.05 1203.5,1562C 1190.64,1557.84 1180.81,1550 1174,1538.5C 1172.99,1536.98 1172.49,1535.31 1172.5,1533.5C 1181.63,1533.96 1189.96,1531.8 1197.5,1527C 1206.43,1519.69 1208.6,1510.86 1204,1500.5C 1199.82,1497.22 1195.32,1496.72 1190.5,1499C 1187.17,1502 1183.83,1505 1180.5,1508C 1175.17,1508.67 1169.83,1508.67 1164.5,1508C 1158.81,1505.79 1155.64,1501.63 1155,1495.5C 1151.72,1472.45 1158.89,1453.28 1176.5,1438C 1185.67,1431.92 1195,1426.08 1204.5,1420.5C 1212.43,1413.32 1212.43,1406.15 1204.5,1399C 1199.8,1397.11 1195.3,1397.61 1191,1400.5C 1182.17,1397.82 1178.84,1392.15 1181,1383.5C 1212.4,1348.07 1249.9,1321.4 1293.5,1303.5 Z"/></g>
<g><path style="opacity:1" fill="#d8bf96" d="M 1067.5,1332.5 C 1068.5,1332.5 1069.5,1332.5 1070.5,1332.5C 1074.08,1347 1076.92,1361.67 1079,1376.5C 1083.91,1393.54 1077.74,1403.04 1060.5,1405C 1029.03,1410.14 997.368,1411.8 965.5,1410C 959.558,1409.08 953.891,1407.42 948.5,1405C 941.795,1397.08 937.628,1387.92 936,1377.5C 933.356,1363.96 931.856,1350.29 931.5,1336.5C 953.027,1342.64 974.693,1348.48 996.5,1354C 1007.5,1356.6 1018.16,1355.6 1028.5,1351C 1041.89,1345.3 1054.89,1339.13 1067.5,1332.5 Z"/></g>
<g><path style="opacity:1" fill="#d8bf96" d="M 523.5,1335.5 C 534.672,1340.18 545.672,1345.34 556.5,1351C 561.12,1352.49 565.786,1353.65 570.5,1354.5C 591.356,1349.99 611.69,1343.66 631.5,1335.5C 631.833,1336.17 632.167,1336.83 632.5,1337.5C 630.146,1353.92 627.312,1370.25 624,1386.5C 622.367,1394.6 618.534,1401.44 612.5,1407C 601.958,1409.08 591.291,1410.24 580.5,1410.5C 565.165,1409.36 549.831,1408.19 534.5,1407C 527.89,1406.29 521.557,1404.62 515.5,1402C 512.61,1398.72 510.943,1394.88 510.5,1390.5C 513.022,1371.68 517.355,1353.34 523.5,1335.5 Z"/></g>
<g><path style="opacity:1" fill="#dbb487" d="M 728.5,1416.5 C 759.502,1416.33 790.502,1416.5 821.5,1417C 826.631,1417.82 830.131,1420.65 832,1425.5C 832.845,1434.31 833.345,1443.15 833.5,1452C 833.375,1466.96 833.375,1481.96 833.5,1497C 833.093,1504.74 829.093,1509.41 821.5,1511C 797.586,1511.3 773.753,1511.46 750,1511.5C 740.271,1512.01 730.771,1510.84 721.5,1508C 718.865,1506.04 717.031,1503.54 716,1500.5C 715.333,1475.5 715.333,1450.5 716,1425.5C 718.215,1419.72 722.382,1416.72 728.5,1416.5 Z"/></g>
<g><path style="opacity:1" fill="#e2dcca" d="M 1140.5,1408.5 C 1144.85,1410.74 1149.52,1412.24 1154.5,1413C 1156.38,1414.1 1158.05,1415.44 1159.5,1417C 1156.32,1420.68 1153.32,1424.51 1150.5,1428.5C 1149.68,1429.39 1148.68,1429.72 1147.5,1429.5C 1144.9,1422.62 1142.57,1415.62 1140.5,1408.5 Z"/></g>
<g><path style="opacity:1" fill="#2a0f01" d="M 808.5,1435.5 C 809.794,1436.29 810.961,1437.29 812,1438.5C 812.667,1455.5 812.667,1472.5 812,1489.5C 811.167,1490.33 810.333,1491.17 809.5,1492C 789.814,1492.23 770.147,1492.73 750.5,1493.5C 751.609,1492.71 752.942,1492.21 754.5,1492C 772.5,1491.67 790.5,1491.33 808.5,1491C 785.502,1490.5 762.502,1490.33 739.5,1490.5C 738.454,1478.11 737.787,1465.77 737.5,1453.5C 737.818,1452.35 738.484,1451.52 739.5,1451C 738.978,1450.44 738.645,1449.77 738.5,1449C 739.102,1444.95 739.769,1440.95 740.5,1437C 763.337,1436.83 786.004,1436.33 808.5,1435.5 Z"/></g>
<g><path style="opacity:1" fill="#321608" d="M 751.5,1453.5 C 765.665,1453.73 779.665,1454.06 793.5,1454.5C 793.593,1460.86 793.26,1467.2 792.5,1473.5C 778.85,1473.45 765.35,1473.45 752,1473.5C 751.825,1470.18 751.992,1466.85 752.5,1463.5C 752.647,1460.75 751.98,1458.25 750.5,1456C 751.252,1455.33 751.586,1454.5 751.5,1453.5 Z"/></g>
<g><path style="opacity:1" fill="#dabc8d" d="M 495.5,1470.5 C 495.062,1470.43 494.728,1470.6 494.5,1471C 496.992,1472.25 496.825,1473.42 494,1474.5C 490.604,1481.6 487.604,1488.93 485,1496.5C 484.435,1503.89 483.435,1511.23 482,1518.5C 481.016,1516.11 480.516,1513.61 480.5,1511C 483.213,1504.43 484.38,1497.6 484,1490.5C 483.147,1492.12 482.147,1492.46 481,1491.5C 480.667,1492.5 480.333,1493.5 480,1494.5C 477.008,1493.11 474.175,1491.45 471.5,1489.5C 470.232,1491.3 469.565,1493.3 469.5,1495.5C 472.084,1495.57 474.084,1496.74 475.5,1499C 473.315,1500.93 471.649,1500.43 470.5,1497.5C 469.264,1496.75 467.93,1496.42 466.5,1496.5C 466.572,1499.19 466.905,1501.86 467.5,1504.5C 469.286,1506.82 470.453,1509.49 471,1512.5C 474.81,1515.3 478.643,1518.14 482.5,1521C 481.552,1521.48 480.552,1521.65 479.5,1521.5C 467.686,1515.97 463.186,1506.64 466,1493.5C 468.122,1484.4 471.622,1475.9 476.5,1468C 483.211,1466.1 489.545,1466.93 495.5,1470.5 Z"/></g>
<g><path style="opacity:1" fill="#d9bf96" d="M 495.5,1470.5 C 529.24,1476.49 563.24,1480.65 597.5,1483C 595.872,1495.68 592.705,1508.18 588,1520.5C 582.22,1529.31 574.054,1534.48 563.5,1536C 541.08,1537.61 519.08,1535.28 497.5,1529C 491.144,1527.09 485.144,1524.59 479.5,1521.5C 480.552,1521.65 481.552,1521.48 482.5,1521C 478.643,1518.14 474.81,1515.3 471,1512.5C 470.453,1509.49 469.286,1506.82 467.5,1504.5C 466.905,1501.86 466.572,1499.19 466.5,1496.5C 467.93,1496.42 469.264,1496.75 470.5,1497.5C 471.649,1500.43 473.315,1500.93 475.5,1499C 474.084,1496.74 472.084,1495.57 469.5,1495.5C 469.565,1493.3 470.232,1491.3 471.5,1489.5C 474.175,1491.45 477.008,1493.11 480,1494.5C 480.333,1493.5 480.667,1492.5 481,1491.5C 482.147,1492.46 483.147,1492.12 484,1490.5C 484.38,1497.6 483.213,1504.43 480.5,1511C 480.516,1513.61 481.016,1516.11 482,1518.5C 483.435,1511.23 484.435,1503.89 485,1496.5C 487.604,1488.93 490.604,1481.6 494,1474.5C 496.825,1473.42 496.992,1472.25 494.5,1471C 494.728,1470.6 495.062,1470.43 495.5,1470.5 Z"/></g>
<g><path style="opacity:1" fill="#d9bf96" d="M 1100.5,1469.5 C 1103.93,1469.11 1107.1,1469.77 1110,1471.5C 1115.06,1482.4 1118.89,1493.73 1121.5,1505.5C 1119.75,1512.16 1115.75,1517 1109.5,1520C 1090.34,1528.37 1070.34,1533.7 1049.5,1536C 1032.17,1536.67 1014.83,1536.67 997.5,1536C 987.545,1535.05 980.712,1529.89 977,1520.5C 972.306,1509.58 969.139,1498.25 967.5,1486.5C 996.456,1483.07 1025.46,1479.9 1054.5,1477C 1070.13,1475.45 1085.46,1472.95 1100.5,1469.5 Z"/></g>
<g><path style="opacity:1" fill="#241109" d="M 808.5,1435.5 C 786.004,1436.33 763.337,1436.83 740.5,1437C 739.769,1440.95 739.102,1444.95 738.5,1449C 738.645,1449.77 738.978,1450.44 739.5,1451C 738.484,1451.52 737.818,1452.35 737.5,1453.5C 737.787,1465.77 738.454,1478.11 739.5,1490.5C 762.502,1490.33 785.502,1490.5 808.5,1491C 790.5,1491.33 772.5,1491.67 754.5,1492C 752.942,1492.21 751.609,1492.71 750.5,1493.5C 747.15,1493.67 743.817,1493.5 740.5,1493C 738.667,1492.5 737.5,1491.33 737,1489.5C 736.028,1471.74 736.361,1454.08 738,1436.5C 738.5,1436 739,1435.5 739.5,1435C 762.67,1434.17 785.67,1434.34 808.5,1435.5 Z"/></g>
<g><path style="opacity:1" fill="#ba8f5e" d="M 679.5,1506.5 C 683.514,1506.33 687.514,1506.5 691.5,1507C 696.903,1522.73 707.903,1531.4 724.5,1533C 731.823,1533.72 739.156,1534.22 746.5,1534.5C 747.432,1561.83 752.099,1588.49 760.5,1614.5C 743.576,1611.69 726.743,1608.36 710,1604.5C 701.849,1605.11 698.849,1609.44 701,1617.5C 704.666,1622.48 709.499,1625.98 715.5,1628C 731.174,1632.84 747.174,1636.17 763.5,1638C 765.044,1638.29 766.377,1638.96 767.5,1640C 764.834,1656.33 762.167,1672.66 759.5,1689C 708.302,1692.25 656.969,1692.25 605.5,1689C 561.208,1685.04 517.208,1679.04 473.5,1671C 471.481,1670.55 469.648,1669.72 468,1668.5C 467.918,1662.04 468.584,1655.71 470,1649.5C 523.7,1663.24 578.2,1667.74 633.5,1663C 639.844,1661.58 644.677,1658.08 648,1652.5C 653.057,1642.33 656.724,1631.66 659,1620.5C 665.701,1582.41 672.535,1544.41 679.5,1506.5 Z"/></g>
<g><path style="opacity:1" fill="#ba8f5e" d="M 855.5,1506.5 C 861.162,1506.97 866.829,1507.47 872.5,1508C 874.727,1508.12 876.56,1508.95 878,1510.5C 885.392,1547.46 894.059,1584.13 904,1620.5C 907.166,1630.5 911.166,1640.17 916,1649.5C 925.22,1662.03 937.72,1667.87 953.5,1667C 987.534,1668.75 1021.53,1668.09 1055.5,1665C 1082.62,1661.9 1109.62,1658.07 1136.5,1653.5C 1136.58,1654.93 1136.25,1656.26 1135.5,1657.5C 1137.83,1663.84 1139.16,1670.18 1139.5,1676.5C 1129.63,1679.24 1119.63,1681.41 1109.5,1683C 1070.26,1688.06 1030.93,1692.06 991.5,1695C 943.738,1696.53 896.072,1695.36 848.5,1691.5C 845.601,1674.01 841.935,1656.67 837.5,1639.5C 841.996,1637.61 846.662,1635.77 851.5,1634C 857.134,1629.31 857.968,1623.81 854,1617.5C 853.25,1616.87 852.416,1616.37 851.5,1616C 848.833,1615.83 846.167,1615.67 843.5,1615.5C 822.856,1617.63 802.19,1617.97 781.5,1616.5C 771.941,1590.04 766.608,1562.71 765.5,1534.5C 787.184,1534.72 808.851,1534.22 830.5,1533C 845.57,1530.43 853.904,1521.6 855.5,1506.5 Z"/></g>
<g><path style="opacity:1" fill="#d8bf96" d="M 1122.5,1539.5 C 1124.78,1539.76 1125.94,1541.09 1126,1543.5C 1129.14,1555.71 1131.8,1568.05 1134,1580.5C 1134.99,1588.03 1132.49,1594.19 1126.5,1599C 1115.39,1604.36 1103.72,1608.03 1091.5,1610C 1063.02,1614.8 1034.35,1616.46 1005.5,1615C 999.134,1613.64 994.968,1609.8 993,1603.5C 988.075,1588.14 984.575,1572.47 982.5,1556.5C 1023.73,1562.11 1064.39,1559.28 1104.5,1548C 1110.71,1545.39 1116.71,1542.56 1122.5,1539.5 Z"/></g>
<g><path style="opacity:1" fill="#daae62" d="M 470.5,1545.5 C 473.545,1551.08 472.712,1551.75 468,1547.5C 466.361,1555.04 464.194,1562.37 461.5,1569.5C 462.399,1560.67 464.065,1552.01 466.5,1543.5C 467.622,1544.63 468.956,1545.3 470.5,1545.5 Z"/></g>
<g><path style="opacity:1" fill="#d8bf96" d="M 470.5,1545.5 C 485.474,1551.99 501.141,1556.16 517.5,1558C 538.368,1561.59 559.035,1561.25 579.5,1557C 578.142,1573.61 574.975,1590.11 570,1606.5C 564.62,1613.76 557.286,1617.42 548,1617.5C 520.412,1617.32 493.579,1612.48 467.5,1603C 458.729,1598.89 455.229,1592.06 457,1582.5C 458.365,1578 459.865,1573.66 461.5,1569.5C 464.194,1562.37 466.361,1555.04 468,1547.5C 472.712,1551.75 473.545,1551.08 470.5,1545.5 Z"/></g>
<g><path style="opacity:1" fill="#cfb68e" d="M 1016.5,1642.5 C 1016.83,1641.83 1017.17,1641.17 1017.5,1640.5C 1057.71,1640.85 1097.04,1635.35 1135.5,1624C 1147.39,1618.1 1154.89,1608.6 1158,1595.5C 1158.17,1589.47 1158.67,1583.47 1159.5,1577.5C 1164.27,1589.9 1168.44,1602.57 1172,1615.5C 1172.67,1617.17 1172.67,1618.83 1172,1620.5C 1160.09,1623.68 1147.92,1626.18 1135.5,1628C 1096.33,1638.13 1056.66,1642.96 1016.5,1642.5 Z"/></g>
<g><path style="opacity:1" fill="#b19877" d="M 543.5,1642.5 C 567.833,1642.5 592.167,1642.5 616.5,1642.5C 607.666,1643.32 598.666,1643.98 589.5,1644.5C 574.006,1643.91 558.673,1643.25 543.5,1642.5 Z"/></g>
<g><path style="opacity:1" fill="#8e4d31" d="M 1098.5,1712.5 C 1101.77,1712.43 1103.27,1714.1 1103,1717.5C 1103.7,1725.52 1105.2,1733.35 1107.5,1741C 1107.09,1741.95 1106.43,1742.61 1105.5,1743C 1041.64,1755.67 977.304,1759 912.5,1753C 910.607,1743.15 908.607,1733.32 906.5,1723.5C 962.305,1724.97 1017.97,1722.8 1073.5,1717C 1081.97,1715.72 1090.31,1714.22 1098.5,1712.5 Z"/></g>
<g><path style="opacity:1" fill="#8d4d31" d="M 523.5,1709.5 C 583.632,1718.1 643.965,1721.76 704.5,1720.5C 703.894,1731.18 703.227,1741.84 702.5,1752.5C 647.904,1756.35 593.57,1754.18 539.5,1746C 533.674,1744.63 528.007,1742.79 522.5,1740.5C 521.738,1730.15 522.072,1719.82 523.5,1709.5 Z"/></g>
<g><path style="opacity:1" fill="#f2eede" d="M 1117.5,1765.5 C 1119.86,1765.34 1122.19,1765.5 1124.5,1766C 1125.67,1766.5 1126.5,1767.33 1127,1768.5C 1128.01,1774.49 1128.84,1780.49 1129.5,1786.5C 1129.29,1787.09 1128.96,1787.59 1128.5,1788C 1089.81,1789.06 1051.14,1790.73 1012.5,1793C 1006.93,1794.75 1001.6,1797.08 996.5,1800C 993.077,1803.52 990.41,1807.52 988.5,1812C 963.027,1813.37 937.694,1812.2 912.5,1808.5C 908.779,1798.57 906.446,1788.24 905.5,1777.5C 942.391,1781.93 979.391,1782.76 1016.5,1780C 1041.22,1777.83 1065.89,1775.16 1090.5,1772C 1099.66,1769.91 1108.66,1767.75 1117.5,1765.5 Z"/></g>
<g><path style="opacity:1" fill="#f2efde" d="M 494.5,1766.5 C 547.073,1777.22 600.24,1782.55 654,1782.5C 673.917,1782.22 693.75,1780.89 713.5,1778.5C 712.554,1789.24 710.221,1799.57 706.5,1809.5C 681.303,1813.15 655.969,1814.32 630.5,1813C 628.59,1808.52 625.923,1804.52 622.5,1801C 618.455,1798.43 614.122,1796.43 609.5,1795C 569.879,1792.18 530.213,1790.18 490.5,1789C 490.043,1788.59 489.709,1788.09 489.5,1787.5C 490.279,1782.89 490.779,1778.22 491,1773.5C 491.139,1770.55 492.306,1768.22 494.5,1766.5 Z"/></g>
<g><path style="opacity:1" fill="#7b4931" d="M 1143.5,1852.5 C 1126.86,1855.5 1110.19,1858.5 1093.5,1861.5C 1082.25,1862.74 1071.25,1864.74 1060.5,1867.5C 1048.27,1869.42 1035.94,1871.25 1023.5,1873C 1012.15,1873.36 1000.81,1874.03 989.5,1875C 968.428,1876.12 947.428,1875.46 926.5,1873C 925.299,1872.1 924.465,1870.93 924,1869.5C 921.022,1854.78 917.856,1840.11 914.5,1825.5C 938.844,1825.53 963.177,1825.03 987.5,1824C 990.753,1822.96 994.086,1822.3 997.5,1822C 1044.11,1817.95 1090.77,1815.28 1137.5,1814C 1138.42,1814.37 1139.25,1814.87 1140,1815.5C 1140.66,1826.63 1142.16,1837.63 1144.5,1848.5C 1144.38,1849.92 1144.04,1851.26 1143.5,1852.5 Z"/></g>
<g><path style="opacity:1" fill="#f4f4dd" d="M 487.5,1814.5 C 487.396,1827.15 486.229,1839.81 484,1852.5C 483.283,1853.04 482.783,1853.71 482.5,1854.5C 481.5,1854.5 480.5,1854.5 479.5,1854.5C 478.122,1853.77 476.622,1853.1 475,1852.5C 474.674,1842.78 475.34,1833.12 477,1823.5C 477.674,1816.98 481.174,1813.98 487.5,1814.5 Z"/></g>
<g><path style="opacity:1" fill="#7b4931" d="M 487.5,1814.5 C 522.506,1816.47 557.506,1818.64 592.5,1821C 629.697,1825.29 667.03,1827.12 704.5,1826.5C 701.144,1841.11 697.978,1855.78 695,1870.5C 694.535,1871.93 693.701,1873.1 692.5,1874C 653.736,1877.65 615.069,1876.81 576.5,1871.5C 568.345,1869.29 560.012,1868.13 551.5,1868C 548.352,1866.4 545.019,1865.4 541.5,1865C 533.813,1864.15 526.146,1863.15 518.5,1862C 506.358,1859.66 494.358,1857.16 482.5,1854.5C 482.783,1853.71 483.283,1853.04 484,1852.5C 486.229,1839.81 487.396,1827.15 487.5,1814.5 Z"/></g>
<g><path style="opacity:1" fill="#140306" d="M 1210.5,1849.5 C 1229.64,1850.27 1247.31,1855.77 1263.5,1866C 1271.37,1874.89 1277.87,1884.72 1283,1895.5C 1283.98,1897.74 1284.48,1900.07 1284.5,1902.5C 1284.41,1905.15 1285.08,1907.49 1286.5,1909.5C 1287.16,1911.13 1287.49,1912.97 1287.5,1915C 1286.92,1923.86 1286.26,1932.69 1285.5,1941.5C 1284.66,1941.84 1284.33,1942.51 1284.5,1943.5C 1282.03,1946.8 1279.03,1949.64 1275.5,1952C 1275.83,1953.5 1275.83,1954.84 1275.5,1956C 1273.75,1957.55 1272.08,1958.38 1270.5,1958.5C 1272.17,1959.17 1273.83,1959.83 1275.5,1960.5C 1274.81,1962.34 1275.14,1964.17 1276.5,1966C 1274.61,1965.58 1272.61,1965.74 1270.5,1966.5C 1270.66,1967.87 1270.49,1969.21 1270,1970.5C 1268.95,1969.48 1267.78,1969.32 1266.5,1970C 1267.71,1970.89 1267.71,1971.73 1266.5,1972.5C 1265.78,1970.52 1264.62,1968.85 1263,1967.5C 1262.5,1968 1262,1968.5 1261.5,1969C 1264.3,1971.22 1264.14,1973.06 1261,1974.5C 1258.84,1972.04 1256.84,1972.04 1255,1974.5C 1253.2,1973.23 1251.37,1973.23 1249.5,1974.5C 1247.7,1972.41 1245.36,1971.24 1242.5,1971C 1241.25,1969.54 1241.25,1968.04 1242.5,1966.5C 1239.97,1965.48 1239.97,1964.32 1242.5,1963C 1244.76,1962.36 1246.93,1961.52 1249,1960.5C 1250,1961.83 1251,1963.17 1252,1964.5C 1252.32,1962.7 1252.98,1962.37 1254,1963.5C 1255.65,1962.28 1257.48,1961.45 1259.5,1961C 1257.83,1960.67 1256.17,1960.33 1254.5,1960C 1257.75,1959.75 1260.75,1958.75 1263.5,1957C 1262.83,1956.33 1262.17,1955.67 1261.5,1955C 1262.53,1951.25 1264.53,1948.25 1267.5,1946C 1266.61,1944.6 1265.94,1943.1 1265.5,1941.5C 1266.6,1938.03 1267.6,1934.53 1268.5,1931C 1268.07,1929.07 1267.4,1927.24 1266.5,1925.5C 1266.01,1921.9 1266.68,1918.4 1268.5,1915C 1266.89,1912.68 1265.55,1910.18 1264.5,1907.5C 1263.81,1908.03 1263.31,1908.69 1263,1909.5C 1262.46,1907.87 1262.96,1906.53 1264.5,1905.5C 1263.65,1904.16 1262.49,1903.16 1261,1902.5C 1260.1,1898.76 1258.93,1895.09 1257.5,1891.5C 1253.44,1889.82 1251.11,1887.15 1250.5,1883.5C 1249.26,1882.75 1247.93,1882.42 1246.5,1882.5C 1244.6,1880.23 1243.27,1878.06 1242.5,1876C 1240.83,1875.67 1239.17,1875.33 1237.5,1875C 1237.83,1874.67 1238.17,1874.33 1238.5,1874C 1237.42,1873.04 1236.25,1872.21 1235,1871.5C 1232.24,1871.31 1229.4,1871.31 1226.5,1871.5C 1225.41,1870.27 1224.08,1869.44 1222.5,1869C 1219.24,1868.79 1216.08,1868.29 1213,1867.5C 1211.94,1868.1 1210.77,1868.43 1209.5,1868.5C 1192.48,1867.9 1175.48,1866.9 1158.5,1865.5C 1152.88,1866.5 1146.55,1868.17 1139.5,1870.5C 1137.4,1868.93 1135.74,1869.27 1134.5,1871.5C 1130.19,1871.54 1126.02,1871.21 1122,1870.5C 1119.42,1872.25 1116.59,1873.25 1113.5,1873.5C 1112.07,1873.58 1110.74,1873.25 1109.5,1872.5C 1106.5,1874.94 1103.33,1876.27 1100,1876.5C 1096.45,1875.6 1092.78,1875.6 1089,1876.5C 1086.27,1874.52 1083.61,1872.86 1081,1871.5C 1077.17,1873.33 1074.34,1872.33 1072.5,1868.5C 1075.61,1867.02 1078.44,1867.35 1081,1869.5C 1081.66,1867.89 1081.16,1866.73 1079.5,1866C 1080,1865.5 1080.5,1865 1081,1864.5C 1082.63,1865.01 1084.46,1865.01 1086.5,1864.5C 1089.26,1864.24 1091.59,1863.24 1093.5,1861.5C 1110.19,1858.5 1126.86,1855.5 1143.5,1852.5C 1144.62,1856.87 1147.29,1860.04 1151.5,1862C 1161.52,1863.15 1166.18,1858.65 1165.5,1848.5C 1180.51,1848.41 1195.51,1848.74 1210.5,1849.5 Z"/></g>
<g><path style="opacity:1" fill="#220605" d="M 1246.5,1882.5 C 1245.59,1883.7 1245.59,1885.04 1246.5,1886.5C 1239.89,1881.85 1232.89,1877.69 1225.5,1874C 1213.41,1871.84 1201.24,1870.34 1189,1869.5C 1145.38,1871.48 1102.55,1878.32 1060.5,1890C 1057.85,1890.5 1055.19,1890.66 1052.5,1890.5C 1055.97,1889.01 1059.47,1887.35 1063,1885.5C 1063.41,1885.96 1063.91,1886.29 1064.5,1886.5C 1066.32,1885.25 1068.32,1884.59 1070.5,1884.5C 1070.63,1881.1 1071.63,1880.77 1073.5,1883.5C 1074.91,1882.38 1076.41,1881.38 1078,1880.5C 1078.33,1880.83 1078.67,1881.17 1079,1881.5C 1089.29,1878.65 1099.79,1876.82 1110.5,1876C 1111.57,1875.15 1112.57,1874.31 1113.5,1873.5C 1116.59,1873.25 1119.42,1872.25 1122,1870.5C 1126.02,1871.21 1130.19,1871.54 1134.5,1871.5C 1135.74,1869.27 1137.4,1868.93 1139.5,1870.5C 1146.55,1868.17 1152.88,1866.5 1158.5,1865.5C 1175.48,1866.9 1192.48,1867.9 1209.5,1868.5C 1210.77,1868.43 1211.94,1868.1 1213,1867.5C 1216.08,1868.29 1219.24,1868.79 1222.5,1869C 1224.08,1869.44 1225.41,1870.27 1226.5,1871.5C 1229.4,1871.31 1232.24,1871.31 1235,1871.5C 1236.25,1872.21 1237.42,1873.04 1238.5,1874C 1238.17,1874.33 1237.83,1874.67 1237.5,1875C 1239.17,1875.33 1240.83,1875.67 1242.5,1876C 1243.27,1878.06 1244.6,1880.23 1246.5,1882.5 Z"/></g>
<g><path style="opacity:1" fill="#6a6462" d="M 358.5,1865.5 C 356.058,1868.73 353.392,1871.73 350.5,1874.5C 352.022,1870.44 354.689,1867.44 358.5,1865.5 Z"/></g>
<g><path style="opacity:1" fill="#7b4931" d="M 1246.5,1886.5 C 1252.07,1893.29 1256.9,1900.62 1261,1908.5C 1261.5,1912.49 1261.67,1916.49 1261.5,1920.5C 1259.44,1922.93 1257.61,1925.59 1256,1928.5C 1253.11,1931.36 1249.94,1933.86 1246.5,1936C 1235.13,1940.17 1223.46,1943.01 1211.5,1944.5C 1176.24,1947.72 1140.91,1949.72 1105.5,1950.5C 1055.89,1947.63 1006.22,1945.47 956.5,1944C 950.176,1943.03 943.843,1942.19 937.5,1941.5C 936.157,1930.62 933.657,1919.96 930,1909.5C 929.333,1906.17 929.333,1902.83 930,1899.5C 930.383,1898.94 930.883,1898.61 931.5,1898.5C 943.171,1898.67 954.838,1898.5 966.5,1898C 985.928,1895.73 1005.26,1894.23 1024.5,1893.5C 1033.97,1893.2 1043.3,1892.2 1052.5,1890.5C 1055.19,1890.66 1057.85,1890.5 1060.5,1890C 1102.55,1878.32 1145.38,1871.48 1189,1869.5C 1201.24,1870.34 1213.41,1871.84 1225.5,1874C 1232.89,1877.69 1239.89,1881.85 1246.5,1886.5 Z"/></g>
<g><path style="opacity:1" fill="#160105" d="M 1093.5,1861.5 C 1091.59,1863.24 1089.26,1864.24 1086.5,1864.5C 1084.46,1865.01 1082.63,1865.01 1081,1864.5C 1080.5,1865 1080,1865.5 1079.5,1866C 1081.16,1866.73 1081.66,1867.89 1081,1869.5C 1078.44,1867.35 1075.61,1867.02 1072.5,1868.5C 1074.34,1872.33 1077.17,1873.33 1081,1871.5C 1083.61,1872.86 1086.27,1874.52 1089,1876.5C 1092.78,1875.6 1096.45,1875.6 1100,1876.5C 1103.33,1876.27 1106.5,1874.94 1109.5,1872.5C 1110.74,1873.25 1112.07,1873.58 1113.5,1873.5C 1112.57,1874.31 1111.57,1875.15 1110.5,1876C 1099.79,1876.82 1089.29,1878.65 1079,1881.5C 1078.67,1881.17 1078.33,1880.83 1078,1880.5C 1076.41,1881.38 1074.91,1882.38 1073.5,1883.5C 1071.63,1880.77 1070.63,1881.1 1070.5,1884.5C 1068.32,1884.59 1066.32,1885.25 1064.5,1886.5C 1063.91,1886.29 1063.41,1885.96 1063,1885.5C 1059.47,1887.35 1055.97,1889.01 1052.5,1890.5C 1043.3,1892.2 1033.97,1893.2 1024.5,1893.5C 1004.69,1893.36 985.027,1894.03 965.5,1895.5C 956.744,1895.07 948.077,1894.07 939.5,1892.5C 937.167,1893.67 934.833,1894.83 932.5,1896C 931.748,1896.67 931.414,1897.5 931.5,1898.5C 930.883,1898.61 930.383,1898.94 930,1899.5C 929.333,1902.83 929.333,1906.17 930,1909.5C 933.657,1919.96 936.157,1930.62 937.5,1941.5C 936.855,1944.55 937.855,1946.71 940.5,1948C 962.539,1948.57 984.539,1949.74 1006.5,1951.5C 1008.28,1952.6 1010.28,1953.43 1012.5,1954C 1024.4,1954.14 1036.07,1955.3 1047.5,1957.5C 1051.62,1956.86 1055.78,1956.53 1060,1956.5C 1103.4,1957.86 1146.73,1959.19 1190,1960.5C 1207.26,1959.16 1224.43,1957.82 1241.5,1956.5C 1247.43,1955.93 1253.26,1954.93 1259,1953.5C 1261.25,1942.63 1262.08,1931.63 1261.5,1920.5C 1261.67,1916.49 1261.5,1912.49 1261,1908.5C 1256.9,1900.62 1252.07,1893.29 1246.5,1886.5C 1245.59,1885.04 1245.59,1883.7 1246.5,1882.5C 1247.93,1882.42 1249.26,1882.75 1250.5,1883.5C 1251.11,1887.15 1253.44,1889.82 1257.5,1891.5C 1258.93,1895.09 1260.1,1898.76 1261,1902.5C 1262.49,1903.16 1263.65,1904.16 1264.5,1905.5C 1262.96,1906.53 1262.46,1907.87 1263,1909.5C 1263.31,1908.69 1263.81,1908.03 1264.5,1907.5C 1265.55,1910.18 1266.89,1912.68 1268.5,1915C 1266.68,1918.4 1266.01,1921.9 1266.5,1925.5C 1267.4,1927.24 1268.07,1929.07 1268.5,1931C 1267.6,1934.53 1266.6,1938.03 1265.5,1941.5C 1265.94,1943.1 1266.61,1944.6 1267.5,1946C 1264.53,1948.25 1262.53,1951.25 1261.5,1955C 1262.17,1955.67 1262.83,1956.33 1263.5,1957C 1260.75,1958.75 1257.75,1959.75 1254.5,1960C 1256.17,1960.33 1257.83,1960.67 1259.5,1961C 1257.48,1961.45 1255.65,1962.28 1254,1963.5C 1252.98,1962.37 1252.32,1962.7 1252,1964.5C 1251,1963.17 1250,1961.83 1249,1960.5C 1246.93,1961.52 1244.76,1962.36 1242.5,1963C 1239.97,1964.32 1239.97,1965.48 1242.5,1966.5C 1241.25,1968.04 1241.25,1969.54 1242.5,1971C 1245.36,1971.24 1247.7,1972.41 1249.5,1974.5C 1251.37,1973.23 1253.2,1973.23 1255,1974.5C 1256.84,1972.04 1258.84,1972.04 1261,1974.5C 1264.14,1973.06 1264.3,1971.22 1261.5,1969C 1262,1968.5 1262.5,1968 1263,1967.5C 1264.62,1968.85 1265.78,1970.52 1266.5,1972.5C 1267.71,1971.73 1267.71,1970.89 1266.5,1970C 1267.78,1969.32 1268.95,1969.48 1270,1970.5C 1270.49,1969.21 1270.66,1967.87 1270.5,1966.5C 1272.61,1965.74 1274.61,1965.58 1276.5,1966C 1275.14,1964.17 1274.81,1962.34 1275.5,1960.5C 1273.83,1959.83 1272.17,1959.17 1270.5,1958.5C 1272.08,1958.38 1273.75,1957.55 1275.5,1956C 1275.83,1954.84 1275.83,1953.5 1275.5,1952C 1279.03,1949.64 1282.03,1946.8 1284.5,1943.5C 1283.87,1949.14 1283.53,1954.81 1283.5,1960.5C 1282.48,1966.19 1279.48,1970.52 1274.5,1973.5C 1272.47,1973.34 1270.47,1973.5 1268.5,1974C 1269.63,1975.02 1269.3,1975.68 1267.5,1976C 1259.65,1978.15 1251.65,1979.31 1243.5,1979.5C 1237.92,1979.5 1232.59,1979.17 1227.5,1978.5C 1227.17,1979.17 1226.83,1979.83 1226.5,1980.5C 1224.13,1977.99 1221.8,1977.99 1219.5,1980.5C 1218.17,1977.83 1216.83,1977.83 1215.5,1980.5C 1213.58,1977.1 1211.25,1976.77 1208.5,1979.5C 1204.69,1976.67 1200.36,1975.84 1195.5,1977C 1194.09,1979.45 1192.09,1980.45 1189.5,1980C 1192,1979.17 1192.17,1978 1190,1976.5C 1188.33,1977.68 1186.83,1979.01 1185.5,1980.5C 1184.9,1979.28 1184.74,1977.95 1185,1976.5C 1182.81,1978.28 1181.98,1980.28 1182.5,1982.5C 1181.61,1981.68 1181.28,1980.68 1181.5,1979.5C 1175.92,1979.98 1170.76,1980.98 1166,1982.5C 1160.12,1981.66 1154.12,1981.66 1148,1982.5C 1144,1981.83 1140,1981.17 1136,1980.5C 1129.85,1981.21 1123.69,1981.88 1117.5,1982.5C 1114.96,1981.96 1112.63,1980.96 1110.5,1979.5C 1109.45,1979.68 1108.45,1980.01 1107.5,1980.5C 1103.43,1979.03 1099.27,1978.03 1095,1977.5C 1093.26,1979.63 1091.09,1980.46 1088.5,1980C 1089.5,1979.67 1090.5,1979.33 1091.5,1979C 1073.77,1975.72 1056.27,1973.56 1039,1972.5C 1038.17,1972.83 1037.33,1973.17 1036.5,1973.5C 1037.83,1974.17 1039.17,1974.83 1040.5,1975.5C 1038.21,1975.03 1036.04,1975.69 1034,1977.5C 1030.99,1977.38 1027.82,1977.21 1024.5,1977C 1022.83,1976.17 1021.17,1975.33 1019.5,1974.5C 1019.51,1975.44 1019.01,1976.11 1018,1976.5C 1017,1975.83 1016,1975.17 1015,1974.5C 1013.44,1975.85 1011.61,1976.51 1009.5,1976.5C 1007.16,1975.19 1004.82,1975.19 1002.5,1976.5C 994.414,1976.33 986.414,1975.49 978.5,1974C 969.84,1973.5 961.173,1973.33 952.5,1973.5C 952.167,1973.5 951.833,1973.5 951.5,1973.5C 942.807,1971.01 933.807,1969.68 924.5,1969.5C 918.453,1966.43 915.119,1961.43 914.5,1954.5C 914.235,1950.15 913.735,1945.81 913,1941.5C 912.722,1940.58 912.222,1939.92 911.5,1939.5C 911.5,1939.17 911.5,1938.83 911.5,1938.5C 911.165,1933.82 910.665,1929.16 910,1924.5C 909.722,1923.58 909.222,1922.92 908.5,1922.5C 907.173,1915.89 906.173,1909.22 905.5,1902.5C 906.662,1904.99 907.996,1907.49 909.5,1910C 911.639,1911.4 913.972,1912.24 916.5,1912.5C 925.092,1910.43 928.092,1905.1 925.5,1896.5C 927.029,1892.35 928.029,1888.01 928.5,1883.5C 942.925,1885.8 957.425,1887.47 972,1888.5C 973.622,1888.05 974.788,1887.05 975.5,1885.5C 986.819,1884.67 998.152,1884.17 1009.5,1884C 1013.83,1882.67 1018.16,1881.34 1022.5,1880C 1030.2,1879.71 1037.87,1879.04 1045.5,1878C 1046.42,1875.96 1046.76,1873.79 1046.5,1871.5C 1051.31,1870.34 1055.97,1869 1060.5,1867.5C 1071.25,1864.74 1082.25,1862.74 1093.5,1861.5 Z"/></g>
<g><path style="opacity:1" fill="#150205" d="M 417.5,1849.5 C 429.5,1849.5 441.5,1849.5 453.5,1849.5C 452.141,1855.54 454.141,1860.04 459.5,1863C 467.338,1864.76 472.338,1861.92 474.5,1854.5C 476.167,1854.5 477.833,1854.5 479.5,1854.5C 480.5,1854.5 481.5,1854.5 482.5,1854.5C 494.358,1857.16 506.358,1859.66 518.5,1862C 526.146,1863.15 533.813,1864.15 541.5,1865C 545.019,1865.4 548.352,1866.4 551.5,1868C 560.012,1868.13 568.345,1869.29 576.5,1871.5C 576.611,1872.12 576.944,1872.62 577.5,1873C 572.864,1872.95 571.531,1874.95 573.5,1879C 582.151,1880 590.818,1880.83 599.5,1881.5C 602.508,1883.5 605.841,1884.67 609.5,1885C 620.848,1885.17 632.181,1885.67 643.5,1886.5C 644.212,1888.05 645.378,1889.05 647,1889.5C 661.575,1888.47 676.075,1886.8 690.5,1884.5C 690.971,1889.01 691.971,1893.35 693.5,1897.5C 691.489,1903.29 692.823,1908.12 697.5,1912C 705.796,1914.69 711.129,1911.85 713.5,1903.5C 713.149,1907.68 712.482,1911.68 711.5,1915.5C 710.223,1916.69 709.556,1918.36 709.5,1920.5C 708.75,1926.83 708.083,1933.17 707.5,1939.5C 707.046,1948.6 704.879,1957.27 701,1965.5C 696.093,1971.03 689.926,1973.37 682.5,1972.5C 669.848,1973.62 657.181,1974.62 644.5,1975.5C 639.499,1975.75 634.499,1976.08 629.5,1976.5C 626.117,1976.64 623.283,1975.64 621,1973.5C 620.517,1974.45 620.351,1975.45 620.5,1976.5C 618.396,1976.8 616.396,1976.47 614.5,1975.5C 615.855,1974.32 615.688,1973.32 614,1972.5C 613.221,1973.73 612.221,1974.73 611,1975.5C 609.268,1973.79 607.435,1973.13 605.5,1973.5C 600.7,1975.32 595.867,1976.99 591,1978.5C 588.841,1977.88 586.841,1977.88 585,1978.5C 583.346,1976.74 581.513,1976.4 579.5,1977.5C 579.167,1977.17 578.833,1976.83 578.5,1976.5C 579.833,1975.83 581.167,1975.17 582.5,1974.5C 581.667,1974.17 580.833,1973.83 580,1973.5C 562.728,1974.56 545.228,1976.72 527.5,1980C 528.5,1980.33 529.5,1980.67 530.5,1981C 527.909,1981.46 525.743,1980.63 524,1978.5C 514.413,1980.94 504.913,1981.6 495.5,1980.5C 494.167,1980.67 492.833,1980.83 491.5,1981C 492.706,1982.02 492.373,1982.52 490.5,1982.5C 488.049,1982.38 485.549,1982.04 483,1981.5C 479,1982.17 475,1982.83 471,1983.5C 464.883,1982.66 458.883,1982.66 453,1983.5C 448.245,1981.98 443.078,1980.98 437.5,1980.5C 437.719,1981.68 437.386,1982.68 436.5,1983.5C 437.023,1981.28 436.19,1979.28 434,1977.5C 434.263,1978.95 434.096,1980.28 433.5,1981.5C 432.174,1980.01 430.674,1978.68 429,1977.5C 426.833,1979 427,1980.17 429.5,1981C 426.906,1981.45 424.906,1980.45 423.5,1978C 418.645,1976.84 414.312,1977.67 410.5,1980.5C 407.433,1978.77 404.1,1977.77 400.5,1977.5C 391.014,1977.97 381.68,1978.97 372.5,1980.5C 367.851,1979.87 363.184,1979.54 358.5,1979.5C 349.181,1979.26 342.014,1975.26 337,1967.5C 336.187,1965.56 335.687,1963.56 335.5,1961.5C 335.663,1954.94 334.996,1948.61 333.5,1942.5C 332.793,1939.21 332.46,1935.88 332.5,1932.5C 332.137,1922.74 332.804,1913.08 334.5,1903.5C 334.5,1902.83 334.5,1902.17 334.5,1901.5C 336.314,1899.24 338.147,1896.9 340,1894.5C 340.739,1891.45 341.572,1888.45 342.5,1885.5C 344.4,1881.27 347.067,1877.6 350.5,1874.5C 353.392,1871.73 356.058,1868.73 358.5,1865.5C 376.358,1854.12 396.025,1848.79 417.5,1849.5 Z"/></g>
<g><path style="opacity:1" fill="#7b4932" d="M 424.5,1870.5 C 437.168,1870.9 449.835,1871.4 462.5,1872C 498.213,1878.4 533.88,1885.23 569.5,1892.5C 574.305,1893.49 579.305,1893.82 584.5,1893.5C 606.998,1895.43 629.665,1897.26 652.5,1899C 664.162,1899.5 675.829,1899.67 687.5,1899.5C 688.117,1899.61 688.617,1899.94 689,1900.5C 689.417,1909.84 687.75,1918.84 684,1927.5C 683.502,1930.82 683.335,1934.15 683.5,1937.5C 682.766,1938.88 682.099,1940.38 681.5,1942C 674.231,1943.47 666.898,1944.47 659.5,1945C 610.138,1946.6 560.805,1948.6 511.5,1951C 499.833,1951.67 488.167,1951.67 476.5,1951C 444.942,1950.31 413.609,1946.98 382.5,1941C 377.48,1938.63 372.48,1936.3 367.5,1934C 364.577,1931.58 362.243,1928.75 360.5,1925.5C 361.649,1925.21 362.316,1924.38 362.5,1923C 362.746,1911.96 366.746,1902.62 374.5,1895C 378.217,1891.62 382.217,1888.62 386.5,1886C 398.284,1881.39 410.284,1877.39 422.5,1874C 423.973,1873.29 424.64,1872.12 424.5,1870.5 Z"/></g>
<g><path style="opacity:1" fill="#f2f0da" d="M 414.5,1870.5 C 417.833,1870.5 421.167,1870.5 424.5,1870.5C 424.64,1872.12 423.973,1873.29 422.5,1874C 410.284,1877.39 398.284,1881.39 386.5,1886C 382.217,1888.62 378.217,1891.62 374.5,1895C 366.746,1902.62 362.746,1911.96 362.5,1923C 362.316,1924.38 361.649,1925.21 360.5,1925.5C 359.488,1924.13 358.488,1922.8 357.5,1921.5C 357.061,1908.97 361.394,1898.47 370.5,1890C 383.247,1878.99 397.913,1872.49 414.5,1870.5 Z"/></g>
<g><path style="opacity:1" fill="#210504" d="M 569.5,1892.5 C 533.88,1885.23 498.213,1878.4 462.5,1872C 449.835,1871.4 437.168,1870.9 424.5,1870.5C 421.167,1870.5 417.833,1870.5 414.5,1870.5C 405.11,1870.97 395.777,1872.47 386.5,1875C 382.157,1878.17 377.823,1881.34 373.5,1884.5C 372.893,1884.38 372.56,1884.04 372.5,1883.5C 374.4,1881.23 375.733,1879.06 376.5,1877C 378.167,1876.67 379.833,1876.33 381.5,1876C 381.167,1875.67 380.833,1875.33 380.5,1875C 381.579,1874.04 382.745,1873.21 384,1872.5C 386.763,1872.31 389.597,1872.31 392.5,1872.5C 393.59,1871.27 394.924,1870.44 396.5,1870C 417.682,1869.17 439.016,1868 460.5,1866.5C 466.116,1867.5 472.449,1869.17 479.5,1871.5C 481.596,1869.93 483.262,1870.27 484.5,1872.5C 488.815,1872.54 492.981,1872.21 497,1871.5C 500.786,1873.41 504.62,1875.24 508.5,1877C 519.209,1877.82 529.709,1879.65 540,1882.5C 540.333,1882.17 540.667,1881.83 541,1881.5C 542.586,1882.38 544.086,1883.38 545.5,1884.5C 547.367,1881.77 548.367,1882.1 548.5,1885.5C 555.895,1886.41 562.895,1888.74 569.5,1892.5 Z"/></g>
<g><path style="opacity:1" fill="#311618" d="M 414.5,1870.5 C 397.913,1872.49 383.247,1878.99 370.5,1890C 361.394,1898.47 357.061,1908.97 357.5,1921.5C 356.784,1933.03 357.784,1944.36 360.5,1955.5C 359.069,1954.1 357.902,1952.43 357,1950.5C 356.825,1935.59 356.325,1920.76 355.5,1906C 357.044,1905.71 358.377,1905.04 359.5,1904C 357.477,1899.66 358.811,1896.83 363.5,1895.5C 363.069,1894.71 362.735,1893.87 362.5,1893C 364.145,1891.36 365.812,1889.69 367.5,1888C 366.359,1887.26 366.359,1886.43 367.5,1885.5C 368.85,1884.05 370.516,1883.38 372.5,1883.5C 372.56,1884.04 372.893,1884.38 373.5,1884.5C 377.823,1881.34 382.157,1878.17 386.5,1875C 395.777,1872.47 405.11,1870.97 414.5,1870.5 Z"/></g>
<g><path style="opacity:1" fill="#443b3c" d="M 342.5,1885.5 C 341.572,1888.45 340.739,1891.45 340,1894.5C 338.147,1896.9 336.314,1899.24 334.5,1901.5C 336.132,1895.57 338.798,1890.24 342.5,1885.5 Z"/></g>
<g><path style="opacity:1" fill="#28060b" d="M 1024.5,1893.5 C 1005.26,1894.23 985.928,1895.73 966.5,1898C 954.838,1898.5 943.171,1898.67 931.5,1898.5C 931.414,1897.5 931.748,1896.67 932.5,1896C 934.833,1894.83 937.167,1893.67 939.5,1892.5C 948.077,1894.07 956.744,1895.07 965.5,1895.5C 985.027,1894.03 1004.69,1893.36 1024.5,1893.5 Z"/></g>
<g><path style="opacity:1" fill="#29070b" d="M 584.5,1893.5 C 593.832,1894.76 603.165,1894.76 612.5,1893.5C 617.052,1893.84 621.552,1894.51 626,1895.5C 628.042,1895.38 630.042,1895.05 632,1894.5C 647.898,1897.19 663.732,1896.86 679.5,1893.5C 681.833,1894.67 684.167,1895.83 686.5,1897C 687.252,1897.67 687.586,1898.5 687.5,1899.5C 675.829,1899.67 664.162,1899.5 652.5,1899C 629.665,1897.26 606.998,1895.43 584.5,1893.5 Z"/></g>
<g><path style="opacity:1" fill="#63595c" d="M 1284.5,1902.5 C 1286.16,1904.44 1286.83,1906.77 1286.5,1909.5C 1285.08,1907.49 1284.41,1905.15 1284.5,1902.5 Z"/></g>
<g><path style="opacity:1" fill="#584f52" d="M 334.5,1903.5 C 332.804,1913.08 332.137,1922.74 332.5,1932.5C 331.345,1925.35 331.178,1918.01 332,1910.5C 332.156,1907.81 332.989,1905.48 334.5,1903.5 Z"/></g>
<g><path style="opacity:1" fill="#46383e" d="M 711.5,1915.5 C 710.646,1923.71 709.312,1931.71 707.5,1939.5C 708.083,1933.17 708.75,1926.83 709.5,1920.5C 709.556,1918.36 710.223,1916.69 711.5,1915.5 Z"/></g>
<g><path style="opacity:1" fill="#582c32" d="M 1261.5,1920.5 C 1262.08,1931.63 1261.25,1942.63 1259,1953.5C 1253.26,1954.93 1247.43,1955.93 1241.5,1956.5C 1217.5,1956.97 1193.5,1957.64 1169.5,1958.5C 1125.51,1956.88 1081.51,1955.38 1037.5,1954C 1027.1,1953.8 1016.77,1952.96 1006.5,1951.5C 984.539,1949.74 962.539,1948.57 940.5,1948C 937.855,1946.71 936.855,1944.55 937.5,1941.5C 943.843,1942.19 950.176,1943.03 956.5,1944C 1006.22,1945.47 1055.89,1947.63 1105.5,1950.5C 1116.33,1951.66 1127.33,1951.83 1138.5,1951C 1154.15,1949.84 1169.82,1948.84 1185.5,1948C 1194.37,1947.31 1203.04,1946.14 1211.5,1944.5C 1223.46,1943.01 1235.13,1940.17 1246.5,1936C 1249.94,1933.86 1253.11,1931.36 1256,1928.5C 1257.61,1925.59 1259.44,1922.93 1261.5,1920.5 Z"/></g>
<g><path style="opacity:1" fill="#592c32" d="M 357.5,1921.5 C 358.488,1922.8 359.488,1924.13 360.5,1925.5C 362.243,1928.75 364.577,1931.58 367.5,1934C 372.48,1936.3 377.48,1938.63 382.5,1941C 413.609,1946.98 444.942,1950.31 476.5,1951C 488.167,1951.67 499.833,1951.67 511.5,1951C 560.805,1948.6 610.138,1946.6 659.5,1945C 666.898,1944.47 674.231,1943.47 681.5,1942C 682.099,1940.38 682.766,1938.88 683.5,1937.5C 683.543,1940.91 683.043,1944.24 682,1947.5C 680.601,1948.23 679.101,1948.73 677.5,1949C 655.21,1948.79 633.21,1949.96 611.5,1952.5C 580.477,1954.26 549.477,1956.09 518.5,1958C 468.477,1959 418.477,1958.5 368.5,1956.5C 365.873,1955.91 363.206,1955.58 360.5,1955.5C 357.784,1944.36 356.784,1933.03 357.5,1921.5 Z"/></g>
<g><path style="opacity:1" fill="#55474e" d="M 908.5,1922.5 C 909.222,1922.92 909.722,1923.58 910,1924.5C 910.665,1929.16 911.165,1933.82 911.5,1938.5C 910.019,1933.38 909.019,1928.05 908.5,1922.5 Z"/></g>
<g><path style="opacity:1" fill="#663733" d="M 1211.5,1944.5 C 1203.04,1946.14 1194.37,1947.31 1185.5,1948C 1169.82,1948.84 1154.15,1949.84 1138.5,1951C 1127.33,1951.83 1116.33,1951.66 1105.5,1950.5C 1140.91,1949.72 1176.24,1947.72 1211.5,1944.5 Z"/></g>
<g><path style="opacity:1" fill="#55444c" d="M 911.5,1939.5 C 912.222,1939.92 912.722,1940.58 913,1941.5C 913.735,1945.81 914.235,1950.15 914.5,1954.5C 912.978,1949.73 911.978,1944.73 911.5,1939.5 Z"/></g>
<g><path style="opacity:1" fill="#6c5e5e" d="M 1285.5,1941.5 C 1285.41,1948.04 1284.75,1954.37 1283.5,1960.5C 1283.53,1954.81 1283.87,1949.14 1284.5,1943.5C 1284.33,1942.51 1284.66,1941.84 1285.5,1941.5 Z"/></g>
<g><path style="opacity:1" fill="#6c5e5e" d="M 333.5,1942.5 C 334.996,1948.61 335.663,1954.94 335.5,1961.5C 334.253,1955.37 333.586,1949.04 333.5,1942.5 Z"/></g>
<g><path style="opacity:1" fill="#301015" d="M 611.5,1952.5 C 604.026,1953.99 596.359,1955.16 588.5,1956C 522.208,1959.33 455.875,1960.33 389.5,1959C 382.285,1958.75 375.285,1957.91 368.5,1956.5C 418.477,1958.5 468.477,1959 518.5,1958C 549.477,1956.09 580.477,1954.26 611.5,1952.5 Z"/></g>
<g><path style="opacity:1" fill="#2f0f14" d="M 1006.5,1951.5 C 1016.77,1952.96 1027.1,1953.8 1037.5,1954C 1081.51,1955.38 1125.51,1956.88 1169.5,1958.5C 1193.5,1957.64 1217.5,1956.97 1241.5,1956.5C 1224.43,1957.82 1207.26,1959.16 1190,1960.5C 1146.73,1959.19 1103.4,1957.86 1060,1956.5C 1055.78,1956.53 1051.62,1956.86 1047.5,1957.5C 1036.07,1955.3 1024.4,1954.14 1012.5,1954C 1010.28,1953.43 1008.28,1952.6 1006.5,1951.5 Z"/></g>
<g><path style="opacity:1" fill="#443333" d="M 924.5,1969.5 C 933.807,1969.68 942.807,1971.01 951.5,1973.5C 943.474,1973 935.474,1972.16 927.5,1971C 926.263,1970.77 925.263,1970.27 924.5,1969.5 Z"/></g>
<g><path style="opacity:1" fill="#523f42" d="M 682.5,1972.5 C 667.737,1975.01 652.737,1976.68 637.5,1977.5C 639.833,1976.83 642.167,1976.17 644.5,1975.5C 657.181,1974.62 669.848,1973.62 682.5,1972.5 Z"/></g>
<g><path style="opacity:1" fill="#402b30" d="M 952.5,1973.5 C 961.173,1973.33 969.84,1973.5 978.5,1974C 986.414,1975.49 994.414,1976.33 1002.5,1976.5C 1012.62,1978.1 1022.95,1978.93 1033.5,1979C 1034.06,1979.38 1034.39,1979.88 1034.5,1980.5C 1006.9,1979.59 979.567,1977.26 952.5,1973.5 Z"/></g>
<g><path style="opacity:1" fill="#443033" d="M 1274.5,1973.5 C 1272.04,1975.84 1269.04,1977.34 1265.5,1978C 1256.93,1979.93 1248.26,1981.1 1239.5,1981.5C 1240.83,1980.83 1242.17,1980.17 1243.5,1979.5C 1251.65,1979.31 1259.65,1978.15 1267.5,1976C 1269.3,1975.68 1269.63,1975.02 1268.5,1974C 1270.47,1973.5 1272.47,1973.34 1274.5,1973.5 Z"/></g>
<g><path style="opacity:1" fill="#1f070e" d="M 1243.5,1979.5 C 1242.17,1980.17 1240.83,1980.83 1239.5,1981.5C 1230.71,1983.03 1221.71,1983.7 1212.5,1983.5C 1178.51,1984.27 1144.51,1984.61 1110.5,1984.5C 1109.5,1984.5 1108.5,1984.5 1107.5,1984.5C 1089.01,1983.44 1070.34,1982.77 1051.5,1982.5C 1045.65,1982.18 1039.98,1981.52 1034.5,1980.5C 1034.39,1979.88 1034.06,1979.38 1033.5,1979C 1022.95,1978.93 1012.62,1978.1 1002.5,1976.5C 1004.82,1975.19 1007.16,1975.19 1009.5,1976.5C 1011.61,1976.51 1013.44,1975.85 1015,1974.5C 1016,1975.17 1017,1975.83 1018,1976.5C 1019.01,1976.11 1019.51,1975.44 1019.5,1974.5C 1021.17,1975.33 1022.83,1976.17 1024.5,1977C 1027.82,1977.21 1030.99,1977.38 1034,1977.5C 1036.04,1975.69 1038.21,1975.03 1040.5,1975.5C 1039.17,1974.83 1037.83,1974.17 1036.5,1973.5C 1037.33,1973.17 1038.17,1972.83 1039,1972.5C 1056.27,1973.56 1073.77,1975.72 1091.5,1979C 1090.5,1979.33 1089.5,1979.67 1088.5,1980C 1091.09,1980.46 1093.26,1979.63 1095,1977.5C 1099.27,1978.03 1103.43,1979.03 1107.5,1980.5C 1108.45,1980.01 1109.45,1979.68 1110.5,1979.5C 1112.63,1980.96 1114.96,1981.96 1117.5,1982.5C 1123.69,1981.88 1129.85,1981.21 1136,1980.5C 1140,1981.17 1144,1981.83 1148,1982.5C 1154.12,1981.66 1160.12,1981.66 1166,1982.5C 1170.76,1980.98 1175.92,1979.98 1181.5,1979.5C 1181.28,1980.68 1181.61,1981.68 1182.5,1982.5C 1181.98,1980.28 1182.81,1978.28 1185,1976.5C 1184.74,1977.95 1184.9,1979.28 1185.5,1980.5C 1186.83,1979.01 1188.33,1977.68 1190,1976.5C 1192.17,1978 1192,1979.17 1189.5,1980C 1192.09,1980.45 1194.09,1979.45 1195.5,1977C 1200.36,1975.84 1204.69,1976.67 1208.5,1979.5C 1211.25,1976.77 1213.58,1977.1 1215.5,1980.5C 1216.83,1977.83 1218.17,1977.83 1219.5,1980.5C 1221.8,1977.99 1224.13,1977.99 1226.5,1980.5C 1226.83,1979.83 1227.17,1979.17 1227.5,1978.5C 1232.59,1979.17 1237.92,1979.5 1243.5,1979.5 Z"/></g>
<g><path style="opacity:1" fill="#1e060c" d="M 644.5,1975.5 C 642.167,1976.17 639.833,1976.83 637.5,1977.5C 636.833,1977.5 636.167,1977.5 635.5,1977.5C 618.823,1978.05 602.156,1978.88 585.5,1980C 572.285,1982.05 558.952,1983.38 545.5,1984C 505.836,1984.74 466.169,1985.24 426.5,1985.5C 403.495,1985.65 380.828,1983.65 358.5,1979.5C 363.184,1979.54 367.851,1979.87 372.5,1980.5C 381.68,1978.97 391.014,1977.97 400.5,1977.5C 404.1,1977.77 407.433,1978.77 410.5,1980.5C 414.312,1977.67 418.645,1976.84 423.5,1978C 424.906,1980.45 426.906,1981.45 429.5,1981C 427,1980.17 426.833,1979 429,1977.5C 430.674,1978.68 432.174,1980.01 433.5,1981.5C 434.096,1980.28 434.263,1978.95 434,1977.5C 436.19,1979.28 437.023,1981.28 436.5,1983.5C 437.386,1982.68 437.719,1981.68 437.5,1980.5C 443.078,1980.98 448.245,1981.98 453,1983.5C 458.883,1982.66 464.883,1982.66 471,1983.5C 475,1982.83 479,1982.17 483,1981.5C 485.549,1982.04 488.049,1982.38 490.5,1982.5C 492.373,1982.52 492.706,1982.02 491.5,1981C 492.833,1980.83 494.167,1980.67 495.5,1980.5C 504.913,1981.6 514.413,1980.94 524,1978.5C 525.743,1980.63 527.909,1981.46 530.5,1981C 529.5,1980.67 528.5,1980.33 527.5,1980C 545.228,1976.72 562.728,1974.56 580,1973.5C 580.833,1973.83 581.667,1974.17 582.5,1974.5C 581.167,1975.17 579.833,1975.83 578.5,1976.5C 578.833,1976.83 579.167,1977.17 579.5,1977.5C 581.513,1976.4 583.346,1976.74 585,1978.5C 586.841,1977.88 588.841,1977.88 591,1978.5C 595.867,1976.99 600.7,1975.32 605.5,1973.5C 607.435,1973.13 609.268,1973.79 611,1975.5C 612.221,1974.73 613.221,1973.73 614,1972.5C 615.688,1973.32 615.855,1974.32 614.5,1975.5C 616.396,1976.47 618.396,1976.8 620.5,1976.5C 620.351,1975.45 620.517,1974.45 621,1973.5C 623.283,1975.64 626.117,1976.64 629.5,1976.5C 634.499,1976.08 639.499,1975.75 644.5,1975.5 Z"/></g>
<g><path style="opacity:1" fill="#5e464c" d="M 1051.5,1982.5 C 1070.34,1982.77 1089.01,1983.44 1107.5,1984.5C 1088.64,1984.79 1069.97,1984.13 1051.5,1982.5 Z"/></g>
<g><path style="opacity:1" fill="#593e45" d="M 1212.5,1983.5 C 1192.36,1985.01 1172.02,1985.67 1151.5,1985.5C 1137.66,1985.5 1124,1985.17 1110.5,1984.5C 1144.51,1984.61 1178.51,1984.27 1212.5,1983.5 Z"/></g>
<g><path style="opacity:1" fill="#583f45" d="M 635.5,1977.5 C 606.33,1980.21 576.997,1982.71 547.5,1985C 507.006,1986.52 466.673,1986.69 426.5,1985.5C 466.169,1985.24 505.836,1984.74 545.5,1984C 558.952,1983.38 572.285,1982.05 585.5,1980C 602.156,1978.88 618.823,1978.05 635.5,1977.5 Z"/></g>
</svg>
