<?xml version="1.0" encoding="UTF-8"?>
<!DOCTYPE svg PUBLIC "-//W3C//DTD SVG 1.1//EN" "http://www.w3.org/Graphics/SVG/1.1/DTD/svg11.dtd">
<svg xmlns="http://www.w3.org/2000/svg" version="1.1" width="1620px" height="2160px" style="shape-rendering:geometricPrecision; text-rendering:geometricPrecision; image-rendering:optimizeQuality; fill-rule:evenodd; clip-rule:evenodd" xmlns:xlink="http://www.w3.org/1999/xlink">
<g><path style="opacity:1" fill="#fefffe" d="M -0.5,-0.5 C 539.5,-0.5 1079.5,-0.5 1619.5,-0.5C 1619.5,719.5 1619.5,1439.5 1619.5,2159.5C 1079.5,2159.5 539.5,2159.5 -0.5,2159.5C -0.5,1757.83 -0.5,1356.17 -0.5,954.5C 164.167,954.5 328.833,954.5 493.5,954.5C 510.5,954.5 527.5,954.5 544.5,954.5C 544.833,954.5 545.167,954.5 545.5,954.5C 550.5,954.5 555.5,954.5 560.5,954.5C 560.833,954.5 561.167,954.5 561.5,954.5C 580.167,954.5 598.833,954.5 617.5,954.5C 617.833,954.5 618.167,954.5 618.5,954.5C 623.5,954.5 628.5,954.5 633.5,954.5C 633.833,954.5 634.167,954.5 634.5,954.5C 732.167,954.5 829.833,954.5 927.5,954.5C 927.833,954.5 928.167,954.5 928.5,954.5C 933.5,954.5 938.5,954.5 943.5,954.5C 943.833,954.5 944.167,954.5 944.5,954.5C 963.167,954.5 981.833,954.5 1000.5,954.5C 1000.83,954.5 1001.17,954.5 1001.5,954.5C 1006.5,954.5 1011.5,954.5 1016.5,954.5C 1016.83,954.5 1017.17,954.5 1017.5,954.5C 1117.17,954.5 1216.83,954.5 1316.5,954.5C 1400.5,954.5 1484.5,954.5 1568.5,954.5C 1568.5,922.5 1568.5,890.5 1568.5,858.5C 1568.5,834.167 1568.5,809.833 1568.5,785.5C 1564.83,785.5 1561.17,785.5 1557.5,785.5C 1530.5,785.5 1503.5,785.5 1476.5,785.5C 1462.83,785.5 1449.17,785.5 1435.5,785.5C 1399.5,785.5 1363.5,785.5 1327.5,785.5C 1223.83,785.5 1120.17,785.5 1016.5,785.5C 1011.83,785.5 1007.17,785.5 1002.5,785.5C 1002.17,785.5 1001.83,785.5 1001.5,785.5C 982.167,785.5 962.833,785.5 943.5,785.5C 943.167,785.5 942.833,785.5 942.5,785.5C 937.833,785.5 933.167,785.5 928.5,785.5C 837.167,785.5 745.833,785.5 654.5,785.5C 647.5,785.5 640.5,785.5 633.5,785.5C 628.5,785.5 623.5,785.5 618.5,785.5C 599.167,785.5 579.833,785.5 560.5,785.5C 555.5,785.5 550.5,785.5 545.5,785.5C 458.167,785.5 370.833,785.5 283.5,785.5C 237.5,785.5 191.5,785.5 145.5,785.5C 107.833,785.5 70.1667,785.5 32.5,785.5C 21.5,785.5 10.5,785.5 -0.5,785.5C -0.5,523.5 -0.5,261.5 -0.5,-0.5 Z"/></g>
<g><path style="opacity:1" fill="#3d2e20" d="M -0.5,785.5 C 10.5,785.5 21.5,785.5 32.5,785.5C 40.7299,792.871 49.7299,799.371 59.5,805C 62.9989,810.091 67.6655,813.758 73.5,816C 74.1258,816.75 74.6258,817.584 75,818.5C 75.3333,818.167 75.6667,817.833 76,817.5C 79.3425,821.571 83.0092,824.571 87,826.5C 88.3333,826.5 89.6667,826.5 91,826.5C 93.0224,828.531 94.6891,830.865 96,833.5C 97.016,832.366 97.6827,832.699 98,834.5C 98.3333,834.167 98.6667,833.833 99,833.5C 100.419,834.46 101.919,835.293 103.5,836C 104.833,836.667 104.833,837.333 103.5,838C 105.679,838.442 106.345,839.442 105.5,841C 106.931,841.465 108.097,842.299 109,843.5C 110.06,843.746 111.227,843.746 112.5,843.5C 116.986,846.265 121.486,848.931 126,851.5C 126.333,850.833 126.667,850.167 127,849.5C 129.64,852.14 132.306,854.806 135,857.5C 136.164,857.835 137.497,857.835 139,857.5C 140.588,859.808 142.588,860.475 145,859.5C 147.653,861.995 150.653,863.995 154,865.5C 155.016,864.366 155.683,864.699 156,866.5C 157.749,865.701 159.082,866.368 160,868.5C 161.016,867.366 161.683,867.699 162,869.5C 163.016,868.366 163.683,868.699 164,870.5C 165.016,869.366 165.683,869.699 166,871.5C 166.333,871.167 166.667,870.833 167,870.5C 169.661,872.158 172.327,873.824 175,875.5C 175.333,875.167 175.667,874.833 176,874.5C 178.638,877.317 181.638,879.65 185,881.5C 185.333,880.833 185.667,880.167 186,879.5C 187.506,882.474 189.172,882.807 191,880.5C 192.243,882.833 193.909,883.5 196,882.5C 197.816,884.441 199.816,885.108 202,884.5C 203.365,886.86 205.365,888.527 208,889.5C 211.372,888.873 214.039,890.207 216,893.5C 217.016,892.366 217.683,892.699 218,894.5C 218.333,894.167 218.667,893.833 219,893.5C 220.262,895.303 221.929,896.636 224,897.5C 225.016,896.366 225.683,896.699 226,898.5C 227.333,898.5 228.667,898.5 230,898.5C 233.004,901.991 236.671,903.324 241,902.5C 242.079,904.394 243.413,904.727 245,903.5C 251.991,903.503 258.491,905.337 264.5,909C 270.26,909.952 275.926,911.285 281.5,913C 282.167,913.667 282.833,914.333 283.5,915C 294.39,917.334 305.39,920 316.5,923C 318.624,923.958 320.624,925.125 322.5,926.5C 323.607,925.978 324.774,925.645 326,925.5C 332.744,927.774 339.744,929.107 347,929.5C 348.436,929.441 349.769,929.108 351,928.5C 353.833,931.158 357,932.158 360.5,931.5C 366.765,932.975 373.098,934.142 379.5,935C 380.787,936.41 381.954,937.91 383,939.5C 383.308,938.692 383.808,938.025 384.5,937.5C 385.967,938.695 387.467,938.695 389,937.5C 390.49,938.317 391.99,939.15 393.5,940C 398.125,940.306 402.625,941.139 407,942.5C 408.707,942.352 410.374,942.018 412,941.5C 417.283,943.696 422.783,944.696 428.5,944.5C 433.857,944.157 438.69,943.824 443,943.5C 444.008,945.259 445.508,946.426 447.5,947C 455.642,948.595 463.808,950.428 472,952.5C 479.687,949.391 486.854,950.057 493.5,954.5C 328.833,954.5 164.167,954.5 -0.5,954.5C -0.5,898.167 -0.5,841.833 -0.5,785.5 Z"/></g>
<g><path style="opacity:1" fill="#3f3020" d="M 32.5,785.5 C 70.1667,785.5 107.833,785.5 145.5,785.5C 148.344,786.879 150.844,788.879 153,791.5C 153.333,791.167 153.667,790.833 154,790.5C 156,791.833 158,793.167 160,794.5C 160.333,794.167 160.667,793.833 161,793.5C 162.046,795.09 163.213,796.59 164.5,798C 172.838,800.542 180.672,804.709 188,810.5C 190.291,809.689 192.125,810.523 193.5,813C 195.878,813.511 198.212,814.178 200.5,815C 205.816,818.544 211.15,821.378 216.5,823.5C 221.425,823.422 225.758,825.255 229.5,829C 231.167,829.333 232.833,829.667 234.5,830C 233.304,830.654 233.304,831.154 234.5,831.5C 235.167,831.167 235.833,830.833 236.5,830.5C 245.34,836.174 255.007,840.007 265.5,842C 272.454,845.42 280.121,847.753 288.5,849C 289.667,850.167 290.833,851.333 292,852.5C 293.667,852.5 295.333,852.5 297,852.5C 297.333,853.167 297.667,853.833 298,854.5C 302.041,852.761 306.041,853.428 310,856.5C 311.749,855.701 313.082,856.368 314,858.5C 315.343,857.786 316.676,858.12 318,859.5C 320.573,858.017 322.74,858.517 324.5,861C 329.597,862.622 334.764,864.122 340,865.5C 343.282,864.815 346.449,864.481 349.5,864.5C 351.81,867.422 354.643,868.422 358,867.5C 359.473,867.903 360.806,868.57 362,869.5C 362.333,869.167 362.667,868.833 363,868.5C 364.085,869.293 365.252,869.96 366.5,870.5C 368.703,870.413 370.87,870.413 373,870.5C 374.324,871.88 375.657,872.214 377,871.5C 377.5,872 378,872.5 378.5,873C 382.893,873.017 387.06,873.85 391,875.5C 392.974,875.353 394.974,875.019 397,874.5C 403.261,878.342 409.761,879.675 416.5,878.5C 421.431,880.326 426.264,881.66 431,882.5C 432.537,881.965 434.037,881.632 435.5,881.5C 440.266,884.229 445.266,884.896 450.5,883.5C 453.933,885.926 457.267,886.593 460.5,885.5C 463.171,887.491 466.004,887.491 469,885.5C 471.924,885.626 474.591,886.959 477,889.5C 479.707,888.781 482.207,889.448 484.5,891.5C 485.906,890.332 487.072,890.665 488,892.5C 488.308,891.692 488.808,891.025 489.5,890.5C 492.446,891.552 495.446,891.552 498.5,890.5C 500.274,890.887 501.941,891.553 503.5,892.5C 504.331,885.858 504.831,879.191 505,872.5C 508.115,874.711 511.115,875.045 514,873.5C 519.146,874.375 524.312,875.375 529.5,876.5C 531.129,875.577 532.629,875.243 534,875.5C 535.079,877.394 536.413,877.727 538,876.5C 539.994,878.187 542.161,878.854 544.5,878.5C 544.5,903.833 544.5,929.167 544.5,954.5C 527.5,954.5 510.5,954.5 493.5,954.5C 486.854,950.057 479.687,949.391 472,952.5C 463.808,950.428 455.642,948.595 447.5,947C 445.508,946.426 444.008,945.259 443,943.5C 438.69,943.824 433.857,944.157 428.5,944.5C 422.783,944.696 417.283,943.696 412,941.5C 410.374,942.018 408.707,942.352 407,942.5C 402.625,941.139 398.125,940.306 393.5,940C 391.99,939.15 390.49,938.317 389,937.5C 387.467,938.695 385.967,938.695 384.5,937.5C 383.808,938.025 383.308,938.692 383,939.5C 381.954,937.91 380.787,936.41 379.5,935C 373.098,934.142 366.765,932.975 360.5,931.5C 357,932.158 353.833,931.158 351,928.5C 349.769,929.108 348.436,929.441 347,929.5C 339.744,929.107 332.744,927.774 326,925.5C 324.774,925.645 323.607,925.978 322.5,926.5C 320.624,925.125 318.624,923.958 316.5,923C 305.39,920 294.39,917.334 283.5,915C 282.833,914.333 282.167,913.667 281.5,913C 275.926,911.285 270.26,909.952 264.5,909C 258.491,905.337 251.991,903.503 245,903.5C 243.413,904.727 242.079,904.394 241,902.5C 236.671,903.324 233.004,901.991 230,898.5C 228.667,898.5 227.333,898.5 226,898.5C 225.683,896.699 225.016,896.366 224,897.5C 221.929,896.636 220.262,895.303 219,893.5C 218.667,893.833 218.333,894.167 218,894.5C 217.683,892.699 217.016,892.366 216,893.5C 214.039,890.207 211.372,888.873 208,889.5C 205.365,888.527 203.365,886.86 202,884.5C 199.816,885.108 197.816,884.441 196,882.5C 193.909,883.5 192.243,882.833 191,880.5C 189.172,882.807 187.506,882.474 186,879.5C 185.667,880.167 185.333,880.833 185,881.5C 181.638,879.65 178.638,877.317 176,874.5C 175.667,874.833 175.333,875.167 175,875.5C 172.327,873.824 169.661,872.158 167,870.5C 166.667,870.833 166.333,871.167 166,871.5C 165.683,869.699 165.016,869.366 164,870.5C 163.683,868.699 163.016,868.366 162,869.5C 161.683,867.699 161.016,867.366 160,868.5C 159.082,866.368 157.749,865.701 156,866.5C 155.683,864.699 155.016,864.366 154,865.5C 150.653,863.995 147.653,861.995 145,859.5C 142.588,860.475 140.588,859.808 139,857.5C 137.497,857.835 136.164,857.835 135,857.5C 132.306,854.806 129.64,852.14 127,849.5C 126.667,850.167 126.333,850.833 126,851.5C 121.486,848.931 116.986,846.265 112.5,843.5C 111.227,843.746 110.06,843.746 109,843.5C 108.097,842.299 106.931,841.465 105.5,841C 106.345,839.442 105.679,838.442 103.5,838C 104.833,837.333 104.833,836.667 103.5,836C 101.919,835.293 100.419,834.46 99,833.5C 98.6667,833.833 98.3333,834.167 98,834.5C 97.6827,832.699 97.016,832.366 96,833.5C 94.6891,830.865 93.0224,828.531 91,826.5C 89.6667,826.5 88.3333,826.5 87,826.5C 83.0092,824.571 79.3425,821.571 76,817.5C 75.6667,817.833 75.3333,818.167 75,818.5C 74.6258,817.584 74.1258,816.75 73.5,816C 67.6655,813.758 62.9989,810.091 59.5,805C 49.7299,799.371 40.7299,792.871 32.5,785.5 Z"/></g>
<g><path style="opacity:1" fill="#423221" d="M 145.5,785.5 C 191.5,785.5 237.5,785.5 283.5,785.5C 284.574,786.885 285.907,788.051 287.5,789C 305.275,795.868 323.275,801.201 341.5,805C 344.895,806.115 348.061,807.615 351,809.5C 354.738,808.978 358.405,809.645 362,811.5C 362.333,811.167 362.667,810.833 363,810.5C 363.605,812.481 364.605,812.815 366,811.5C 370.716,813.013 375.383,814.68 380,816.5C 383.853,816.847 387.853,816.847 392,816.5C 394.877,817.456 397.544,818.789 400,820.5C 400.893,819.919 401.893,819.585 403,819.5C 407.812,821.865 412.812,822.531 418,821.5C 419.555,823.146 421.221,823.479 423,822.5C 424.419,823.46 425.919,824.293 427.5,825C 433.911,825.088 440.078,826.254 446,828.5C 446.333,828.167 446.667,827.833 447,827.5C 453.615,829.029 460.282,830.363 467,831.5C 467.333,831.167 467.667,830.833 468,830.5C 468.308,831.308 468.808,831.975 469.5,832.5C 474.215,833.181 479.048,833.181 484,832.5C 485.079,834.394 486.413,834.727 488,833.5C 489.667,834.167 491.333,834.833 493,835.5C 494.889,834.911 496.889,834.577 499,834.5C 500.441,835.26 501.941,835.926 503.5,836.5C 504.167,832.5 504.833,828.5 505.5,824.5C 508.37,825.122 511.204,825.789 514,826.5C 514.414,826.043 514.914,825.709 515.5,825.5C 517.934,828.147 520.767,828.814 524,827.5C 525.473,827.903 526.806,828.57 528,829.5C 533.122,828.529 538.289,828.695 543.5,830C 544.491,846.089 544.825,862.256 544.5,878.5C 542.161,878.854 539.994,878.187 538,876.5C 536.413,877.727 535.079,877.394 534,875.5C 532.629,875.243 531.129,875.577 529.5,876.5C 524.312,875.375 519.146,874.375 514,873.5C 511.115,875.045 508.115,874.711 505,872.5C 504.831,879.191 504.331,885.858 503.5,892.5C 501.941,891.553 500.274,890.887 498.5,890.5C 495.446,891.552 492.446,891.552 489.5,890.5C 488.808,891.025 488.308,891.692 488,892.5C 487.072,890.665 485.906,890.332 484.5,891.5C 482.207,889.448 479.707,888.781 477,889.5C 474.591,886.959 471.924,885.626 469,885.5C 466.004,887.491 463.171,887.491 460.5,885.5C 457.267,886.593 453.933,885.926 450.5,883.5C 445.266,884.896 440.266,884.229 435.5,881.5C 434.037,881.632 432.537,881.965 431,882.5C 426.264,881.66 421.431,880.326 416.5,878.5C 409.761,879.675 403.261,878.342 397,874.5C 394.974,875.019 392.974,875.353 391,875.5C 387.06,873.85 382.893,873.017 378.5,873C 378,872.5 377.5,872 377,871.5C 375.657,872.214 374.324,871.88 373,870.5C 370.87,870.413 368.703,870.413 366.5,870.5C 365.252,869.96 364.085,869.293 363,868.5C 362.667,868.833 362.333,869.167 362,869.5C 360.806,868.57 359.473,867.903 358,867.5C 354.643,868.422 351.81,867.422 349.5,864.5C 346.449,864.481 343.282,864.815 340,865.5C 334.764,864.122 329.597,862.622 324.5,861C 322.74,858.517 320.573,858.017 318,859.5C 316.676,858.12 315.343,857.786 314,858.5C 313.082,856.368 311.749,855.701 310,856.5C 306.041,853.428 302.041,852.761 298,854.5C 297.667,853.833 297.333,853.167 297,852.5C 295.333,852.5 293.667,852.5 292,852.5C 290.833,851.333 289.667,850.167 288.5,849C 280.121,847.753 272.454,845.42 265.5,842C 255.007,840.007 245.34,836.174 236.5,830.5C 235.833,830.833 235.167,831.167 234.5,831.5C 233.304,831.154 233.304,830.654 234.5,830C 232.833,829.667 231.167,829.333 229.5,829C 225.758,825.255 221.425,823.422 216.5,823.5C 211.15,821.378 205.816,818.544 200.5,815C 198.212,814.178 195.878,813.511 193.5,813C 192.125,810.523 190.291,809.689 188,810.5C 180.672,804.709 172.838,800.542 164.5,798C 163.213,796.59 162.046,795.09 161,793.5C 160.667,793.833 160.333,794.167 160,794.5C 158,793.167 156,791.833 154,790.5C 153.667,790.833 153.333,791.167 153,791.5C 150.844,788.879 148.344,786.879 145.5,785.5 Z"/></g>
<g><path style="opacity:1" fill="#463622" d="M 283.5,785.5 C 370.833,785.5 458.167,785.5 545.5,785.5C 545.5,841.833 545.5,898.167 545.5,954.5C 545.167,954.5 544.833,954.5 544.5,954.5C 544.5,929.167 544.5,903.833 544.5,878.5C 544.825,862.256 544.491,846.089 543.5,830C 538.289,828.695 533.122,828.529 528,829.5C 526.806,828.57 525.473,827.903 524,827.5C 520.767,828.814 517.934,828.147 515.5,825.5C 514.914,825.709 514.414,826.043 514,826.5C 511.204,825.789 508.37,825.122 505.5,824.5C 504.833,828.5 504.167,832.5 503.5,836.5C 501.941,835.926 500.441,835.26 499,834.5C 496.889,834.577 494.889,834.911 493,835.5C 491.333,834.833 489.667,834.167 488,833.5C 486.413,834.727 485.079,834.394 484,832.5C 479.048,833.181 474.215,833.181 469.5,832.5C 468.808,831.975 468.308,831.308 468,830.5C 467.667,830.833 467.333,831.167 467,831.5C 460.282,830.363 453.615,829.029 447,827.5C 446.667,827.833 446.333,828.167 446,828.5C 440.078,826.254 433.911,825.088 427.5,825C 425.919,824.293 424.419,823.46 423,822.5C 421.221,823.479 419.555,823.146 418,821.5C 412.812,822.531 407.812,821.865 403,819.5C 401.893,819.585 400.893,819.919 400,820.5C 397.544,818.789 394.877,817.456 392,816.5C 387.853,816.847 383.853,816.847 380,816.5C 375.383,814.68 370.716,813.013 366,811.5C 364.605,812.815 363.605,812.481 363,810.5C 362.667,810.833 362.333,811.167 362,811.5C 358.405,809.645 354.738,808.978 351,809.5C 348.061,807.615 344.895,806.115 341.5,805C 323.275,801.201 305.275,795.868 287.5,789C 285.907,788.051 284.574,786.885 283.5,785.5 Z"/></g>
<g><path style="opacity:1" fill="#4a3a24" d="M 633.5,785.5 C 640.5,785.5 647.5,785.5 654.5,785.5C 662.427,786.576 670.427,787.576 678.5,788.5C 678.5,791.167 678.5,793.833 678.5,796.5C 707.992,799.934 736.992,803.6 765.5,807.5C 766.772,807.43 767.938,807.097 769,806.5C 773.359,807.456 777.693,808.456 782,809.5C 783,809.167 784,808.833 785,808.5C 788.749,809.817 792.582,810.817 796.5,811.5C 799.993,811.43 803.493,811.43 807,811.5C 809.247,813.155 811.58,813.488 814,812.5C 823.358,814.298 833.025,815.964 843,817.5C 844.583,817.507 846.249,817.174 848,816.5C 852.106,817.658 856.272,818.658 860.5,819.5C 861.716,818.998 862.883,818.665 864,818.5C 866.796,819.211 869.63,819.878 872.5,820.5C 873.855,818.477 874.188,816.477 873.5,814.5C 874.628,813.738 875.795,813.071 877,812.5C 878.194,813.43 879.527,814.097 881,814.5C 884.72,814.86 888.554,814.86 892.5,814.5C 898.878,815.678 905.211,817.012 911.5,818.5C 916.877,817.747 922.044,817.747 927,818.5C 927.499,823.823 927.666,829.156 927.5,834.5C 922.83,834.594 918.163,834.594 913.5,834.5C 899.812,831.928 886.478,830.261 873.5,829.5C 874.587,832.825 873.92,835.825 871.5,838.5C 867.203,837.945 863.036,836.945 859,835.5C 858.667,835.833 858.333,836.167 858,836.5C 857.311,835.643 856.478,834.977 855.5,834.5C 851.961,835.009 848.461,835.343 845,835.5C 841.773,835.047 838.773,834.047 836,832.5C 831.216,832.847 826.549,832.847 822,832.5C 817.704,831.315 813.37,830.315 809,829.5C 807.602,830.051 806.268,830.384 805,830.5C 803.667,829.833 802.333,829.167 801,828.5C 797.762,828.271 794.429,828.271 791,828.5C 787.58,827.818 784.246,826.818 781,825.5C 780,825.833 779,826.167 778,826.5C 768.964,825.447 759.964,824.114 751,822.5C 749.883,822.665 748.716,822.998 747.5,823.5C 743.629,821.772 739.795,821.105 736,821.5C 734.561,819.986 733.061,819.653 731.5,820.5C 723.346,818.623 715.179,817.956 707,818.5C 705.559,817.13 703.892,816.13 702,815.5C 699.092,816.285 696.258,816.619 693.5,816.5C 692.252,815.96 691.085,815.293 690,814.5C 686.379,814.642 682.545,814.642 678.5,814.5C 678.665,811.15 678.498,807.817 678,804.5C 674.871,803.566 671.537,803.566 668,804.5C 666.806,802.475 665.306,802.141 663.5,803.5C 660.258,801.788 656.925,801.455 653.5,802.5C 650.949,801.217 648.449,800.884 646,801.5C 642.208,800.562 638.375,799.896 634.5,799.5C 634.5,813.5 634.5,827.5 634.5,841.5C 634.5,857.5 634.5,873.5 634.5,889.5C 634.5,911.167 634.5,932.833 634.5,954.5C 634.167,954.5 633.833,954.5 633.5,954.5C 633.5,898.167 633.5,841.833 633.5,785.5 Z"/></g>
<g><path style="opacity:1" fill="#4c3c24" d="M 654.5,785.5 C 745.833,785.5 837.167,785.5 928.5,785.5C 928.5,807.5 928.5,829.5 928.5,851.5C 928.5,885.833 928.5,920.167 928.5,954.5C 928.167,954.5 927.833,954.5 927.5,954.5C 927.5,944.5 927.5,934.5 927.5,924.5C 927.5,908.5 927.5,892.5 927.5,876.5C 927.5,862.5 927.5,848.5 927.5,834.5C 927.666,829.156 927.499,823.823 927,818.5C 922.044,817.747 916.877,817.747 911.5,818.5C 905.211,817.012 898.878,815.678 892.5,814.5C 888.554,814.86 884.72,814.86 881,814.5C 879.527,814.097 878.194,813.43 877,812.5C 875.795,813.071 874.628,813.738 873.5,814.5C 874.188,816.477 873.855,818.477 872.5,820.5C 869.63,819.878 866.796,819.211 864,818.5C 862.883,818.665 861.716,818.998 860.5,819.5C 856.272,818.658 852.106,817.658 848,816.5C 846.249,817.174 844.583,817.507 843,817.5C 833.025,815.964 823.358,814.298 814,812.5C 811.58,813.488 809.247,813.155 807,811.5C 803.493,811.43 799.993,811.43 796.5,811.5C 792.582,810.817 788.749,809.817 785,808.5C 784,808.833 783,809.167 782,809.5C 777.693,808.456 773.359,807.456 769,806.5C 767.938,807.097 766.772,807.43 765.5,807.5C 736.992,803.6 707.992,799.934 678.5,796.5C 678.5,793.833 678.5,791.167 678.5,788.5C 670.427,787.576 662.427,786.576 654.5,785.5 Z"/></g>
<g><path style="opacity:1" fill="#9e9372" d="M 928.5,785.5 C 933.167,785.5 937.833,785.5 942.5,785.5C 942.5,810.833 942.5,836.167 942.5,861.5C 938.167,861.5 933.833,861.5 929.5,861.5C 929.813,857.958 929.479,854.625 928.5,851.5C 928.5,829.5 928.5,807.5 928.5,785.5 Z"/></g>
<g><path style="opacity:1" fill="#4d3c23" d="M 943.5,785.5 C 962.833,785.5 982.167,785.5 1001.5,785.5C 1001.5,809.5 1001.5,833.5 1001.5,857.5C 1000.51,847.347 1000.17,837.014 1000.5,826.5C 999.178,826.33 998.011,826.663 997,827.5C 989.899,826.338 982.733,825.338 975.5,824.5C 974.558,824.608 973.725,824.941 973,825.5C 963.603,823.756 954.103,822.423 944.5,821.5C 944.5,840.833 944.5,860.167 944.5,879.5C 944.5,904.5 944.5,929.5 944.5,954.5C 944.167,954.5 943.833,954.5 943.5,954.5C 943.5,898.167 943.5,841.833 943.5,785.5 Z"/></g>
<g><path style="opacity:1" fill="#514026" d="M 1016.5,785.5 C 1120.17,785.5 1223.83,785.5 1327.5,785.5C 1309.23,791.627 1290.73,795.627 1272,797.5C 1263.13,799.61 1254.46,801.277 1246,802.5C 1243.96,801.715 1241.96,802.048 1240,803.5C 1237.11,803.728 1234.44,803.394 1232,802.5C 1226.39,803.858 1220.72,804.858 1215,805.5C 1210.58,804.429 1206.24,804.762 1202,806.5C 1196.18,805.862 1190.52,805.528 1185,805.5C 1180.33,806.167 1175.67,806.833 1171,807.5C 1154.31,806.522 1137.98,806.522 1122,807.5C 1120.33,806.833 1118.67,806.167 1117,805.5C 1113.63,806.39 1109.96,806.723 1106,806.5C 1102.48,805.873 1098.98,805.207 1095.5,804.5C 1084.57,804.634 1073.74,804.634 1063,804.5C 1062.31,803.643 1061.48,802.977 1060.5,802.5C 1058.96,803.747 1057.46,803.747 1056,802.5C 1055.5,800.19 1055.34,797.857 1055.5,795.5C 1050.84,794.835 1046.51,794.835 1042.5,795.5C 1040.62,794.907 1038.78,794.24 1037,793.5C 1034.97,794.374 1032.63,794.707 1030,794.5C 1028.56,793.74 1027.06,793.074 1025.5,792.5C 1022.95,792.945 1020.28,792.945 1017.5,792.5C 1017.5,804.5 1017.5,816.5 1017.5,828.5C 1017.5,834.167 1017.5,839.833 1017.5,845.5C 1017.5,859.167 1017.5,872.833 1017.5,886.5C 1017.5,909.167 1017.5,931.833 1017.5,954.5C 1017.17,954.5 1016.83,954.5 1016.5,954.5C 1016.5,926.5 1016.5,898.5 1016.5,870.5C 1016.5,842.167 1016.5,813.833 1016.5,785.5 Z"/></g>
<g><path style="opacity:1" fill="#4c3c24" d="M 1327.5,785.5 C 1363.5,785.5 1399.5,785.5 1435.5,785.5C 1433.75,787.223 1431.75,788.723 1429.5,790C 1381.43,814.559 1330.6,830.059 1277,836.5C 1267.53,838.074 1258.36,839.741 1249.5,841.5C 1241.87,840.514 1234.37,841.181 1227,843.5C 1205.32,844.168 1182.82,844.168 1159.5,843.5C 1157.94,844.074 1156.44,844.74 1155,845.5C 1154.69,844.692 1154.19,844.025 1153.5,843.5C 1144.79,844.21 1135.62,844.543 1126,844.5C 1121.95,843.898 1117.95,843.231 1114,842.5C 1110.28,843.307 1106.61,843.64 1103,843.5C 1087.44,842.113 1071.6,840.78 1055.5,839.5C 1055.77,836.881 1055.44,834.381 1054.5,832C 1045.98,830.989 1037.64,830.156 1029.5,829.5C 1027.4,830.484 1025.4,830.151 1023.5,828.5C 1021.34,828.846 1019.34,828.846 1017.5,828.5C 1017.5,816.5 1017.5,804.5 1017.5,792.5C 1020.28,792.945 1022.95,792.945 1025.5,792.5C 1027.06,793.074 1028.56,793.74 1030,794.5C 1032.63,794.707 1034.97,794.374 1037,793.5C 1038.78,794.24 1040.62,794.907 1042.5,795.5C 1046.51,794.835 1050.84,794.835 1055.5,795.5C 1055.34,797.857 1055.5,800.19 1056,802.5C 1057.46,803.747 1058.96,803.747 1060.5,802.5C 1061.48,802.977 1062.31,803.643 1063,804.5C 1073.74,804.634 1084.57,804.634 1095.5,804.5C 1098.98,805.207 1102.48,805.873 1106,806.5C 1109.96,806.723 1113.63,806.39 1117,805.5C 1118.67,806.167 1120.33,806.833 1122,807.5C 1137.98,806.522 1154.31,806.522 1171,807.5C 1175.67,806.833 1180.33,806.167 1185,805.5C 1190.52,805.528 1196.18,805.862 1202,806.5C 1206.24,804.762 1210.58,804.429 1215,805.5C 1220.72,804.858 1226.39,803.858 1232,802.5C 1234.44,803.394 1237.11,803.728 1240,803.5C 1241.96,802.048 1243.96,801.715 1246,802.5C 1254.46,801.277 1263.13,799.61 1272,797.5C 1290.73,795.627 1309.23,791.627 1327.5,785.5 Z"/></g>
<g><path style="opacity:1" fill="#493923" d="M 1435.5,785.5 C 1449.17,785.5 1462.83,785.5 1476.5,785.5C 1430.12,815.595 1380.79,836.095 1328.5,847C 1311.61,850.877 1294.61,854.044 1277.5,856.5C 1276.83,856.167 1276.17,855.833 1275.5,855.5C 1270.23,856.075 1265.06,857.075 1260,858.5C 1257.34,857.654 1254.34,857.988 1251,859.5C 1248.44,859.659 1245.77,859.325 1243,858.5C 1233.03,861.04 1223.69,861.707 1215,860.5C 1213.67,861.167 1212.33,861.833 1211,862.5C 1201.39,862.53 1191.73,862.197 1182,861.5C 1175.18,862.482 1168.52,863.148 1162,863.5C 1158.53,862.798 1155.03,862.131 1151.5,861.5C 1134.91,861.919 1117.74,861.919 1100,861.5C 1099,860.833 1098,860.167 1097,859.5C 1093.08,860.355 1089.25,860.688 1085.5,860.5C 1081.63,859.865 1077.8,859.199 1074,858.5C 1073.67,858.833 1073.33,859.167 1073,859.5C 1071.33,858.833 1069.67,858.167 1068,857.5C 1064.28,858.307 1060.61,858.64 1057,858.5C 1055.75,855.024 1055.08,851.358 1055,847.5C 1052,847.833 1049,848.167 1046,848.5C 1044.67,847.833 1043.33,847.167 1042,846.5C 1039.7,846.539 1037.37,846.872 1035,847.5C 1032.39,846.73 1029.73,846.063 1027,845.5C 1024,845.786 1020.83,845.786 1017.5,845.5C 1017.5,839.833 1017.5,834.167 1017.5,828.5C 1019.34,828.846 1021.34,828.846 1023.5,828.5C 1025.4,830.151 1027.4,830.484 1029.5,829.5C 1037.64,830.156 1045.98,830.989 1054.5,832C 1055.44,834.381 1055.77,836.881 1055.5,839.5C 1071.6,840.78 1087.44,842.113 1103,843.5C 1106.61,843.64 1110.28,843.307 1114,842.5C 1117.95,843.231 1121.95,843.898 1126,844.5C 1135.62,844.543 1144.79,844.21 1153.5,843.5C 1154.19,844.025 1154.69,844.692 1155,845.5C 1156.44,844.74 1157.94,844.074 1159.5,843.5C 1182.82,844.168 1205.32,844.168 1227,843.5C 1234.37,841.181 1241.87,840.514 1249.5,841.5C 1258.36,839.741 1267.53,838.074 1277,836.5C 1330.6,830.059 1381.43,814.559 1429.5,790C 1431.75,788.723 1433.75,787.223 1435.5,785.5 Z"/></g>
<g><path style="opacity:1" fill="#463622" d="M 1476.5,785.5 C 1503.5,785.5 1530.5,785.5 1557.5,785.5C 1525.11,813.952 1489.44,837.785 1450.5,857C 1436.07,862.963 1421.57,868.796 1407,874.5C 1405.33,874.5 1403.67,874.5 1402,874.5C 1393.74,877.975 1385.24,880.975 1376.5,883.5C 1375.45,883.32 1374.45,882.987 1373.5,882.5C 1371.06,883.926 1368.56,885.259 1366,886.5C 1353.01,888.164 1340.34,890.83 1328,894.5C 1327.44,893.978 1326.77,893.645 1326,893.5C 1323.69,894.527 1321.35,895.527 1319,896.5C 1318.44,895.978 1317.77,895.645 1317,895.5C 1313.59,896.691 1310.25,897.691 1307,898.5C 1303.03,898.482 1299.03,898.482 1295,898.5C 1289.65,899.184 1284.31,900.184 1279,901.5C 1278.28,900.941 1277.44,900.608 1276.5,900.5C 1270.22,901.551 1264.06,902.884 1258,904.5C 1247.28,905.718 1236.11,905.718 1224.5,904.5C 1222.3,905.066 1220.14,905.732 1218,906.5C 1205.25,905.998 1192.42,905.665 1179.5,905.5C 1178.25,906.04 1177.09,906.707 1176,907.5C 1174.06,905.285 1172.39,905.285 1171,907.5C 1170.33,906.833 1169.67,906.167 1169,905.5C 1167.33,906.167 1165.67,906.833 1164,907.5C 1160.74,906.652 1157.41,905.985 1154,905.5C 1148.37,905.825 1143.03,906.159 1138,906.5C 1135.15,905.886 1132.31,905.219 1129.5,904.5C 1119.27,904.721 1108.77,904.721 1098,904.5C 1095.67,903.833 1093.33,903.167 1091,902.5C 1087.45,902.609 1083.62,902.942 1079.5,903.5C 1077.25,901.027 1075.08,901.027 1073,903.5C 1069.86,900.572 1066.19,900.239 1062,902.5C 1060.56,900.986 1059.06,900.653 1057.5,901.5C 1056.51,897.555 1056.18,893.555 1056.5,889.5C 1050.51,888.802 1044.68,888.802 1039,889.5C 1032.65,888.226 1026.31,886.893 1020,885.5C 1019.33,886.252 1018.5,886.586 1017.5,886.5C 1017.5,872.833 1017.5,859.167 1017.5,845.5C 1020.83,845.786 1024,845.786 1027,845.5C 1029.73,846.063 1032.39,846.73 1035,847.5C 1037.37,846.872 1039.7,846.539 1042,846.5C 1043.33,847.167 1044.67,847.833 1046,848.5C 1049,848.167 1052,847.833 1055,847.5C 1055.08,851.358 1055.75,855.024 1057,858.5C 1060.61,858.64 1064.28,858.307 1068,857.5C 1069.67,858.167 1071.33,858.833 1073,859.5C 1073.33,859.167 1073.67,858.833 1074,858.5C 1077.8,859.199 1081.63,859.865 1085.5,860.5C 1089.25,860.688 1093.08,860.355 1097,859.5C 1098,860.167 1099,860.833 1100,861.5C 1117.74,861.919 1134.91,861.919 1151.5,861.5C 1155.03,862.131 1158.53,862.798 1162,863.5C 1168.52,863.148 1175.18,862.482 1182,861.5C 1191.73,862.197 1201.39,862.53 1211,862.5C 1212.33,861.833 1213.67,861.167 1215,860.5C 1223.69,861.707 1233.03,861.04 1243,858.5C 1245.77,859.325 1248.44,859.659 1251,859.5C 1254.34,857.988 1257.34,857.654 1260,858.5C 1265.06,857.075 1270.23,856.075 1275.5,855.5C 1276.17,855.833 1276.83,856.167 1277.5,856.5C 1294.61,854.044 1311.61,850.877 1328.5,847C 1380.79,836.095 1430.12,815.595 1476.5,785.5 Z"/></g>
<g><path style="opacity:1" fill="#423321" d="M 1557.5,785.5 C 1561.17,785.5 1564.83,785.5 1568.5,785.5C 1568.5,809.833 1568.5,834.167 1568.5,858.5C 1556.46,865.7 1545.29,873.366 1535,881.5C 1534.67,881.167 1534.33,880.833 1534,880.5C 1533.42,883.124 1532.09,883.791 1530,882.5C 1525.24,887.56 1519.24,890.893 1512,892.5C 1505.92,896.457 1499.75,900.291 1493.5,904C 1489.92,904.19 1486.76,905.357 1484,907.5C 1483.67,907.167 1483.33,906.833 1483,906.5C 1477.65,909.957 1472.65,913.29 1468,916.5C 1465.52,915.978 1463.19,915.978 1461,916.5C 1453.24,920.966 1445.24,923.966 1437,925.5C 1435.99,925.892 1435.49,926.559 1435.5,927.5C 1432.81,926.855 1430.31,926.855 1428,927.5C 1423.66,930.396 1419,932.73 1414,934.5C 1413.67,934.167 1413.33,933.833 1413,933.5C 1409.28,934.709 1405.61,936.043 1402,937.5C 1400.68,935.417 1399.35,935.751 1398,938.5C 1396.98,937.366 1396.32,937.699 1396,939.5C 1395.67,939.167 1395.33,938.833 1395,938.5C 1391.46,942.628 1387.46,943.295 1383,940.5C 1382.67,941.167 1382.33,941.833 1382,942.5C 1380.74,943.03 1379.24,943.03 1377.5,942.5C 1376.65,943.522 1375.65,944.355 1374.5,945C 1354.44,948.545 1335.1,951.711 1316.5,954.5C 1216.83,954.5 1117.17,954.5 1017.5,954.5C 1017.5,931.833 1017.5,909.167 1017.5,886.5C 1018.5,886.586 1019.33,886.252 1020,885.5C 1026.31,886.893 1032.65,888.226 1039,889.5C 1044.68,888.802 1050.51,888.802 1056.5,889.5C 1056.18,893.555 1056.51,897.555 1057.5,901.5C 1059.06,900.653 1060.56,900.986 1062,902.5C 1066.19,900.239 1069.86,900.572 1073,903.5C 1075.08,901.027 1077.25,901.027 1079.5,903.5C 1083.62,902.942 1087.45,902.609 1091,902.5C 1093.33,903.167 1095.67,903.833 1098,904.5C 1108.77,904.721 1119.27,904.721 1129.5,904.5C 1132.31,905.219 1135.15,905.886 1138,906.5C 1143.03,906.159 1148.37,905.825 1154,905.5C 1157.41,905.985 1160.74,906.652 1164,907.5C 1165.67,906.833 1167.33,906.167 1169,905.5C 1169.67,906.167 1170.33,906.833 1171,907.5C 1172.39,905.285 1174.06,905.285 1176,907.5C 1177.09,906.707 1178.25,906.04 1179.5,905.5C 1192.42,905.665 1205.25,905.998 1218,906.5C 1220.14,905.732 1222.3,905.066 1224.5,904.5C 1236.11,905.718 1247.28,905.718 1258,904.5C 1264.06,902.884 1270.22,901.551 1276.5,900.5C 1277.44,900.608 1278.28,900.941 1279,901.5C 1284.31,900.184 1289.65,899.184 1295,898.5C 1299.03,898.482 1303.03,898.482 1307,898.5C 1310.25,897.691 1313.59,896.691 1317,895.5C 1317.77,895.645 1318.44,895.978 1319,896.5C 1321.35,895.527 1323.69,894.527 1326,893.5C 1326.77,893.645 1327.44,893.978 1328,894.5C 1340.34,890.83 1353.01,888.164 1366,886.5C 1368.56,885.259 1371.06,883.926 1373.5,882.5C 1374.45,882.987 1375.45,883.32 1376.5,883.5C 1385.24,880.975 1393.74,877.975 1402,874.5C 1403.67,874.5 1405.33,874.5 1407,874.5C 1421.57,868.796 1436.07,862.963 1450.5,857C 1489.44,837.785 1525.11,813.952 1557.5,785.5 Z"/></g>
<g><path style="opacity:1" fill="#473721" d="M 560.5,785.5 C 579.833,785.5 599.167,785.5 618.5,785.5C 618.5,841.833 618.5,898.167 618.5,954.5C 618.167,954.5 617.833,954.5 617.5,954.5C 617.5,931.5 617.5,908.5 617.5,885.5C 617.5,869.833 617.5,854.167 617.5,838.5C 615.061,837.947 612.727,837.947 610.5,838.5C 607.14,836.479 603.974,836.479 601,838.5C 600.072,836.665 598.906,836.332 597.5,837.5C 594.609,836.994 591.942,835.994 589.5,834.5C 586.635,835.609 583.801,835.276 581,833.5C 576.033,833.183 571.033,833.183 566,833.5C 564.667,832.833 563.333,832.167 562,831.5C 561.5,847.83 561.333,864.163 561.5,880.5C 561.5,905.167 561.5,929.833 561.5,954.5C 561.167,954.5 560.833,954.5 560.5,954.5C 560.5,898.167 560.5,841.833 560.5,785.5 Z"/></g>
<g><path style="opacity:1" fill="#463622" d="M 927.5,834.5 C 927.5,848.5 927.5,862.5 927.5,876.5C 919.306,876.052 910.972,875.052 902.5,873.5C 901.914,873.709 901.414,874.043 901,874.5C 897.687,873.959 894.354,872.959 891,871.5C 888.872,872.837 886.706,872.504 884.5,870.5C 881.09,871.751 877.423,871.751 873.5,870.5C 874.384,874.09 874.717,877.59 874.5,881C 873.975,881.692 873.308,882.192 872.5,882.5C 863.041,881.004 853.874,879.337 845,877.5C 844,877.833 843,878.167 842,878.5C 839.07,876.841 836.07,876.508 833,877.5C 831.915,876.707 830.748,876.04 829.5,875.5C 827.622,875.623 825.789,875.623 824,875.5C 822.372,873.288 820.372,872.954 818,874.5C 815.149,873.912 812.315,873.245 809.5,872.5C 807.301,874.149 805.468,873.816 804,871.5C 797.729,872.016 791.563,872.016 785.5,871.5C 784.572,869.665 783.406,869.332 782,870.5C 776.569,869.247 771.069,868.247 765.5,867.5C 763.275,868.101 761.109,868.434 759,868.5C 758.676,866.431 757.842,866.098 756.5,867.5C 749.346,865.359 742.012,864.192 734.5,864C 734,863.5 733.5,863 733,862.5C 728.398,862.415 723.898,862.748 719.5,863.5C 718.522,863.023 717.689,862.357 717,861.5C 715.093,861.421 713.093,861.754 711,862.5C 709.088,861.308 707.088,860.308 705,859.5C 699.442,859.194 694.109,859.194 689,859.5C 685.515,857.905 682.015,857.572 678.5,858.5C 678.931,853.968 678.431,849.635 677,845.5C 676.667,845.833 676.333,846.167 676,846.5C 672.194,845.984 668.528,844.984 665,843.5C 664,843.833 663,844.167 662,844.5C 660.667,843.833 659.333,843.167 658,842.5C 652.101,843.533 646.101,842.866 640,840.5C 638.253,840.387 636.42,840.721 634.5,841.5C 634.5,827.5 634.5,813.5 634.5,799.5C 638.375,799.896 642.208,800.562 646,801.5C 648.449,800.884 650.949,801.217 653.5,802.5C 656.925,801.455 660.258,801.788 663.5,803.5C 665.306,802.141 666.806,802.475 668,804.5C 671.537,803.566 674.871,803.566 678,804.5C 678.498,807.817 678.665,811.15 678.5,814.5C 682.545,814.642 686.379,814.642 690,814.5C 691.085,815.293 692.252,815.96 693.5,816.5C 696.258,816.619 699.092,816.285 702,815.5C 703.892,816.13 705.559,817.13 707,818.5C 715.179,817.956 723.346,818.623 731.5,820.5C 733.061,819.653 734.561,819.986 736,821.5C 739.795,821.105 743.629,821.772 747.5,823.5C 748.716,822.998 749.883,822.665 751,822.5C 759.964,824.114 768.964,825.447 778,826.5C 779,826.167 780,825.833 781,825.5C 784.246,826.818 787.58,827.818 791,828.5C 794.429,828.271 797.762,828.271 801,828.5C 802.333,829.167 803.667,829.833 805,830.5C 806.268,830.384 807.602,830.051 809,829.5C 813.37,830.315 817.704,831.315 822,832.5C 826.549,832.847 831.216,832.847 836,832.5C 838.773,834.047 841.773,835.047 845,835.5C 848.461,835.343 851.961,835.009 855.5,834.5C 856.478,834.977 857.311,835.643 858,836.5C 858.333,836.167 858.667,835.833 859,835.5C 863.036,836.945 867.203,837.945 871.5,838.5C 873.92,835.825 874.587,832.825 873.5,829.5C 886.478,830.261 899.812,831.928 913.5,834.5C 918.163,834.594 922.83,834.594 927.5,834.5 Z"/></g>
<g><path style="opacity:1" fill="#988e72" d="M 545.5,785.5 C 550.5,785.5 555.5,785.5 560.5,785.5C 560.5,841.833 560.5,898.167 560.5,954.5C 555.5,954.5 550.5,954.5 545.5,954.5C 545.5,898.167 545.5,841.833 545.5,785.5 Z"/></g>
<g><path style="opacity:1" fill="#9e9371" d="M 1002.5,785.5 C 1007.17,785.5 1011.83,785.5 1016.5,785.5C 1016.5,813.833 1016.5,842.167 1016.5,870.5C 1012.12,870.078 1007.79,869.411 1003.5,868.5C 1002.5,840.841 1002.17,813.175 1002.5,785.5 Z"/></g>
<g><path style="opacity:1" fill="#988e71" d="M 618.5,785.5 C 623.5,785.5 628.5,785.5 633.5,785.5C 633.5,841.833 633.5,898.167 633.5,954.5C 628.5,954.5 623.5,954.5 618.5,954.5C 618.5,898.167 618.5,841.833 618.5,785.5 Z"/></g>
<g><path style="opacity:1" fill="#423320" d="M 617.5,885.5 C 613.97,886.011 610.804,885.344 608,883.5C 607.333,886.167 606.667,886.167 606,883.5C 604.326,885.009 602.66,885.676 601,885.5C 599.295,884.237 597.628,883.903 596,884.5C 593.539,883.782 591.039,883.115 588.5,882.5C 584.969,882.539 581.469,882.539 578,882.5C 575.807,881.227 573.64,880.894 571.5,881.5C 570.252,880.96 569.085,880.293 568,879.5C 565.959,879.198 563.792,879.532 561.5,880.5C 561.333,864.163 561.5,847.83 562,831.5C 563.333,832.167 564.667,832.833 566,833.5C 571.033,833.183 576.033,833.183 581,833.5C 583.801,835.276 586.635,835.609 589.5,834.5C 591.942,835.994 594.609,836.994 597.5,837.5C 598.906,836.332 600.072,836.665 601,838.5C 603.974,836.479 607.14,836.479 610.5,838.5C 612.727,837.947 615.061,837.947 617.5,838.5C 617.5,854.167 617.5,869.833 617.5,885.5 Z"/></g>
<g><path style="opacity:1" fill="#473722" d="M 1001.5,857.5 C 1001.5,889.833 1001.5,922.167 1001.5,954.5C 1001.17,954.5 1000.83,954.5 1000.5,954.5C 1000.5,931.167 1000.5,907.833 1000.5,884.5C 998.062,883.381 995.562,883.381 993,884.5C 990.474,884.435 988.141,883.768 986,882.5C 982.805,883.424 979.639,883.09 976.5,881.5C 975.707,881.931 974.873,882.265 974,882.5C 967.227,881.455 960.561,880.122 954,878.5C 953.125,880.513 951.791,880.513 950,878.5C 948.301,879.406 946.467,879.739 944.5,879.5C 944.5,860.167 944.5,840.833 944.5,821.5C 954.103,822.423 963.603,823.756 973,825.5C 973.725,824.941 974.558,824.608 975.5,824.5C 982.733,825.338 989.899,826.338 997,827.5C 998.011,826.663 999.178,826.33 1000.5,826.5C 1000.17,837.014 1000.51,847.347 1001.5,857.5 Z"/></g>
<g><path style="opacity:1" fill="#423321" d="M 927.5,876.5 C 927.5,892.5 927.5,908.5 927.5,924.5C 924.047,923.795 920.547,923.128 917,922.5C 914.858,923.206 912.691,922.872 910.5,921.5C 909.522,921.977 908.689,922.643 908,923.5C 905.15,922.152 902.317,921.819 899.5,922.5C 895.642,921.244 891.809,919.91 888,918.5C 883.752,919.665 879.585,919.665 875.5,918.5C 874.669,924.807 874.169,931.141 874,937.5C 872.667,936.167 871.333,936.167 870,937.5C 867.441,936.02 864.774,934.687 862,933.5C 859.261,934.122 856.428,934.456 853.5,934.5C 850.485,933.22 847.485,932.887 844.5,933.5C 843.522,933.023 842.689,932.357 842,931.5C 839,931.833 836,932.167 833,932.5C 831.238,930.537 829.571,929.204 828,928.5C 822.423,930.121 816.923,931.121 811.5,931.5C 807.081,927.818 802.081,926.818 796.5,928.5C 795.835,927.487 794.668,926.487 793,925.5C 788.831,926.297 784.831,925.63 781,923.5C 777.489,924.951 774.156,924.618 771,922.5C 765.624,922.548 760.29,922.548 755,922.5C 754.667,921.833 754.333,921.167 754,920.5C 749.459,921.411 745.126,921.744 741,921.5C 738.753,919.845 736.42,919.512 734,920.5C 731.528,919.8 729.195,918.8 727,917.5C 722.964,918.289 718.798,918.455 714.5,918C 713.109,916.35 711.609,915.85 710,916.5C 707.903,915.009 705.57,914.009 703,913.5C 702.692,914.308 702.192,914.975 701.5,915.5C 698.989,915.358 696.489,914.358 694,912.5C 689.136,912.527 684.303,912.527 679.5,912.5C 678.833,905.833 678.167,899.167 677.5,892.5C 673.999,893.161 670.832,893.494 668,893.5C 666.53,891.848 664.697,890.848 662.5,890.5C 660.37,890.758 658.204,891.091 656,891.5C 654.667,890.833 653.333,890.167 652,889.5C 645.805,889.639 639.972,889.639 634.5,889.5C 634.5,873.5 634.5,857.5 634.5,841.5C 636.42,840.721 638.253,840.387 640,840.5C 646.101,842.866 652.101,843.533 658,842.5C 659.333,843.167 660.667,843.833 662,844.5C 663,844.167 664,843.833 665,843.5C 668.528,844.984 672.194,845.984 676,846.5C 676.333,846.167 676.667,845.833 677,845.5C 678.431,849.635 678.931,853.968 678.5,858.5C 682.015,857.572 685.515,857.905 689,859.5C 694.109,859.194 699.442,859.194 705,859.5C 707.088,860.308 709.088,861.308 711,862.5C 713.093,861.754 715.093,861.421 717,861.5C 717.689,862.357 718.522,863.023 719.5,863.5C 723.898,862.748 728.398,862.415 733,862.5C 733.5,863 734,863.5 734.5,864C 742.012,864.192 749.346,865.359 756.5,867.5C 757.842,866.098 758.676,866.431 759,868.5C 761.109,868.434 763.275,868.101 765.5,867.5C 771.069,868.247 776.569,869.247 782,870.5C 783.406,869.332 784.572,869.665 785.5,871.5C 791.563,872.016 797.729,872.016 804,871.5C 805.468,873.816 807.301,874.149 809.5,872.5C 812.315,873.245 815.149,873.912 818,874.5C 820.372,872.954 822.372,873.288 824,875.5C 825.789,875.623 827.622,875.623 829.5,875.5C 830.748,876.04 831.915,876.707 833,877.5C 836.07,876.508 839.07,876.841 842,878.5C 843,878.167 844,877.833 845,877.5C 853.874,879.337 863.041,881.004 872.5,882.5C 873.308,882.192 873.975,881.692 874.5,881C 874.717,877.59 874.384,874.09 873.5,870.5C 877.423,871.751 881.09,871.751 884.5,870.5C 886.706,872.504 888.872,872.837 891,871.5C 894.354,872.959 897.687,873.959 901,874.5C 901.414,874.043 901.914,873.709 902.5,873.5C 910.972,875.052 919.306,876.052 927.5,876.5 Z"/></g>
<g><path style="opacity:1" fill="#978d71" d="M 942.5,785.5 C 942.833,785.5 943.167,785.5 943.5,785.5C 943.5,841.833 943.5,898.167 943.5,954.5C 938.5,954.5 933.5,954.5 928.5,954.5C 928.5,920.167 928.5,885.833 928.5,851.5C 929.479,854.625 929.813,857.958 929.5,861.5C 933.833,861.5 938.167,861.5 942.5,861.5C 942.5,836.167 942.5,810.833 942.5,785.5 Z"/></g>
<g><path style="opacity:1" fill="#3f3020" d="M 1568.5,858.5 C 1568.5,890.5 1568.5,922.5 1568.5,954.5C 1484.5,954.5 1400.5,954.5 1316.5,954.5C 1335.1,951.711 1354.44,948.545 1374.5,945C 1375.65,944.355 1376.65,943.522 1377.5,942.5C 1379.24,943.03 1380.74,943.03 1382,942.5C 1382.33,941.833 1382.67,941.167 1383,940.5C 1387.46,943.295 1391.46,942.628 1395,938.5C 1395.33,938.833 1395.67,939.167 1396,939.5C 1396.32,937.699 1396.98,937.366 1398,938.5C 1399.35,935.751 1400.68,935.417 1402,937.5C 1405.61,936.043 1409.28,934.709 1413,933.5C 1413.33,933.833 1413.67,934.167 1414,934.5C 1419,932.73 1423.66,930.396 1428,927.5C 1430.31,926.855 1432.81,926.855 1435.5,927.5C 1435.49,926.559 1435.99,925.892 1437,925.5C 1445.24,923.966 1453.24,920.966 1461,916.5C 1463.19,915.978 1465.52,915.978 1468,916.5C 1472.65,913.29 1477.65,909.957 1483,906.5C 1483.33,906.833 1483.67,907.167 1484,907.5C 1486.76,905.357 1489.92,904.19 1493.5,904C 1499.75,900.291 1505.92,896.457 1512,892.5C 1519.24,890.893 1525.24,887.56 1530,882.5C 1532.09,883.791 1533.42,883.124 1534,880.5C 1534.33,880.833 1534.67,881.167 1535,881.5C 1545.29,873.366 1556.46,865.7 1568.5,858.5 Z"/></g>
<g><path style="opacity:1" fill="#968d70" d="M 1001.5,785.5 C 1001.83,785.5 1002.17,785.5 1002.5,785.5C 1002.17,813.175 1002.5,840.841 1003.5,868.5C 1007.79,869.411 1012.12,870.078 1016.5,870.5C 1016.5,898.5 1016.5,926.5 1016.5,954.5C 1011.5,954.5 1006.5,954.5 1001.5,954.5C 1001.5,922.167 1001.5,889.833 1001.5,857.5C 1001.5,833.5 1001.5,809.5 1001.5,785.5 Z"/></g>
<g><path style="opacity:1" fill="#423220" d="M 1000.5,954.5 C 981.833,954.5 963.167,954.5 944.5,954.5C 944.5,929.5 944.5,904.5 944.5,879.5C 946.467,879.739 948.301,879.406 950,878.5C 951.791,880.513 953.125,880.513 954,878.5C 960.561,880.122 967.227,881.455 974,882.5C 974.873,882.265 975.707,881.931 976.5,881.5C 979.639,883.09 982.805,883.424 986,882.5C 988.141,883.768 990.474,884.435 993,884.5C 995.562,883.381 998.062,883.381 1000.5,884.5C 1000.5,907.833 1000.5,931.167 1000.5,954.5 Z"/></g>
<g><path style="opacity:1" fill="#3f301f" d="M 617.5,885.5 C 617.5,908.5 617.5,931.5 617.5,954.5C 598.833,954.5 580.167,954.5 561.5,954.5C 561.5,929.833 561.5,905.167 561.5,880.5C 563.792,879.532 565.959,879.198 568,879.5C 569.085,880.293 570.252,880.96 571.5,881.5C 573.64,880.894 575.807,881.227 578,882.5C 581.469,882.539 584.969,882.539 588.5,882.5C 591.039,883.115 593.539,883.782 596,884.5C 597.628,883.903 599.295,884.237 601,885.5C 602.66,885.676 604.326,885.009 606,883.5C 606.667,886.167 607.333,886.167 608,883.5C 610.804,885.344 613.97,886.011 617.5,885.5 Z"/></g>
<g><path style="opacity:1" fill="#3f3020" d="M 634.5,889.5 C 639.972,889.639 645.805,889.639 652,889.5C 653.333,890.167 654.667,890.833 656,891.5C 658.204,891.091 660.37,890.758 662.5,890.5C 664.697,890.848 666.53,891.848 668,893.5C 670.832,893.494 673.999,893.161 677.5,892.5C 678.167,899.167 678.833,905.833 679.5,912.5C 684.303,912.527 689.136,912.527 694,912.5C 696.489,914.358 698.989,915.358 701.5,915.5C 702.192,914.975 702.692,914.308 703,913.5C 705.57,914.009 707.903,915.009 710,916.5C 711.609,915.85 713.109,916.35 714.5,918C 718.798,918.455 722.964,918.289 727,917.5C 729.195,918.8 731.528,919.8 734,920.5C 736.42,919.512 738.753,919.845 741,921.5C 745.126,921.744 749.459,921.411 754,920.5C 754.333,921.167 754.667,921.833 755,922.5C 760.29,922.548 765.624,922.548 771,922.5C 774.156,924.618 777.489,924.951 781,923.5C 784.831,925.63 788.831,926.297 793,925.5C 794.668,926.487 795.835,927.487 796.5,928.5C 802.081,926.818 807.081,927.818 811.5,931.5C 816.923,931.121 822.423,930.121 828,928.5C 829.571,929.204 831.238,930.537 833,932.5C 836,932.167 839,931.833 842,931.5C 842.689,932.357 843.522,933.023 844.5,933.5C 847.485,932.887 850.485,933.22 853.5,934.5C 856.428,934.456 859.261,934.122 862,933.5C 864.774,934.687 867.441,936.02 870,937.5C 871.333,936.167 872.667,936.167 874,937.5C 874.169,931.141 874.669,924.807 875.5,918.5C 879.585,919.665 883.752,919.665 888,918.5C 891.809,919.91 895.642,921.244 899.5,922.5C 902.317,921.819 905.15,922.152 908,923.5C 908.689,922.643 909.522,921.977 910.5,921.5C 912.691,922.872 914.858,923.206 917,922.5C 920.547,923.128 924.047,923.795 927.5,924.5C 927.5,934.5 927.5,944.5 927.5,954.5C 829.833,954.5 732.167,954.5 634.5,954.5C 634.5,932.833 634.5,911.167 634.5,889.5 Z"/></g>
</svg>
